<?xml version="1.0" encoding="utf-8" ?>
<svg baseProfile="full" height="200mm" version="1.1" viewBox="0,0,200,200" width="200mm" xmlns="http://www.w3.org/2000/svg" xmlns:ev="http://www.w3.org/2001/xml-events" xmlns:xlink="http://www.w3.org/1999/xlink"><defs /><rect fill="#1a1a1a" height="200" width="200" x="0" y="0" /><text alignment-baseline="middle" fill="#e1ed5e" style="dominant-baseline: central; font-size:9.0px; font-family:Arial;" text-anchor="middle" x="100.0" y="100.0">2022</text><line stroke="#e1ed5e" stroke-width="0.3" x1="100.0" x2="100.0" y1="15.0" y2="10.0" /><path d="M 100.0 14.0 a86.0,86.0 0 0,1 42.46469731375804,11.215312516191453" fill="none" id="id61" stroke="none" /><text fill="#e1ed5e" style="font-size:6.75px; font-family:Arial;" text-anchor="middle"><textPath startOffset="22.20632615414155" xlink:href="#id61">January</textPath></text><path d="M 100.36148047927253 79.00311137660856 l 0.07322480455484305 -4.253322527406784 a25.253952796417483,25.253952796417483 0 0,0 0.43457647127006493,0.011223828127428682 l -0.14642791101977579 4.251431907136995" fill="#ff2603" stroke="none" /><path d="M 101.44485096284872 79.0497635885617 l 0.411436327180835 -5.965797541981424 a26.97996824098888,26.97996824098888 0 0,0 0.46304024974975483,0.035940835128819903 l -0.514066766292931 5.95783144466414" fill="#ff3f05" stroke="none" /><path d="M 103.95276090670814 79.375362276772 l 2.6853583221552553 -14.01160957079794 a35.26661670063526,35.26661670063526 0 0,0 0.5952225515787046,0.11939604428364871 l -2.9261472832010855 13.963309570437083" fill="#ffb010" stroke="none" /><path d="M 104.307194497241 79.44645832069477 l 2.772437426316572 -13.229820067694734 a34.517194542745145,34.517194542745145 0 0,0 0.5804761140275517,0.12686959534756215 l -2.9997562644976514 13.180136974251301" fill="#ffa60f" stroke="none" /><path d="M 104.66035177308747 79.52364482259891 l 2.892219552954662 -12.707649057592343 a34.03262362356179,34.03262362356179 0 0,0 0.5700890886327947,0.13492166843965536 l -3.11053232854998 12.655981477011819" fill="#ffa00e" stroke="none" /><path d="M 107.76421540070413 80.48803036053334 l 2.321870076907043 -5.835007931810818 a27.27999985814741,27.27999985814741 0 0,0 0.43481219000706856,0.17737080978778713 l -2.421966136502499 5.794176235839452" fill="#ff4306" stroke="none" /><path d="M 108.09893153111575 80.62456947434976 l 10.333227154319404 -24.720634328747824 a47.79338248595032,47.79338248595032 0 0,0 0.7563103462010081,0.32381262001694744 l -10.757221258310727 24.539102180768086" fill="#b4ff20" stroke="none" /><path d="M 110.05341064243156 81.56283822128135 l 3.4028406135258016 -6.240541158636608 a28.108000998431148,28.108000998431148 0 0,0 0.4227924009401708,0.235283513375585 l -3.5097571035380075 6.1810422477008435" fill="#ff4f07" stroke="none" /><line stroke="#e1ed5e" stroke-width="0.3" x1="143.23703022742887" x2="145.7803849466894" y1="26.81831364943548" y2="22.513508569990506" /><path d="M 143.74570117128098 25.957352633546492 a86.0,86.0 0 0,1 28.547481713284135,27.462654790039103" fill="none" id="id62" stroke="none" /><text fill="#e1ed5e" style="font-size:6.75px; font-family:Arial;" text-anchor="middle"><textPath startOffset="19.985693538727396" xlink:href="#id62">February</textPath></text><path d="M 111.90073688211348 82.69761687909136 l 3.4164976061640258 -4.967217668879269 a27.02874010577259,27.02874010577259 0 0,0 0.381065156266941,0.26696049423483537 l -3.501493902014618 4.907672331880498" fill="#ff4006" stroke="none" /><path d="M 112.48926042617603 83.11751280151076 l 3.748722442679816 -5.067374407261745 a27.303269257744162,27.303269257744162 0 0,0 0.3754249530068632,0.2827622912292549 l -3.8353935494450617 5.0020955265266425" fill="#ff4406" stroke="none" /><path d="M 112.77801427241765 83.33499621200491 l 15.686971540042528 -20.45884709185864 a46.78071954826236,46.78071954826236 0 0,0 0.634808672260553,0.49547823786767253 l -16.03681276746251 20.185790464767745" fill="#c0ff1e" stroke="none" /><path d="M 113.6212207817346 84.01681056812373 l 4.141861871448859 -4.860075609434644 a27.385558291299468,27.385558291299468 0 0,0 0.35615075223211473,0.3088504227678993 l -4.224906422327738 4.788060193247074" fill="#ff4506" stroke="none" /><path d="M 113.89432698308785 84.25364557470407 l 4.246234011488724 -4.8122306175054606 a27.417792984849278,27.417792984849278 0 0,0 0.3511945265377238,0.31530591348568116 l -4.3284395256224375 4.7384256952504815" fill="#ff4506" stroke="none" /><path d="M 114.16331599549186 84.49514656593476 l 1.939659792440279 -2.123382744782962 a23.875940609826895,23.875940609826895 0 0,0 0.3010552781173628,0.2797980708206024 l -1.9759229543524885 2.089680087887719" fill="#ff1202" stroke="none" /><path d="M 114.68862486808459 84.99185889309783 l 4.237207056425435 -4.329377458618907 a27.057840606868012,27.057840606868012 0 0,0 0.3300595280123082,0.32864214750645077 l -4.311102384605065 4.255799460462338" fill="#ff4006" stroke="none" /><path d="M 114.94478906791727 85.2469230424477 l 14.978796579701935 -14.78664822016524 a42.047786405297025,42.047786405297025 0 0,0 0.5040443081138976,0.5194619662569143 l -15.231105151518943 14.526622058358212" fill="#f8ff18" stroke="none" /><path d="M 115.68641384162765 86.03803664274999 l 5.377921580919581 -4.786711915740973 a28.199628566448215,28.199628566448215 0 0,0 0.31960671632843884,0.3653657263707394 l -5.459520160825868 4.693430633167287" fill="#ff5007" stroke="none" /><path d="M 115.9244219780498 86.31012108654704 l 5.363891719265343 -4.611220943707266 a28.07352054974663,28.07352054974663 0 0,0 0.311869256490819,0.3691548310578998 l -5.442471589243279 4.51820716302026" fill="#ff4f07" stroke="none" /><path d="M 117.2510076193507 88.02491185347247 l 5.872475294423006 -4.076481260731573 a28.14868278445087,28.14868278445087 0 0,0 0.2728753875507577,0.40041096017644967 l -5.941775147642496 3.974792277284717" fill="#ff5007" stroke="none" /><path d="M 117.45458315368197 88.32363383020206 l 5.935331298972921 -3.9704816193935333 a28.14093004576501,28.14093004576501 0 0,0 0.2658692954874782,0.40493717727133877 l -6.002797229818324 3.867726378144521" fill="#ff5007" stroke="none" /><line stroke="#e1ed5e" stroke-width="0.3" x1="172.23445277983987" x2="176.4835382374775" y1="55.19839476539836" y2="52.563006222186495" /><path d="M 173.08426987136738 54.67131705675599 a86.0,86.0 0 0,1 12.851231095245387,41.99856678651699" fill="none" id="id63" stroke="none" /><text fill="#e1ed5e" style="font-size:6.75px; font-family:Arial;" text-anchor="middle"><textPath startOffset="22.20632615414155" xlink:href="#id63">March</textPath></text><path d="M 118.89224826269711 90.83032412892265 l 3.663387596326809 -1.778087836944731 a25.072100813684738,25.072100813684738 0 0,0 0.18510589496834554,0.3898802226920824 l -3.6934516851369104 1.7147651986121082" fill="#ff2403" stroke="none" /><path d="M 119.04729006885535 91.15688171328212 l 27.65713525736881 -12.840425995957215 a51.492518269274626,51.492518269274626 0 0,0 0.36632680586438837,0.807152558263962 l -27.874064380196547 12.362451428851191" fill="#8bff24" stroke="none" /><path d="M 119.196687751892 91.48605970444005 l 24.724607255614746 -10.965632859487705 a48.04720517823374,48.04720517823374 0 0,0 0.32880141667652596,0.7589190027544352 l -24.909699382133955 10.538414712146668" fill="#b1ff20" stroke="none" /><path d="M 119.7369772167798 92.82701384747503 l 6.7045466853010085 -2.4366254267008634 a28.133588839106576,28.133588839106576 0 0,0 0.16149606953894402,0.45657113588120124 l -6.745495835649762 2.3208566643930473" fill="#ff4f07" stroke="none" /><path d="M 119.85752413597 93.16781622104841 l 11.921865023924905 -4.101839296459261 a33.60777344588097,33.60777344588097 0 0,0 0.18350277398142653,0.5486499375305345 l -11.990705091678102 3.8960162560064124" fill="#ff9a0e" stroke="none" /><path d="M 120.28053869075195 94.5502522615342 l 6.348390623070751 -1.7059274395287043 a27.57360266003579,27.57360266003579 0 0,0 0.11922782214676328,0.45943343482105947 l -6.376814777087817 1.5963975791587943" fill="#ff4806" stroke="none" /><path d="M 120.45610955862082 95.25157060432595 l 23.77870596930431 -5.519696015127682 a45.410938156368445,45.410938156368445 0 0,0 0.17019503449569237,0.7629509677515859 l -23.87019539080204 5.109566877826132" fill="#d0ff1d" stroke="none" /><path d="M 120.78858239683441 97.02765380044208 l 3.506306180240677 -0.5013307617796874 a24.54196492956954,24.54196492956954 0 0,0 0.05619408879980824,0.41871123256938275 l -3.514416268098321 0.4409011871456403" fill="#ff1c02" stroke="none" /><path d="M 120.87857604477298 97.74499172005257 l 10.980627503822033 -1.1859719689234387 a32.04448776036105,32.04448776036105 0 0,0 0.05451053375432092,0.5489136358782909 l -10.999415163258583 0.9967828023407128" fill="#ff850c" stroke="none" /><path d="M 120.91429891909075 98.10471618934814 l 4.543389283675694 -0.4117284632945312 a25.562006851212086,25.562006851212086 0 0,0 0.03593959270912612,0.4385540627014943 l -4.549803360204315 0.3334604833852682" fill="#ff2b04" stroke="none" /><line stroke="#e1ed5e" stroke-width="0.3" x1="184.98032266829074" x2="189.97916517819016" y1="98.17113171792111" y2="98.06355123074" /><path d="M 185.9800911702706 98.14961562048488 a86.0,86.0 0 0,1 -9.607161424134198,41.387399972396054" fill="none" id="id64" stroke="none" /><text fill="#e1ed5e" style="font-size:6.75px; font-family:Arial;" text-anchor="middle"><textPath startOffset="21.466115282336823" xlink:href="#id64">April</textPath></text><path d="M 120.99980553446 99.90962569577887 l 6.186300683005651 -0.02662322843951584 a27.18635797031248,27.18635797031248 0 0,0 -0.0020139947991884037,0.46798146325855583 l -6.185842390916959 -0.07986771302272472" fill="#ff4206" stroke="none" /><path d="M 120.99824983174949 100.27111621757518 l 6.3933815563839405 0.08254732841881558 a27.393914433814345,27.393914433814345 0 0,0 -0.010146102346594165,0.4714495077026035 l -6.391013391352338 -0.19258665191153396" fill="#ff4506" stroke="none" /><path d="M 120.9764740272857 100.99374915477107 l 4.9295241359650745 0.23353354987910385 a25.935052798702497,25.935052798702497 0 0,0 -0.024963907475541593,0.4457473377802794 l -4.924773877602004 -0.31835260399480664" fill="#ff3004" stroke="none" /><path d="M 120.95626037817324 101.35467743843564 l 4.488180928239317 0.2901298864102458 a25.49754859847001,25.49754859847001 0 0,0 -0.03208252283785102,0.43774053443940786 l -4.482521846737129 -0.3673435573464239" fill="#ff2a04" stroke="none" /><path d="M 120.89721153311464 102.0752229133903 l 4.804750012309937 0.4771415221048767 a25.828383447170378,25.828383447170378 0 0,0 -0.04774278101749914,0.44203885765157164 l -4.795824929791386 -0.5597767016412397" fill="#ff2f04" stroke="none" /><path d="M 120.8583938346157 102.4346265915055 l 12.725557000962619 1.4853482828982887 a33.811949910386694,33.811949910386694 0 0,0 -0.07245174835183667,0.5775117202752198 l -12.698103743363934 -1.7041777574609036" fill="#ff9d0e" stroke="none" /><path d="M 120.76222939487914 103.15116336523771 l 4.6779158782516905 0.7099852747434828 a25.731487721039954,25.731487721039954 0 0,0 -0.070232558754479,0.4373382104063533 l -4.665001565135923 -0.790402714843041" fill="#ff2d04" stroke="none" /><path d="M 120.5718875245553 104.21870165774334 l 6.265730380105709 1.2849208469554936 a27.396123730754468,27.396123730754468 0 0,0 -0.09871209701483968,0.4611500543041167 l -6.242684244366426 -1.3925847206757793" fill="#ff4506" stroke="none" /><path d="M 120.49622156327973 104.57218783832717 l 6.333519104833151 1.4128476770963014 a27.48919122926447,27.48919122926447 0 0,0 -0.10699766352889946,0.46094313409347387 l -6.308260875373699 -1.5216594685383402" fill="#ff4606" stroke="none" /><path d="M 120.41448212921028 104.9243191809786 l 6.622016110715642 1.5973425504675196 a27.811945433876552,27.811945433876552 0 0,0 -0.11626543507321456,0.464422618850439 l -6.593539361347367 -1.7110930087153546" fill="#ff4b07" stroke="none" /><path d="M 120.23288151984713 105.62410040840565 l 11.887311698697635 3.304296252311365 a33.33801252815998,33.33801252815998 0 0,0 -0.15844662485208716,0.5515734873544655 l -11.82867243695945 -3.5084272151704123" fill="#ff970d" stroke="none" /><path d="M 119.67450827220406 107.3425965602758 l 11.425511083376838 4.264041429625905 a33.195259440861975,33.195259440861975 0 0,0 -0.20439699695624303,0.5336160609568854 l -11.35041980682709 -4.460081057415935" fill="#ff950d" stroke="none" /><path d="M 119.54520255179757 107.68017299344265 l 58.635607655392704 23.040518980327946 a84.0,84.0 0 0,0 -0.5403895429704302,1.341202528628746 l -58.230315498164885 -24.046420876799505" fill="#4dd2ff" stroke="none" /><path d="M 119.12269723197855 108.67885076344098 l 6.468871377544136 2.935902221979156 a28.103929810761922,28.103929810761922 0 0,0 -0.20372054684522475,0.43879593407395645 l -6.417376213859081 -3.0468182233319427" fill="#ff4f07" stroke="none" /><line stroke="#e1ed5e" stroke-width="0.3" x1="174.80103733775053" x2="179.2010983576182" y1="140.37084112569926" y2="142.7455964860345" /><path d="M 175.68104954172406 140.8457921977663 a86.0,86.0 0 0,1 -30.038265399797805,32.042727171017184" fill="none" id="id65" stroke="none" /><text fill="#e1ed5e" style="font-size:6.75px; font-family:Arial;" text-anchor="middle"><textPath startOffset="22.206326154141568" xlink:href="#id65">May</textPath></text><path d="M 118.48025628344425 109.97397251340804 l 6.241008829916053 3.3683326448932913 a28.091957136203234,28.091957136203234 0 0,0 -0.233328572820517,0.42355913453462435 l -6.182103847644027 -3.475262297825721" fill="#ff4f07" stroke="none" /><path d="M 118.30583269289576 110.29060199501025 l 6.22678050359141 3.500377226632043 a28.143209094561794,28.143209094561794 0 0,0 -0.24102380845348267,0.4202453259959217 l -6.165604698985548 -3.6070423984862803" fill="#ff5007" stroke="none" /><path d="M 118.12598468904814 110.60418214915192 l 5.797103167995502 3.391459221963968 a27.716278790716473,27.716278790716473 0 0,0 -0.24445642316763347,0.40972302633614305 l -5.737865869129641 -3.4907443421862148" fill="#ff4a06" stroke="none" /><path d="M 117.75023020441432 111.22182372390056 l 6.003112772466353 3.7952112480524347 a28.102182155949844,28.102182155949844 0 0,0 -0.262012885458439,0.40664981677456824 l -5.936895023630863 -3.8979826647484557" fill="#ff4f07" stroke="none" /><path d="M 117.55443506779139 111.5257021239791 l 5.537946518798916 3.6360453473843384 a27.624928483637564,27.624928483637564 0 0,0 -0.26440594468866996,0.39525101223988773 l -5.474537468699525 -3.730833273830033" fill="#ff4806" stroke="none" /><path d="M 116.93607887273984 112.41649034213515 l 5.713936168670545 4.1891062144302005 a28.08503192762172,28.08503192762172 0 0,0 -0.2891938918503247,0.38742247752389 l -5.640981010125128 -4.286841571463405" fill="#ff4f07" stroke="none" /><path d="M 116.71984013943494 112.70617746262583 l 3.5093179841929287 2.6668925484981734 a25.40767836614867,25.40767836614867 0 0,0 -0.26761929737657386,0.3459340173035496 l -3.462891869598286 -2.726904559914976" fill="#ff2904" stroke="none" /><path d="M 116.498646956653 112.99209946851258 l 5.033613890970401 3.9637924570052663 a27.406943065579874,27.406943065579874 0 0,0 -0.2950580434504781,0.36813027645265073 l -4.96463793546507 -4.0498505670361675" fill="#ff4506" stroke="none" /><path d="M 115.80600337817218 113.82643327865902 l 5.356463400867216 4.685611033333465 a28.116646044347455,28.116646044347455 0 0,0 -0.3217898597299508,0.36153431867748115 l -5.275014691488927 -4.777119521751812" fill="#ff4f07" stroke="none" /><path d="M 115.07121518719521 114.62390073753431 l 12.853344620199556 12.4718566841789 a38.90965318135197,38.90965318135197 0 0,0 -0.47054624767819225,0.4766608646103937 l -12.636757747465827 -12.691258042769958" fill="#ffdf14" stroke="none" /><path d="M 114.81725581225074 114.88116024355365 l 11.099617168630653 11.147488024869427 a36.73111536270609,36.73111536270609 0 0,0 -0.45188025729739595,0.4422599399523509 l -10.906086958957463 -11.33689806774435" fill="#ffc312" stroke="none" /><path d="M 114.55890576462653 115.13401014063108 l 7.45639048860318 7.75093204746218 a31.755217651117444,31.755217651117444 0 0,0 -0.3971884641937648,0.3755664841491481 l -7.321866190018608 -7.87813316835725" fill="#ff810b" stroke="none" /><path d="M 113.75828350139079 115.86535959552629 l 1.0596790606598525 1.2219685218376675 a22.617444521448288,22.617444521448288 0 0,0 -0.2963257056882737,0.25253519503644084 l -1.0384878783945315 -1.2400281070970551" fill="#ff0000" stroke="none" /><path d="M 112.34349029814194 116.9893568818739 l 4.251787680185707 5.8520836926896775 a28.23357325418243,28.23357325418243 0 0,0 -0.3956366212325013,0.28227622444558004 l -4.150423731104321 -5.924404178979477" fill="#ff5107" stroke="none" /><path d="M 111.1453310114006 117.79835938074945 l 2.8525641677302183 4.555357051484346 a26.374793037645873,26.374793037645873 0 0,0 -0.3868564215750217,0.23763881084462826 l -2.7737285462228876 -4.603784329157352" fill="#ff3705" stroke="none" /><line stroke="#e1ed5e" stroke-width="0.3" x1="143.8653032363475" x2="146.44561519142675" y1="172.8068346515853" y2="177.08958963109032" /><path d="M 144.38136562736335 173.6633856474863 a86.0,86.0 0 0,1 -40.68145358897372,12.25698825130547" fill="none" id="id66" stroke="none" /><text fill="#e1ed5e" style="font-size:6.75px; font-family:Arial;" text-anchor="middle"><textPath startOffset="21.466115282336833" xlink:href="#id66">June</textPath></text><path d="M 110.5260780823613 118.17145234162733 l 3.548843324968706 6.126463896903254 a28.080102317426913,28.080102317426913 0 0,0 -0.42033403754581167,0.23867663656302956 l -3.442860520501695 -6.186643699260912" fill="#ff4f07" stroke="none" /><path d="M 107.93186726928326 119.44442032107085 l 1.7231869518776712 4.224272828398201 a25.562220314700376,25.562220314700376 0 0,0 -0.4088481453943957,0.16268911471652361 l -1.6502177304414094 -4.253308787520793" fill="#ff2b04" stroke="none" /><path d="M 107.59598834532513 119.57807347666477 l 2.3555753985996652 6.071313716797733 a27.512264253411733,27.512264253411733 0 0,0 -0.44298646849481393,0.16749957753940364 l -2.2507187093445764 -6.110961544443767" fill="#ff4706" stroke="none" /><path d="M 105.88484417918355 120.15858648285463 l 3.5843390889582687 12.278185676390525 a33.790673563521025,33.790673563521025 0 0,0 -0.5597486734047923,0.1581905662825694 l -3.3724592474488704 -12.338065036011614" fill="#ff9d0e" stroke="none" /><path d="M 103.41894727170886 120.7198165907248 l 4.358280885348878 26.412451968045488 a47.769613953882626,47.769613953882626 0 0,0 -0.8124568054091913,0.1268890439868042 l -3.9029882163311695 -26.4835593193794" fill="#b5ff20" stroke="none" /><path d="M 102.34483914955558 120.86867818915974 l 0.6196506020571153 5.514787232420551 a26.549490525039076,26.549490525039076 0 0,0 -0.4545872080729741,0.047119822811717366 l -0.5246307973785386 -5.524636423688028" fill="#ff3905" stroke="none" /><line stroke="#e1ed5e" stroke-width="0.3" x1="102.19456741930631" x2="102.32365962044197" y1="184.97166512339345" y2="189.96999836594603" /><path d="M 102.22038585953345 185.97133177190398 a86.0,86.0 0 0,1 -42.740103519485714,-10.115201625700543" fill="none" id="id67" stroke="none" /><text fill="#e1ed5e" style="font-size:6.75px; font-family:Arial;" text-anchor="middle"><textPath startOffset="22.20632615414155" xlink:href="#id67">July</textPath></text><path d="M 99.09653310690486 120.98055641714683 l -1.1923271253671677 27.688548094729306 a48.714208261612384,48.714208261612384 0 0,0 -0.8374481152491554,-0.04328650188514419 l 1.6687633090298122 -27.663921786081957" fill="#aaff21" stroke="none" /><path d="M 98.73552117531835 120.96189622390904 l -0.29207498751182726 4.841872760790492 a25.85067414180905,25.85067414180905 0 0,0 -0.4439388454526437,-0.03061662196556431 l 0.375376593743401 -4.836127794308642" fill="#ff2f04" stroke="none" /><path d="M 98.37488393609728 120.93702456842531 l -0.26135744154975776 3.3671731492992163 a24.377301101414417,24.377301101414417 0 0,0 -0.41807730999046555,-0.0360734694835531 l 0.319279069281765 -3.3621754275369997" fill="#ff1a02" stroke="none" /><path d="M 98.01472825383883 120.90594882070398 l -0.3811320672136968 4.013519814859527 a25.03157574118714,25.03157574118714 0 0,0 -0.4285970805775753,-0.044425839829595415 l 0.4501617443968654 -4.006364606574171" fill="#ff2303" stroke="none" /><path d="M 97.65516085044442 120.86867818915974 l -0.46588839462370835 4.146329176271697 a25.172421075855958,25.172421075855958 0 0,0 -0.4301757914060927,-0.05208829755020059 l 0.5371916090811903 -4.137695349996148" fill="#ff2503" stroke="none" /><path d="M 97.2962882734958 120.8252237178851 l -4.163182958408654 32.06673834249556 a53.33585935569456,53.33585935569456 0 0,0 -0.90943077617879,-0.12603881882626936 l 4.714542325774275 -31.99032495817669" fill="#77ff27" stroke="none" /><path d="M 93.08242187328487 119.8279376855182 l -1.4021720444044958 4.019062656258008 a25.25663612222576,25.25663612222576 0 0,0 -0.4092542493660047,-0.14674401325389477 l 1.4711458544002272 -3.9943311019641556" fill="#ff2703" stroke="none" /><path d="M 90.7491055286396 118.85261126421891 l -1.9217747102635885 3.9164290179907852 a25.362526136307835,25.362526136307835 0 0,0 -0.3902762482019872,-0.19569261285048642 l 1.9889048661483362 -3.882768564230997" fill="#ff2803" stroke="none" /><path d="M 90.10565033884886 118.52300852407294 l -2.030121707617816 3.800549099528726 a25.308777971266295,25.308777971266295 0 0,0 -0.38249660893149473,-0.20856764859353052 l 2.0952411284179515 -3.7650407991754298" fill="#ff2703" stroke="none" /><line stroke="#e1ed5e" stroke-width="0.3" x1="58.666819895761336" x2="56.23545636021788" y1="174.27360380694188" y2="178.64263932499728" /><path d="M 58.180547188652646 175.14741091055294 a86.0,86.0 0 0,1 -31.652253787137756,-30.449443065178592" fill="none" id="id68" stroke="none" /><text fill="#e1ed5e" style="font-size:6.75px; font-family:Arial;" text-anchor="middle"><textPath startOffset="22.20632615414155" xlink:href="#id68">August</textPath></text><path d="M 88.8546689885994 117.79835938074946 l -2.310400315576327 3.68955709686516 a25.353249497702063,25.353249497702063 0 0,0 -0.3678855475806912,-0.2348019623682469 l 2.3735676652039417 -3.649240705673109" fill="#ff2803" stroke="none" /><path d="M 88.24862548938628 117.40417183066458 l -3.6922213735329237 5.46830119011018 a27.598091889094434,27.598091889094434 0 0,0 -0.39142388889102997,-0.2692249199728234 l 3.785802147046844 -5.4039354807722555" fill="#ff4806" stroke="none" /><path d="M 87.95078237400918 117.19931262002967 l -3.536346655357024 5.047857341964167 a27.16332794938549,27.16332794938549 0 0,0 -0.38063929048488965,-0.27157602716098955 l 3.6227132736908008 -4.986237052958958" fill="#ff4206" stroke="none" /><path d="M 86.24171649860922 115.8653595955263 l -2.7596737458391485 3.182316772266339 a25.2122368431181,25.2122368431181 0 0,0 -0.3254271236503539,-0.2871515998585683 l 2.8140432223960903 -3.134342030635482" fill="#ff2603" stroke="none" /><path d="M 84.9287848128048 114.62390073753433 l -2.0481413861816207 1.9873524434448817 a23.8538487823037,23.8538487823037 0 0,0 -0.2833989997896098,-0.2971427182651354 l 2.0820469373501878 -1.9518026085972462" fill="#ff1202" stroke="none" /><path d="M 84.67929136418377 114.36230785411682 l -2.0093153984020664 1.8836208568318877 a23.754156114411046,23.754156114411046 0 0,0 -0.27707932691691445,-0.30071488553662645 l 2.04144113331471 -1.8487547164939173" fill="#ff1101" stroke="none" /><path d="M 84.19399662182784 113.82643327865904 l -23.313652161797474 20.393811666655115 a51.97473053016414,51.97473053016414 0 0,0 -0.5832492648796909,-0.6784506620583984 l 23.661243936247942 -19.989483905435186" fill="#86ff25" stroke="none" /><path d="M 83.95833913139862 113.55231037782056 l -3.4271677241057397 2.895338649431214 a25.486475733138683,25.486475733138683 0 0,0 -0.2802347235903827,-0.3375607771912298 l 3.4764984475896585 -2.835916615126223" fill="#ff2a04" stroke="none" /><path d="M 83.72743513129214 113.27417163493432 l -3.214086103593627 2.621856537846878 a25.147828490471138,25.147828490471138 0 0,0 -0.2707368367815224,-0.33778583157664566 l 3.25874085243001 -2.5661428726919726" fill="#ff2503" stroke="none" /><path d="M 83.28015986056508 112.70617746262583 l -3.5541161971238537 2.7009367761200855 a25.4639446021715,25.4639446021715 0 0,0 -0.26220433932000436,-0.3512655613398839 l 3.600081803138943 -2.6393583352708934" fill="#ff2904" stroke="none" /><path d="M 83.06392112726016 112.41649034213515 l -2.21264589657691 1.622175747518095 a23.74358452019881,23.74358452019881 0 0,0 -0.23881546914779547,-0.33169379925509007 l 2.240241158100313 -1.5838483428118668" fill="#ff1101" stroke="none" /><path d="M 82.6465618267979 111.8261652097733 l -21.3066105849948 14.52020598589875 a46.78387163506564,46.78387163506564 0 0,0 -0.4477815674052956,-0.6693726874700281 l 21.553395257810823 -14.151296384222901" fill="#c0ff1e" stroke="none" /><path d="M 82.44556493220864 111.52570212397912 l -3.4924539006757356 2.293037809845165 a25.177948856283987,25.177948856283987 0 0,0 -0.2347485683905657,-0.36433499122415136 l 3.531407332443347 -2.2325812186995653" fill="#ff2503" stroke="none" /><path d="M 82.24976979558568 111.22182372390057 l -3.6345917877514142 2.2978151765231583 a25.300024656795607,25.300024656795607 0 0,0 -0.2295499673520072,-0.37010763767223254 l 3.6736063947713777 -2.234911207485662" fill="#ff2703" stroke="none" /><line stroke="#e1ed5e" stroke-width="0.3" x1="26.63291911575756" x2="22.317208475507996" y1="142.92168965132927" y2="145.44649492493687" /><path d="M 25.769776987707644 143.4266507060508 a86.0,86.0 0 0,1 -11.730757126820373,-40.83630448921669" fill="none" id="id69" stroke="none" /><text fill="#e1ed5e" style="font-size:6.75px; font-family:Arial;" text-anchor="middle"><textPath startOffset="21.46611528233685" xlink:href="#id69">September</textPath></text><path d="M 81.87401531095188 110.60418214915194 l -3.6251724026420593 2.1208220761061405 a25.19997157459152,25.19997157459152 0 0,0 -0.21581736117652953,-0.37629576051079483 l 3.6611417599709664 -2.0581064697370386" fill="#ff2603" stroke="none" /><path d="M 81.69416730710424 110.29060199501025 l -3.809271928703912 2.141377667254103 a25.369902852538743,25.369902852538743 0 0,0 -0.21071950225742953,-0.38251710421414026 l 3.845567840412858 -2.07549004464214" fill="#ff2803" stroke="none" /><path d="M 81.18737489456691 109.33194174019688 l -3.86285854384047 1.9161584669717557 a25.311999466635967,25.311999466635967 0 0,0 -0.19025793735135516,-0.39198770348337325 l 3.8952697378065446 -1.8493818075230979" fill="#ff2703" stroke="none" /><path d="M 81.02952815118164 109.00673069616217 l -4.504328526836894 2.138548494289969 a25.986217518330555,25.986217518330555 0 0,0 -0.1883696151719751,-0.4057313929327613 l 4.540472758848696 -2.060697034078381" fill="#ff3104" stroke="none" /><path d="M 80.87730276802145 108.67885076344099 l -4.005437539373268 1.8178708905337915 a25.398657119675356,25.398657119675356 0 0,0 -0.17725712555913217,-0.3996680236213503 l 4.03613574966368 -1.7486545304197454" fill="#ff2903" stroke="none" /><path d="M 80.20201598880116 107.00284435728193 l -20.286549849574723 7.175657433729309 a42.51822865399276,42.51822865399276 0 0,0 -0.23812064484580486,-0.6920900557250261 l 20.407061325363756 -6.825394674914985" fill="#f2ff19" stroke="none" /><path d="M 79.97269907076064 106.31721596034903 l -3.0560202120306803 0.9639611311978556 a24.204447003587404,24.204447003587404 0 0,0 -0.12191345139398865,-0.39842021302064634 l 3.0721604359307992 -0.9112139456251616" fill="#ff1702" stroke="none" /><path d="M 79.86692584326677 105.97154293290107 l -4.110318588259926 1.219135424953808 a25.287308022684208,25.287308022684208 0 0,0 -0.12018378733299888,-0.4183755303378231 l 4.130695012479029 -1.1482024191113889" fill="#ff2703" stroke="none" /><path d="M 79.76711848015287 105.62410040840567 l -4.271951539996959 1.1874672610136292 a25.433920213091525,25.433920213091525 0 0,0 -0.11361928482666336,-0.42281962625143715 l 4.291758901165397 -1.113756701586653" fill="#ff2904" stroke="none" /><path d="M 79.67330655649465 105.27499134158121 l -1.6178853375805975 0.4198583095243009 a22.671476582436885,22.671476582436885 0 0,0 -0.09477614915059487,-0.3785836036768846 l 1.6248728010262508 -0.39194686645002447" fill="#ff0100" stroke="none" /><line stroke="#e1ed5e" stroke-width="0.3" x1="15.007084014347285" x2="10.007500721073583" y1="101.09737516637583" y2="101.16192664675087" /><path d="M 14.007167355692545 101.11028546245083 a86.0,86.0 0 0,1 10.666146001902534,-42.60595125391555" fill="none" id="id70" stroke="none" /><text fill="#e1ed5e" style="font-size:6.75px; font-family:Arial;" text-anchor="middle"><textPath startOffset="22.20632615414155" xlink:href="#id70">October</textPath></text><path d="M 79.00019446554 99.90962569577889 l -3.7796409142155234 -0.01626598004764288 a24.779675915011612,24.779675915011612 0 0,0 0.00550697957717498,-0.42652163715661406 l 3.778800927520633 0.08132387526472892" fill="#ff2003" stroke="none" /><path d="M 79.12142395522702 97.74499172005258 l -5.770003273793529 -0.6231940880367459 a26.803559998048783,26.803559998048783 0 0,0 0.053491797036445216,-0.4582850501183177 l 5.758421123753495 0.7224228764799253" fill="#ff3d05" stroke="none" /><path d="M 80.2630227832202 92.82701384747504 l -6.68504847942354 -2.429539216932159 a28.112842890072457,28.112842890072457 0 0,0 0.16920639740380006,-0.45338902091412964 l 6.642237493518112 2.54425137487563" fill="#ff4f07" stroke="none" /><path d="M 80.803312248108 91.48605970444005 l -5.691681694398764 -2.5243228807879365 a27.22635097925129,27.22635097925129 0 0,0 0.1936930358972726,-0.4267769296147931 l 5.64738634153814 2.6219218192448004" fill="#ff4306" stroke="none" /><path d="M 80.95270993114464 91.15688171328213 l -3.6748683795691077 -1.7061374952117674 a25.051612365432355,25.051612365432355 0 0,0 0.184954629919664,-0.38956161992216015 l 3.6449555558076923 1.7691415307744596" fill="#ff2403" stroke="none" /><path d="M 81.43458229118936 90.18545643968196 l -6.085720216649992 -3.217194845762828 a27.88377318270622,27.88377318270622 0 0,0 0.22797228660475394,-0.42239802408870813 l 6.029439830826767 3.321473853184009" fill="#ff4c07" stroke="none" /><line stroke="#e1ed5e" stroke-width="0.3" x1="26.266209847984243" x2="21.928928074336255" y1="57.711370442889674" y2="55.22380399835377" /><path d="M 25.398753493254645 57.213857153982495 a86.0,86.0 0 0,1 29.58750427330803,-30.492523968695096" fill="none" id="id71" stroke="none" /><text fill="#e1ed5e" style="font-size:6.75px; font-family:Arial;" text-anchor="middle"><textPath startOffset="21.46611528233685" xlink:href="#id71">November</textPath></text><path d="M 81.78341655067845 89.55222093294921 l -5.512559741804675 -3.161625034492338 a27.354855448056572,27.354855448056572 0 0,0 0.23777924849073576,-0.4064418129465217 l 5.457320818843614 3.2560462597927513" fill="#ff4406" stroke="none" /><path d="M 81.96595687620814 89.24020034530311 l -3.524127616834457 -2.1026292803247046 a25.10372091524437,25.10372091524437 0 0,0 0.22459964591458514,-0.36918276338300277 l 3.487412172633655 2.1629798169147816" fill="#ff2403" stroke="none" /><path d="M 83.84228863543731 86.58626213691792 l -5.033569490099874 -4.178746614071283 a27.542074982471274,27.542074982471274 0 0,0 0.30596541790249276,-0.36216654833586986 l 4.960893458710257 4.264772112036269" fill="#ff4706" stroke="none" /><path d="M 84.07557802195018 86.31012108654704 l -4.201268526498849 -3.6117390942006264 a26.540335415507528,26.540335415507528 0 0,0 0.300800751060186,-0.34386725712931887 l 4.138475911860819 3.6835219075328887" fill="#ff3905" stroke="none" /><path d="M 86.10567301691215 84.25364557470407 l -3.5098170096252854 -3.9776538056692328 a26.304766275606298,26.304766275606298 0 0,0 0.3420949902388236,-0.29666140447509437 l 3.440828220739688 4.037480203564008" fill="#ff3605" stroke="none" /><line stroke="#e1ed5e" stroke-width="0.3" x1="56.762969772571076" x2="54.21961505331055" y1="26.818313649435495" y2="22.513508569990535" /><path d="M 56.25429882871897 25.957352633546506 a86.0,86.0 0 0,1 42.265352541879196,-11.944610805530505" fill="none" id="id72" stroke="none" /><text fill="#e1ed5e" style="font-size:6.75px; font-family:Arial;" text-anchor="middle"><textPath startOffset="22.20632615414155" xlink:href="#id72">December</textPath></text></svg>