<?xml version="1.0" encoding="utf-8" ?>
<svg baseProfile="full" height="200mm" version="1.1" viewBox="0,0,200,200" width="200mm" xmlns="http://www.w3.org/2000/svg" xmlns:ev="http://www.w3.org/2001/xml-events" xmlns:xlink="http://www.w3.org/1999/xlink"><defs /><rect fill="#1a1a1a" height="200" width="200" x="0" y="0" /><text alignment-baseline="middle" fill="#e1ed5e" style="dominant-baseline: central; font-size:9.0px; font-family:Arial;" text-anchor="middle" x="100.0" y="100.0">2023</text><line stroke="#e1ed5e" stroke-width="0.3" x1="100.0" x2="100.0" y1="15.0" y2="10.0" /><path d="M 100.0 14.0 a86.0,86.0 0 0,1 42.46469731375804,11.215312516191453" fill="none" id="id73" stroke="none" /><text fill="#e1ed5e" style="font-size:6.75px; font-family:Arial;" text-anchor="middle"><textPath startOffset="22.20632615414155" xlink:href="#id73">January</textPath></text><path d="M 105.01212808612495 79.60689891045804 l 0.9874199814999093 -4.017566022764906 a25.137128831344306,25.137128831344306 0 0,0 0.419300609219014,0.1068890614074388 l -1.0564294794039484 3.999973965188599" fill="#ff2703" stroke="none" /><line stroke="#e1ed5e" stroke-width="0.3" x1="143.23703022742887" x2="145.7803849466894" y1="26.81831364943548" y2="22.513508569990506" /><path d="M 143.74570117128098 25.957352633546492 a86.0,86.0 0 0,1 28.547481713284135,27.462654790039103" fill="none" id="id74" stroke="none" /><text fill="#e1ed5e" style="font-size:6.75px; font-family:Arial;" text-anchor="middle"><textPath startOffset="19.985693538727396" xlink:href="#id74">February</textPath></text><path d="M 113.6212207817346 84.01681056812373 l 4.338766543822529 -5.091124259845633 a27.689128594292566,27.689128594292566 0 0,0 0.3600987013889764,0.3122740453729928 l -4.425759043858269 5.015685221052969" fill="#ff4b07" stroke="none" /><path d="M 113.89432698308785 84.25364557470407 l 4.412925281955338 -5.001140798442259 a27.66973154107152,27.66973154107152 0 0,0 0.3544216076531863,0.3182032187741051 l -4.498357877204515 4.9244385708988565" fill="#ff4b07" stroke="none" /><path d="M 114.68862486808459 84.99185889309783 l 4.068154803473297 -4.156647874363669 a26.816150363984313,26.816150363984313 0 0,0 0.3271113190753716,0.3257065991156271 l -4.13910192271599 4.086005424597923" fill="#ff3f05" stroke="none" /><path d="M 115.19652480421416 85.50635884689758 l 4.317277246123518 -4.117590565601965 a26.96602337288668,26.96602337288668 0 0,0 0.3174705797278983,0.3386554794576861 l -4.387515147821879 4.042665669266224" fill="#ff4106" stroke="none" /><line stroke="#e1ed5e" stroke-width="0.3" x1="172.23445277983987" x2="176.4835382374775" y1="55.19839476539836" y2="52.563006222186495" /><path d="M 173.08426987136738 54.67131705675599 a86.0,86.0 0 0,1 12.851231095245387,41.99856678651699" fill="none" id="id75" stroke="none" /><text fill="#e1ed5e" style="font-size:6.75px; font-family:Arial;" text-anchor="middle"><textPath startOffset="22.20632615414155" xlink:href="#id75">March</textPath></text><path d="M 119.61058180528143 92.48833698450437 l 6.183550608146159 -2.36855534776371 a27.621657840671382,27.621657840671382 0 0,0 0.16625003852566517,0.44546744892989065 l -6.223405235173448 2.261764761804486" fill="#ff4a06" stroke="none" /><path d="M 120.73433829027371 96.67025291283417 l 62.20301487082114 -9.98924126149749 a84.0,84.0 0 0,0 0.21697642624280045,1.4296035504316715 l -62.36574719050324 8.917038598673738" fill="#4dd2ff" stroke="none" /><path d="M 120.78858239683441 97.02765380044208 l 5.634742108628618 -0.8056539869992088 a26.692046817931157,26.692046817931157 0 0,0 0.06111716211150867,0.45539384702933217 l -5.647775269797964 0.7085417979052122" fill="#ff3d05" stroke="none" /><path d="M 120.94382443527127 98.46500227214037 l 2.142060675255237 -0.15699416692573478 a23.147806114369644,23.147806114369644 0 0,0 0.02570443610149891,0.397636249437477 l -2.144445702361151 0.12009885323522251" fill="#ff0a01" stroke="none" /><line stroke="#e1ed5e" stroke-width="0.3" x1="184.98032266829074" x2="189.97916517819016" y1="98.17113171792111" y2="98.06355123074" /><path d="M 185.9800911702706 98.14961562048488 a86.0,86.0 0 0,1 -9.607161424134198,41.387399972396054" fill="none" id="id76" stroke="none" /><text fill="#e1ed5e" style="font-size:6.75px; font-family:Arial;" text-anchor="middle"><textPath startOffset="21.466115282336823" xlink:href="#id76">April</textPath></text><path d="M 120.99513854157772 99.54816195383933 l 2.2769552270876154 -0.04900253451365295 a23.277482459767885,23.277482459767885 0 0,0 0.005173135474154182,0.40066504346855447 l -2.2774613696794854 0.009801232984635736" fill="#ff0c01" stroke="none" /><path d="M 120.95626037817324 101.35467743843564 l 5.742552181133493 0.3712163209674267 a26.75453795799399,26.75453795799399 0 0,0 -0.03366414115218119,0.4593204597368418 l -5.735311481316974 -0.47000991720103874" fill="#ff3e05" stroke="none" /><path d="M 120.89721153311464 102.0752229133903 l 5.953514757105667 0.5912209970969042 a26.98279869546713,26.98279869546713 0 0,0 -0.049876673543735886,0.46179605223776854 l -5.94245578206088 -0.6936133712194641" fill="#ff4106" stroke="none" /><path d="M 120.13307415673323 105.97154293290107 l 5.697262751619472 1.6898288287452514 a26.942585660421667,26.942585660421667 0 0,0 -0.13570496392060896,0.44349167392921385 l -5.66733101519273 -1.7876474752265223" fill="#ff4106" stroke="none" /><path d="M 119.67450827220406 107.3425965602758 l 3.7509695250841917 1.3998751862832248 a25.003676175127282,25.003676175127282 0 0,0 -0.15395801717311927,0.4019358009170747 l -3.7263172283175656 -1.4642345540334434" fill="#ff2503" stroke="none" /><path d="M 119.41010516605496 108.01547362559984 l 39.51839247728375 16.319264111032684 a63.75537071660443,63.75537071660443 0 0,0 -0.42761340043592067,1.0107517636740533 l -39.231628095655516 -16.9970904003729" fill="#34ff59" stroke="none" /><path d="M 119.26925614724726 108.34839909993367 l 4.129388316489322 1.7890561753511625 a25.500285531710254,25.500285531710254 0 0,0 -0.17796638983667956,0.4012672273269096 l -4.09798084192137 -1.8598717391707598" fill="#ff2c04" stroke="none" /><path d="M 119.12269723197855 108.67885076344098 l 5.619430204477864 2.5503826959451366 a27.171097772582648,27.171097772582648 0 0,0 -0.19695860806256182,0.42423131950641496 l -5.574696979575472 -2.646734082730382" fill="#ff4406" stroke="none" /><path d="M 118.97047184881838 109.00673069616215 l 2.193718589202881 1.0415256253811007 a23.428410360079155,23.428410360079155 0 0,0 -0.1760999180015516,0.3628179901559666 l -2.1754654145866152 -1.0791325715023428" fill="#ff0e01" stroke="none" /><path d="M 118.81262510543309 109.33194174019688 l 3.678656088007387 1.8247854354781816 a25.10637948798782,25.10637948798782 0 0,0 -0.19537704441798567,0.3854974440616923 l -3.646700373803132 -1.8878370912425684" fill="#ff2703" stroke="none" /><path d="M 118.64920377521936 109.65438752849418 l 5.860628084950368 3.0339512278626524 a27.59938039539761,27.59938039539761 0 0,0 -0.22204029011188023,0.42001655082358025 l -5.807535286613595 -3.134382793772367" fill="#ff4a06" stroke="none" /><line stroke="#e1ed5e" stroke-width="0.3" x1="174.80103733775053" x2="179.2010983576182" y1="140.37084112569926" y2="142.7455964860345" /><path d="M 175.68104954172406 140.8457921977663 a86.0,86.0 0 0,1 -30.038265399797805,32.042727171017184" fill="none" id="id77" stroke="none" /><text fill="#e1ed5e" style="font-size:6.75px; font-family:Arial;" text-anchor="middle"><textPath startOffset="22.206326154141568" xlink:href="#id77">May</textPath></text><path d="M 118.30583269289576 110.29060199501025 l 5.211025441514843 2.9293717310828877 a26.977959927181054,26.977959927181054 0 0,0 -0.2310443924183147,0.4028453729711254 l -5.159829052944149 -3.0186369499123282" fill="#ff4106" stroke="none" /><path d="M 118.12598468904814 110.60418214915192 l 5.030563316736996 2.9430130632159495 a26.82819810695893,26.82819810695893 0 0,0 -0.2366235885697815,0.39659474500633884 l -4.979158852468987 -3.0291699021083924" fill="#ff3f05" stroke="none" /><path d="M 117.14729908036423 112.12312394758627 l 5.060046789132684 3.577448210224979 a27.19695160583443,27.19695160583443 0 0,0 -0.27354979833023957,0.3799367445392245 l -4.997717198426842 -3.6640185602153346" fill="#ff4406" stroke="none" /><path d="M 116.71984013943494 112.70617746262583 l 6.704004256890727 5.09468195197298 a29.420181546033803,29.420181546033803 0 0,0 -0.3098830282947364,0.4005655867235358 l -6.615314411377922 -5.2093255328097685" fill="#ff6309" stroke="none" /><path d="M 116.498646956653 112.99209946851258 l 12.873379177550065 10.137329637395833 a37.385644437317794,37.385644437317794 0 0,0 -0.4024868835030306,0.5021642723574984 l -12.696974381992181 -10.357421743331582" fill="#ffcd13" stroke="none" /><path d="M 115.80600337817218 113.82643327865902 l 4.115942061072243 3.600454645279385 a26.4684780974982,26.4684780974982 0 0,0 -0.3029268797147847,0.3403415606653639 l -4.05335633170912 -3.6707703756856156" fill="#ff3a05" stroke="none" /><path d="M 115.32070863581623 114.36230785411682 l 4.430945932608654 4.153764103332666 a27.073470019999785,27.073470019999785 0 0,0 -0.3216501619727601,0.3372489088880377 l -4.358789219256929 -4.22942012880321" fill="#ff4306" stroke="none" /><path d="M 114.81725581225074 114.88116024355365 l 4.243074226371552 4.26137392024524 a27.013566876542143,27.013566876542143 0 0,0 -0.33233125185973,0.32525607640132853 l -4.169093022136027 -4.3337800995691405" fill="#ff4206" stroke="none" /><path d="M 114.0293411484842 115.62618273729858 l 4.389012532460905 4.888576815022977 a27.569749940939843,27.569749940939843 0 0,0 -0.35585674047356647,0.31400219871417223 l -4.304213439080751 -4.963402155509438" fill="#ff4a06" stroke="none" /><path d="M 113.75828350139079 115.86535959552629 l 2.653257243626147 3.0596026215994487 a25.049807674810353,25.049807674810353 0 0,0 -0.32819366173550335,0.2796937585404316 l -2.600198105313596 -3.1048207703628274" fill="#ff2603" stroke="none" /><path d="M 112.04921762599082 117.19931262002967 l 2.724641096855363 3.8892113543631357 a25.748645497989962,25.748645497989962 0 0,0 -0.3651931805648715,0.251183199601726 l -2.657291031667608 -3.935535343329956" fill="#ff3004" stroke="none" /><path d="M 111.7513745106137 117.40417183066458 l 6.638071364827019 9.831201835437898 a32.862399461055674,32.862399461055674 0 0,0 -0.4715367817966782,0.3125088668600195 l -6.467859884290377 -9.944008723389237" fill="#ff920d" stroke="none" /><line stroke="#e1ed5e" stroke-width="0.3" x1="143.8653032363475" x2="146.44561519142675" y1="172.8068346515853" y2="177.08958963109032" /><path d="M 144.38136562736335 173.6633856474863 a86.0,86.0 0 0,1 -40.68145358897372,12.25698825130547" fill="none" id="id78" stroke="none" /><text fill="#e1ed5e" style="font-size:6.75px; font-family:Arial;" text-anchor="middle"><textPath startOffset="21.466115282336833" xlink:href="#id78">June</textPath></text><path d="M 106.57524785965236 119.94407469862006 l 1.25537785733472 3.8078183965221633 a25.00942071945299,25.00942071945299 0 0,0 -0.41000998692133533,0.1312722501235741 l -1.1896465253224442 -3.8288634933054437" fill="#ff2503" stroke="none" /><path d="M 105.53697534728816 120.25689768951611 l 1.6711398306853977 6.11382685524311 a27.338105959164384,27.338105959164384 0 0,0 -0.45499663372190036,0.12016874636600546 l -1.565652754152 -6.1416869509127" fill="#ff4606" stroke="none" /><path d="M 105.18746579009965 120.34920634021253 l 1.1207807510061585 4.396558876183845 a25.5371664553526,25.5371664553526 0 0,0 -0.4268923048151136,0.10491974228538031 l -1.044935161447834 -4.415199876783255" fill="#ff2d04" stroke="none" /><path d="M 104.13013068566511 120.58985236759428 l 0.7836416845310552 3.906672166473822 a24.984492653530175,24.984492653530175 0 0,0 -0.42239542978564504,0.08095308942801471 l -0.7162786401737058 -3.919582454250305" fill="#ff2503" stroke="none" /><path d="M 103.7750983002368 120.6578951692458 l 4.906394333592381 26.848514062792756 a48.29313856515384,48.29313856515384 0 0,0 -0.819030998610588,0.14239903750649247 l -4.443514363509743 -26.928991678820253" fill="#aeff20" stroke="none" /><path d="M 103.41894727170886 120.7198165907248 l 0.6610952379832299 4.0064297549601156 a25.060606641268503,25.060606641268503 0 0,0 -0.42622618707025356,0.06656776463611046 l -0.5920331873044592 -4.017215826943332" fill="#ff2603" stroke="none" /><path d="M 103.06178313531738 120.77559828337769 l 0.5825227818750905 3.952683378373249 a24.99537716380715,24.99537716380715 0 0,0 -0.4261966626124263,0.05906697392524804 l -0.5143975280758338 -3.9621249177910998" fill="#ff2503" stroke="none" /><line stroke="#e1ed5e" stroke-width="0.3" x1="102.19456741930631" x2="102.32365962044197" y1="184.97166512339345" y2="189.96999836594603" /><path d="M 102.22038585953345 185.97133177190398 a86.0,86.0 0 0,1 -42.740103519485714,-10.115201625700543" fill="none" id="id79" stroke="none" /><text fill="#e1ed5e" style="font-size:6.75px; font-family:Arial;" text-anchor="middle"><textPath startOffset="22.20632615414155" xlink:href="#id79">July</textPath></text><path d="M 100.18074693466247 120.99922214144158 l 0.050816564319384215 5.903880608544666 a26.904099301600453,26.904099301600453 0 0,0 -0.46312699796367524,0.0 l 0.05081656431938015 -5.903880608544666" fill="#ff4006" stroke="none" /><path d="M 99.09653310690486 120.98055641714683 l -0.2504799108346515 5.816713308248394 a26.82210390632851,26.82210390632851 0 0,0 -0.46109997811608383,-0.023833601996970925 l 0.35056795736422425 -5.811539899489221" fill="#ff3f05" stroke="none" /><path d="M 98.73552117531835 120.96189622390904 l -0.3689437694139093 6.116164902057004 a27.127282645197894,27.127282645197894 0 0,0 -0.4658623009873244,-0.032128591817177074 l 0.4741688311801637 -6.1089079657235414" fill="#ff4306" stroke="none" /><path d="M 98.01472825383883 120.90594882070398 l -0.5883668071432598 6.195809909511189 a27.22368346998343,27.22368346998343 0 0,0 -0.46613091314919874,-0.04831637504222617 l 0.6949303168980518 -6.184764166013202" fill="#ff4506" stroke="none" /><path d="M 97.65516085044442 120.86867818915974 l -0.5540534022948619 4.930983071607255 a25.962012618391032,25.962012618391032 0 0,0 -0.44366925576830174,-0.05372216816942907 l 0.638850081114553 -4.920715374712477" fill="#ff3304" stroke="none" /><path d="M 96.93821686468263 120.77559828337769 l -0.5646932265218784 3.8317016944268025 a24.87308873060674,24.87308873060674 0 0,0 -0.42303691694551815,-0.06606966623327963 l 0.6305660070759136 -3.8214137208464174" fill="#ff2303" stroke="none" /><path d="M 96.22490169976321 120.6578951692458 l -0.7265916844584088 3.9760169549614197 a25.04186173712867,25.04186173712867 0 0,0 -0.4233653289570756,-0.08113897291259674 l 0.7949246279871794 -3.962920783700355" fill="#ff2603" stroke="none" /><path d="M 95.16358092515715 120.4354850818985 l -1.3341824416452253 5.637366191981166 a26.793094196548736,26.793094196548736 0 0,0 -0.44788703377448486,-0.11007973586437579 l 1.4310227601629206 -5.61356519780276" fill="#ff3f05" stroke="none" /><path d="M 94.46302465271185 120.25689768951611 l -1.0694807454863429 3.91267085067208 a25.056202935093978,25.056202935093978 0 0,0 -0.4150605736554708,-0.11730026404304626 l 1.1366724872464276 -3.893681793290513" fill="#ff2603" stroke="none" /><path d="M 94.11515582081647 120.15858648285463 l -1.1143591518871387 3.8172472630182823 a24.976578049833197,24.976578049833197 0 0,0 -0.4116675578997005,-0.12403205823470911 l 1.179901684227085 -3.797499835677848" fill="#ff2503" stroke="none" /><path d="M 93.42475214034765 119.94407469862007 l -1.8547354263494507 5.6257927729657 a26.923646497395737,26.923646497395737 0 0,0 -0.4388942426551051,-0.1488967564770644 l 1.9512994019417818 -5.593033029590512" fill="#ff4106" stroke="none" /><path d="M 92.7421414339146 119.70592522655815 l -1.999106214177475 5.4278045263393375 a26.784244776261875,26.784244776261875 0 0,0 -0.43126432253809394,-0.1630672649627309 l 2.0922407574758517 -5.3925890112699735" fill="#ff3f05" stroke="none" /><path d="M 91.40352486487194 119.15986991738527 l -1.6550522197084807 3.6887892697454867 a25.043063705477742,25.043063705477742 0 0,0 -0.3917832338707047,-0.1798484669158814 l 1.718303449346605 -3.659753732495531" fill="#ff2603" stroke="none" /><path d="M 90.42595943632237 118.69057910512821 l -4.40422448032584 8.597990106556649 a30.660363717042305,30.660363717042305 0 0,0 -0.4676568300197715,-0.2446559506395763 l 4.551572212872107 -8.520904736972355" fill="#ff740a" stroke="none" /><line stroke="#e1ed5e" stroke-width="0.3" x1="58.666819895761336" x2="56.23545636021788" y1="174.27360380694188" y2="178.64263932499728" /><path d="M 58.180547188652646 175.14741091055294 a86.0,86.0 0 0,1 -31.652253787137756,-30.449443065178592" fill="none" id="id80" stroke="none" /><text fill="#e1ed5e" style="font-size:6.75px; font-family:Arial;" text-anchor="middle"><textPath startOffset="22.20632615414155" xlink:href="#id80">August</textPath></text><path d="M 89.7882731507175 118.34994917583269 l -2.7008642185156475 4.853314417048817 a26.55421716874593,26.55421716874593 0 0,0 -0.3974929004970158,-0.22570684282966422 l 2.7840058859338703 -4.8061044084245195" fill="#ff3b05" stroke="none" /><path d="M 88.8546689885994 117.79835938074946 l -2.171202153388528 3.4672668021019044 a25.09097272880631,25.09097272880631 0 0,0 -0.36407980927674505,-0.23237296012039274 l 2.2305637647121968 -3.4293794131577076" fill="#ff2603" stroke="none" /><path d="M 88.24862548938628 117.40417183066458 l -2.220637310169739 3.288836832225215 a24.968334382624413,24.968334382624413 0 0,0 -0.3541260237284885,-0.24357110821393535 l 2.2769202185211177 -3.2501249346461782" fill="#ff2503" stroke="none" /><path d="M 87.65650970185807 116.9893568818739 l -0.8521135930784021 1.1728337437008436 a22.449702233519808,22.449702233519808 0 0,0 -0.3106771846994658,-0.2298315539981618 l 0.8721757481964322 -1.157992240962915" fill="#ff0000" stroke="none" /><path d="M 86.24171649860922 115.8653595955263 l -3.974417300412821 4.58309785863594 a27.0663645505075,27.0663645505075 0 0,0 -0.34935929002062416,-0.30826895413506095 l 4.052718943340033 -4.5140057627285906" fill="#ff4306" stroke="none" /><path d="M 85.70375840098266 115.38237550388516 l -4.004115673304321 4.308321905527439 a26.881715733257508,26.881715733257508 0 0,0 -0.3362315920580634,-0.3179279568087204 l 4.077683099753202 -4.238759311972788" fill="#ff4006" stroke="none" /><line stroke="#e1ed5e" stroke-width="0.3" x1="26.63291911575756" x2="22.317208475507996" y1="142.92168965132927" y2="145.44649492493687" /><path d="M 25.769776987707644 143.4266507060508 a86.0,86.0 0 0,1 -11.730757126820373,-40.83630448921669" fill="none" id="id81" stroke="none" /><text fill="#e1ed5e" style="font-size:6.75px; font-family:Arial;" text-anchor="middle"><textPath startOffset="21.46611528233685" xlink:href="#id81">September</textPath></text><path d="M 79.0235259727143 100.99374915477108 l -5.134855331144751 0.2432610046168539 a26.14061428120734,26.14061428120734 0 0,0 -0.017424421233159133,-0.4496468883525213 l 5.138281885229111 -0.15483686925033582" fill="#ff3505" stroke="none" /><line stroke="#e1ed5e" stroke-width="0.3" x1="15.007084014347285" x2="10.007500721073583" y1="101.09737516637583" y2="101.16192664675087" /><path d="M 14.007167355692545 101.11028546245083 a86.0,86.0 0 0,1 10.666146001902534,-42.60595125391555" fill="none" id="id82" stroke="none" /><text fill="#e1ed5e" style="font-size:6.75px; font-family:Arial;" text-anchor="middle"><textPath startOffset="22.20632615414155" xlink:href="#id82">October</textPath></text><path d="M 79.01574976396665 99.18683210126434 l -5.91679605964011 -0.22928379927547188 a26.921236920777865,26.921236920777865 0 0,0 0.021929772647886783,-0.4629028403839747 l 5.911972678758725 0.3310977462824557" fill="#ff4106" stroke="none" /><path d="M 79.05617556472873 98.46500227214037 l -2.160213900616653 -0.15832463833840427 a23.16600803034578,23.16600803034578 0 0,0 0.0325708735684588,-0.39744715653268714 l 2.157168543228697 0.1954857120788698" fill="#ff0b01" stroke="none" /><path d="M 79.08570108090925 98.10471618934814 l -3.9968962109572184 -0.3622044760280344 a25.013274399242956,25.013274399242956 0 0,0 0.04254981226857539,-0.42847080279105393 l 3.990069273006414 0.4309508095235186" fill="#ff2503" stroke="none" /><path d="M 79.12142395522702 97.74499172005258 l -6.1414302792017095 -0.6633103761780155 a27.17714711897337,27.17714711897337 0 0,0 0.054237363910747835,-0.46467261178732533 l 6.129102562287373 0.7689267262902025" fill="#ff4406" stroke="none" /><path d="M 79.16333360222342 97.38593545837743 l -5.881077493756684 -0.7378107346674369 a26.927177841752506,26.927177841752506 0 0,0 0.06165554498631917,-0.45940542479346924 l 5.86750594971253 0.8389345015255656" fill="#ff4106" stroke="none" /><path d="M 79.21141760316559 97.0276538004421 l -6.516971595238016 -0.9317949335824938 a27.583248481668388,27.583248481668388 0 0,0 0.07124898428237263,-0.4694417852598934 l 6.499966717516341 1.0438358312344793" fill="#ff4a06" stroke="none" /><path d="M 79.26566170972629 96.67025291283419 l -15.625439018840227 -2.5093040988472954 a36.82564221736314,36.82564221736314 0 0,0 0.10589676103946888,-0.6250086781268975 l 15.579930396280535 2.7778985652900205" fill="#ffc612" stroke="none" /><path d="M 79.54389044137918 95.25157060432595 l -5.4493760364104125 -1.2649510546089153 a26.59426495232039,26.59426495232039 0 0,0 0.10734863662524552,-0.4450294027337282 l 5.426794599524352 1.3585656890020403" fill="#ff3c05" stroke="none" /><path d="M 80.02781315780177 93.51064311812611 l -8.468911928986756 -2.7517162913896116 a29.90474097373041,29.90474097373041 0 0,0 0.16328373948105196,-0.48819759790169953 l 8.420290895733933 2.8970869922136333" fill="#ff6a09" stroke="none" /><path d="M 80.14247586403 93.16781622104843 l -1.6684997244698063 -0.5740643533731721 a22.764494605367094,22.764494605367094 0 0,0 0.13067569959993874,-0.36943779974798635 l 1.658370944060058 0.6026997795477694" fill="#ff0500" stroke="none" /><path d="M 80.2630227832202 92.82701384747504 l -11.947834029013377 -4.3421871090735396 a33.71240838216954,33.71240838216954 0 0,0 0.20290922524121421,-0.543695843526615 l 11.871320215270535 4.547206089629496" fill="#ff9d0e" stroke="none" /><line stroke="#e1ed5e" stroke-width="0.3" x1="26.266209847984243" x2="21.928928074336255" y1="57.711370442889674" y2="55.22380399835377" /><path d="M 25.398753493254645 57.213857153982495 a86.0,86.0 0 0,1 29.58750427330803,-30.492523968695096" fill="none" id="id83" stroke="none" /><text fill="#e1ed5e" style="font-size:6.75px; font-family:Arial;" text-anchor="middle"><textPath startOffset="21.46611528233685" xlink:href="#id83">November</textPath></text><path d="M 81.78341655067845 89.55222093294921 l -3.9154470982415943 -2.2456310945989624 a25.513710778523393,25.513710778523393 0 0,0 0.22177528909436375,-0.37908585857846255 l 3.876212134676906 2.3126963655313166" fill="#ff2d04" stroke="none" /><path d="M 82.7489923806493 88.02491185347247 l -3.3624881230062234 -2.3341298405946063 a25.09322470554844,25.09322470554844 0 0,0 0.24936377735588108,-0.352707378776077 l 3.321811725846464 2.3916637197024695" fill="#ff2603" stroke="none" /><path d="M 82.95767976084542 87.72973835380427 l -9.850425840088956 -7.0921858460708505 a33.13795655397975,33.13795655397975 0 0,0 0.3372771552611596,-0.46004566073653497 l 9.726886072314164 7.260693950478886" fill="#ff960d" stroke="none" /><path d="M 83.17141714833178 87.43820079747576 l -8.86096801376505 -6.614324088369236 a32.05739740114955,32.05739740114955 0 0,0 0.33389162406802536,-0.43936223893727877 l 8.745800449472915 6.765871103187542" fill="#ff870c" stroke="none" /><path d="M 83.6137871275137 86.86637796730984 l -10.077551972681922 -8.077202441708128 a33.915039800420324,33.915039800420324 0 0,0 0.36903036836596226,-0.4523875969747467 l 9.937023112239567 8.249474208290957" fill="#ffa00e" stroke="none" /><path d="M 83.84228863543731 86.58626213691792 l -5.144793655739163 -4.271082203454169 a27.686631808975044,27.686631808975044 0 0,0 0.30757130234874575,-0.3640674089982047 l 5.070511739903294 4.35900856208149" fill="#ff4b07" stroke="none" /><path d="M 84.5562425177563 85.77008943001954 l -2.6198679238625004 -2.4139518057432987 a24.562424912743417,24.562424912743417 0 0,0 0.2891730519084355,-0.30846964976794905 l 2.577927549983609 2.458690872389298" fill="#ff1f03" stroke="none" /><path d="M 85.83668400450813 84.49514656593479 l -3.434069578697977 -3.759341775403572 a26.091707420466477,26.091707420466477 0 0,0 0.3342086957602925,-0.3000558669021247 l 3.368849895341713 3.8178966510749754" fill="#ff3505" stroke="none" /><path d="M 86.37877921826538 84.01681056812374 l -7.956757756761722 -9.336488155335381 a33.26702918699168,33.26702918699168 0 0,0 0.4390336384255256,-0.3676780462498586 l 7.794866581377086 9.472067358979052" fill="#ff980e" stroke="none" /><path d="M 86.93701828274178 83.55741782278169 l -8.414502175476562 -10.591467284828674 a34.527121870771175,34.527121870771175 0 0,0 0.46852884272441775,-0.3656941934277645 l 8.230940777592718 10.73473986747966" fill="#ffa80f" stroke="none" /><path d="M 87.22198572758235 83.33499621200491 l -6.313147490885613 -8.233566233908622 a31.375328629486177,31.375328629486177 0 0,0 0.43141651518374463,-0.32493397503406013 l 6.170484821943478 8.341016798448535" fill="#ff7e0b" stroke="none" /><path d="M 88.39885842347998 82.49532879139004 l -7.2208828669993075 -10.895408834466053 a34.071001608487585,34.071001608487585 0 0,0 0.49164937866325376,-0.3197824319997674 l 7.032266462551767 11.018090190625355" fill="#ffa20f" stroke="none" /><path d="M 88.70189139769569 82.29822771554957 l -6.245242891854439 -9.78498892373386 a32.608146579702236,32.608146579702236 0 0,0 0.4757386470790162,-0.2979074971565339 l 6.075885092403181 9.891040762213324" fill="#ff8f0d" stroke="none" /><line stroke="#e1ed5e" stroke-width="0.3" x1="56.762969772571076" x2="54.21961505331055" y1="26.818313649435495" y2="22.513508569990535" /><path d="M 56.25429882871897 25.957352633546506 a86.0,86.0 0 0,1 42.265352541879196,-11.944610805530505" fill="none" id="id84" stroke="none" /><text fill="#e1ed5e" style="font-size:6.75px; font-family:Arial;" text-anchor="middle"><textPath startOffset="22.20632615414155" xlink:href="#id84">December</textPath></text><path d="M 89.3179101791058 81.91981866633112 l -5.601893814751355 -9.48159561292512 a32.01280480526148,32.01280480526148 0 0,0 0.47684333076360436,-0.2762184352855857 l 5.437853751522431 9.576618205600754" fill="#ff870c" stroke="none" /><path d="M 89.63071344664047 81.73862282372117 l -3.226405436979149 -5.68203090010894 a27.53415390035783,27.53415390035783 0 0,0 0.41416075928123897,-0.23048001413767114 l 3.1281205886258645 5.736726311806796" fill="#ff4906" stroke="none" /><path d="M 90.91171255644093 81.06846463323043 l -2.0601955020594853 -4.291530637858531 a25.76042442670657,25.76042442670657 0 0,0 0.40139867421848485,-0.1884620597141827 l 1.986018616541392 4.3263576802127215" fill="#ff3004" stroke="none" /><path d="M 92.57280143429618 80.3572730644239 l -3.9488465526238086 -10.443522393739887 a32.16514886083994,32.16514886083994 0 0,0 0.5195708089406291,-0.19136231377126356 l 3.76849341791061 10.509947975317473" fill="#ff890c" stroke="none" /><path d="M 93.25333710446033 80.11325718540243 l -5.2154711499463735 -15.373338644873927 a37.23393607249631,37.23393607249631 0 0,0 0.6087166594864755,-0.20068431215312504 l 4.950071668217489 15.460836681286285" fill="#ffcb12" stroke="none" /><path d="M 93.59665428221793 80.00007090966166 l -3.124749892782703 -9.759706727554711 a31.247728397080117,31.247728397080117 0 0,0 0.51367490058259,-0.15960129205229995 l 2.956289619489384 9.812048154489537" fill="#ff7c0b" stroke="none" /><path d="M 93.94186890950719 79.89281104454417 l -3.3001616148314104 -10.95337360346877 a32.439731639386174,32.439731639386174 0 0,0 0.5360430577759066,-0.15648566783327508 l 3.1111283393320828 11.008557600220744" fill="#ff8d0c" stroke="none" /><path d="M 94.98787191387505 79.60689891045804 l -2.437739664570992 -9.9185556624546 a31.213731986959168,31.213731986959168 0 0,0 0.5228691216434339,-0.12374622786921927 l 2.266646855965024 9.959047802464688" fill="#ff7c0b" stroke="none" /><path d="M 95.33964822691252 79.52364482259891 l -2.498510214376279 -10.97779417840801 a32.25853091281591,32.25853091281591 0 0,0 0.5424921380942619,-0.11856776941555043 l 2.309175352128496 11.019175445919428" fill="#ff8a0c" stroke="none" /><path d="M 95.692805502759 79.44645832069477 l -2.12238165205111 -10.12781284262128 a31.34780637875138,31.34780637875138 0 0,0 0.5290816938166598,-0.10612881043746686 l 1.9477335487673135 10.162845609135958" fill="#ff7e0b" stroke="none" /><path d="M 96.04723909329186 79.375362276772 l -2.366121601008593 -12.345902517677816 a33.570594274208474,33.570594274208474 0 0,0 0.568469862446848,-0.10388423379424615 l 2.1532566174588514 12.384802232822798" fill="#ff9c0e" stroke="none" /><path d="M 97.47563105711357 79.15227682838746 l -0.437078565762404 -3.6096518177097567 a24.636017590406333,24.636017590406333 0 0,0 0.4214322767330591,-0.047352826681824535 l 0.37487958551962697 3.61664059786218" fill="#ff2003" stroke="none" /><path d="M 98.19473922651362 79.07773832637324 l -0.4721278571732576 -5.471775998384368 a26.49210681706158,26.49210681706158 0 0,0 0.4546673905395228,-0.03529094010869291 l 0.3778702772714006 5.4790922006815235" fill="#ff3a05" stroke="none" /><path d="M 98.55514903715128 79.0497635885617 l -0.1286425000575653 -1.865307120293383 a22.869737828102714,22.869737828102714 0 0,0 0.39296520673655017,-0.023704734411777527 l 0.09651524448139213 1.867245124085467" fill="#ff0601" stroke="none" /><path d="M 99.63851952072746 79.00311137660856 l -0.09050262090217953 -5.256918589441607 a26.25769757407241,26.25769757407241 0 0,0 0.451983100174714,-0.0038903612393610407 l 1.287764500994516e-15 5.2576975740724095" fill="#ff3705" stroke="none" /></svg>