<?xml version="1.0" encoding="utf-8" ?>
<svg baseProfile="full" height="200mm" version="1.1" viewBox="0,0,200,200" width="200mm" xmlns="http://www.w3.org/2000/svg" xmlns:ev="http://www.w3.org/2001/xml-events" xmlns:xlink="http://www.w3.org/1999/xlink"><defs /><rect fill="#1a1a1a" height="200" width="200" x="0" y="0" /><text alignment-baseline="middle" fill="#e1ed5e" style="dominant-baseline: central; font-size:9.0px; font-family:Arial;" text-anchor="middle" x="100.0" y="100.0">2024</text><line stroke="#e1ed5e" stroke-width="0.3" x1="100.0" x2="100.0" y1="15.0" y2="10.0" /><path d="M 100.0 14.0 a86.0,86.0 0 0,1 42.35913384403234,11.155469271406648" fill="none" id="id85" stroke="none" /><text fill="#e1ed5e" style="font-size:6.75px; font-family:Arial;" text-anchor="middle"><textPath startOffset="22.145653131862478" xlink:href="#id85">January</textPath></text><path d="M 100.0 79.0 l 0.0 -15.47875242991607 a36.47875242991607,36.47875242991607 0 0,0 0.6262062932522721,0.0053752278883033525 l -0.26571336840341725 15.476471600222203" fill="#ffa40f" stroke="none" /><path d="M 102.15924093988457 79.11130261209362 l 3.246282433079 -31.404837750014483 a52.572174200394436,52.572174200394436 0 0,0 0.8968915519423891,0.10049856913189915 l -3.7849098866221857 31.344483420375614" fill="#8fff24" stroke="none" /><path d="M 102.51750503828377 79.15144685158666 l 3.4670979998742255 -28.712545088057762 a49.92111709416636,49.92111709416636 0 0,0 0.8499003103405328,0.1100366107705731 l -3.95947613210555 28.648796881086792" fill="#aeff20" stroke="none" /><path d="M 102.87502721639298 79.19773525538626 l 1.3036441730882897 -9.43251982684844 a30.522180339287633,30.522180339287633 0 0,0 0.518404545197081,0.07618761590301956 l -1.465373823893053 9.408751137646536" fill="#ff4f07" stroke="none" /><path d="M 103.23170211078529 79.25015418208739 l 1.7825892109137704 -11.445501477284095 a32.583485156090916,32.583485156090916 0 0,0 0.5519370809027558,0.09082103662585682 l -1.978803794869597 11.41321444216257" fill="#ff6d0a" stroke="none" /><path d="M 104.9986988182912 79.60360301121754 l 2.9505843804592358 -12.039391161662397 a33.395680204398815,33.395680204398815 0 0,0 0.5556320901216393,0.14123950452653436 l -3.156821763806269 11.986966425300595" fill="#ff790b" stroke="none" /><path d="M 107.06938296918511 80.22567764915836 l 1.6436696258492804 -4.597636478530953 a25.882613135162156,25.882613135162156 0 0,0 0.4170931937370629,0.15316239808296686 l -1.722351971240468 4.568743231439265" fill="#ff0901" stroke="none" /><path d="M 108.07796709384702 80.6158196554323 l 6.42260070231281 -15.411903619860956 a37.69660363574677,37.69660363574677 0 0,0 0.5951843595626892,0.2540488112476066 l -6.686220137045929 15.299380158953948" fill="#ffb510" stroke="none" /><path d="M 108.73861861582097 80.90454125486305 l 13.447858600189665 -29.385997993486306 a53.31689618456383,53.31689618456383 0 0,0 0.8289794450286372,0.3880042378994136 l -13.950326759089807 29.150817524016357" fill="#86ff25" stroke="none" /><path d="M 109.06512990194946 81.05736502329252 l 8.243601822252069 -17.225957256129373 a40.096873419327935,40.096873419327935 0 0,0 0.6183314996897907,0.30245692148486436 l -8.538093571203927 17.081906584547287" fill="#ffd513" stroke="none" /><line stroke="#e1ed5e" stroke-width="0.3" x1="143.13028292997686" x2="145.6673583964461" y1="26.7553504044142" y2="22.446841604673864" /><path d="M 143.63769802327073 25.89364864446614 a86.0,86.0 0 0,1 29.32050498858742,28.57503671076993" fill="none" id="id86" stroke="none" /><text fill="#e1ed5e" style="font-size:6.75px; font-family:Arial;" text-anchor="middle"><textPath startOffset="20.669276256404974" xlink:href="#id86">February</textPath></text><path d="M 115.16444852881244 85.47280134310134 l 10.338460464603887 -9.904011259653444 a35.31688526913308,35.31688526913308 0 0,0 0.41563629356533605,0.4413913403354498 l -10.506952591905485 9.7250784593735" fill="#ff940d" stroke="none" /><line stroke="#e1ed5e" stroke-width="0.3" x1="172.87174338648825" x2="177.1583165268699" y1="56.24261187166439" y2="53.66864786411523" /><path d="M 173.72905801456457 55.72781907015455 a86.0,86.0 0 0,1 12.242430191666344,42.057860355516425" fill="none" id="id87" stroke="none" /><text fill="#e1ed5e" style="font-size:6.75px; font-family:Arial;" text-anchor="middle"><textPath startOffset="22.145653131862474" xlink:href="#id87">March</textPath></text><path d="M 120.43855184770803 95.1765574152323 l 13.47555538920301 -3.180194379816917 a34.845729642777854,34.845729642777854 0 0,0 0.13239574983770142,0.5833601024401815 l -13.528162000598378 2.9483999434377095" fill="#ff8d0d" stroke="none" /><path d="M 120.51834098615036 95.52812308129327 l 9.058425426164856 -1.9742416606895914 a30.27106797171676,30.27106797171676 0 0,0 0.10629799276312311,0.5086743756781021 l -9.090981129752345 1.818450833726085" fill="#ff4b07" stroke="none" /><path d="M 120.82617615685814 97.30363454192243 l 15.12736650644766 -1.9585404546879872 a36.253625737281084,36.253625737281084 0 0,0 0.0746098128518215,0.6178762802773807 l -15.158758405559144 1.6985704974871936" fill="#ffa10e" stroke="none" /><line stroke="#e1ed5e" stroke-width="0.3" x1="184.99686870605535" x2="189.99668451229388" y1="99.2704041080226" y2="99.22748670261217" /><path d="M 185.99683186730306 99.26182062694052 a86.0,86.0 0 0,1 -10.086455211305974,41.156179273409016" fill="none" id="id88" stroke="none" /><text fill="#e1ed5e" style="font-size:6.75px; font-family:Arial;" text-anchor="middle"><textPath startOffset="21.40746469413373" xlink:href="#id88">April</textPath></text><path d="M 120.99922638620191 99.81974689727618 l 14.45358879966621 -0.12406667649176299 a35.4541212714593,35.4541212714593 0 0,0 0.0,0.608639558431178 l -14.45358879966621 -0.12406667649176123" fill="#ff960d" stroke="none" /><path d="M 120.98066250479742 100.90099992219065 l 10.857055349025861 0.4662486717211634 a31.867062099559973,31.867062099559973 0 0,0 -0.02816200101221558,0.5463352960979493 l -10.847451758557073 -0.6525557611958432" fill="#ff6309" stroke="none" /><path d="M 120.9064616781168 101.97986365728391 l 16.48585456572516 1.5612275676525382 a37.55961449672785,37.55961449672785 0 0,0 -0.06629738327164922,0.6413670430153838 l -16.456624789971844 -1.8439991329508534" fill="#ffb310" stroke="none" /><path d="M 120.86939407059847 102.33845913500097 l 10.451605346153915 1.1711241789991191 a31.517014127326703,31.517014127326703 0 0,0 -0.0648618856146556,0.5371494590792613 l -10.429961374279596 -1.350367315001789" fill="#ff5e08" stroke="none" /><path d="M 120.77682067341334 103.0534771498775 l 6.266197292407221 0.9209152136290847 a27.333507190969716,27.333507190969716 0 0,0 -0.0722105806468064,0.46364372812786153 l -6.249465219622147 -1.0283471236883968" fill="#ff2003" stroke="none" /><path d="M 120.65975698304385 103.76489593502545 l 12.183088937938068 2.2201646445377845 a33.38373074313894,33.38373074313894 0 0,0 -0.10758099223058475,0.5629092107506657 l -12.143181653425325 -2.428976420321765" fill="#ff780b" stroke="none" /><path d="M 120.592083275326 104.11899336999214 l 14.294217338085575 2.859243800521634 a35.5773771447146,35.5773771447146 0 0,0 -0.1249312968341043,0.5978414809897271 l -14.243028330427107 -3.1042017327967706" fill="#ff970e" stroke="none" /><path d="M 120.43855184770803 104.8234425847677 l 14.173034323054836 3.3447975090692754 a35.562368361608165,35.562368361608165 0 0,0 -0.14531879962134378,0.5929502926170619 l -14.113527996917195 -3.587603626294437" fill="#ff970d" stroke="none" /><path d="M 120.26092885502905 105.52220625578681 l 13.439542251040752 3.66300700351094 a34.92978521820346,34.92978521820346 0 0,0 -0.16264224143557096,0.5771599376422107 l -13.3746815175306 -3.893174865056159" fill="#ff8e0d" stroke="none" /><path d="M 120.16314734710363 105.8691983318838 l 14.163165205167335 4.122690975042821 a35.75099418698829,35.75099418698829 0 0,0 -0.1765821276477747,0.5877844727149376 l -14.09030675751593 -4.365213051348482" fill="#ff9a0e" stroke="none" /><path d="M 119.94978838288452 106.5578916946017 l 13.979813589551272 4.595442401266338 a35.71574934761934,35.71574934761934 0 0,0 -0.19646141567225373,0.5808032665291714 l -13.898866752306654 -4.83474734226967" fill="#ff990e" stroke="none" /><path d="M 119.83427380445688 106.89939002012753 l 11.074728021587424 3.8523652915690523 a32.72562659698063,32.72562659698063 0 0,0 -0.18912268947690372,0.5290098219145575 l -11.006965162066576 -4.041910069864532" fill="#ff6f0a" stroke="none" /><path d="M 118.70294669586154 109.54985784667822 l 13.013067161183859 6.644564814274995 a35.61130242355496,35.61130242355496 0 0,0 -0.28267222701425937,0.5420612670300508 l -12.89708686519465 -6.866972324409549" fill="#ff980e" stroke="none" /><line stroke="#e1ed5e" stroke-width="0.3" x1="174.33088141563837" x2="178.70328620479359" y1="141.23008692659167" y2="143.65538615756765" /><path d="M 175.20536237346943 141.71514677278685 a86.0,86.0 0 0,1 -30.301960400862466,31.631185727798858" fill="none" id="id89" stroke="none" /><text fill="#e1ed5e" style="font-size:6.75px; font-family:Arial;" text-anchor="middle"><textPath startOffset="22.145653131862474" xlink:href="#id89">May</textPath></text><path d="M 118.36410011445183 110.18625677009912 l 12.59488688349343 6.986171442435915 a35.40269999101217,35.40269999101217 0 0,0 -0.2993494431696053,0.5289217829710436 l -12.473104075302446 -7.201349995506082" fill="#ff950d" stroke="none" /><path d="M 117.81537515405839 111.11811171558189 l 13.918423361764368 8.686125579882018 a37.40644039597831,37.40644039597831 0 0,0 -0.34464211599392586,0.5418346498763774 l -13.767263554144552 -8.923773904437068" fill="#ffb110" stroke="none" /><path d="M 117.21940702142032 112.02048342749411 l 12.36732382257249 8.633352522926986 a36.0826215996258,36.0826215996258 0 0,0 -0.358910231315169,0.5048521879044574 l -12.217298492727362 -8.844381937540946" fill="#ff9e0e" stroke="none" /><path d="M 117.01052211995028 112.31430620078461 l 11.830141651989768 8.56411024153112 a35.60466486213365,35.60466486213365 0 0,0 -0.36265551940023943,0.49201186207558495 l -11.6813841130057 -8.765928412875583" fill="#ff980e" stroke="none" /><path d="M 116.57777611688842 112.89097897827486 l 13.111435880770465 10.195531844698056 a37.608992156413564,37.608992156413564 0 0,0 -0.4006854311965675,0.506252952956535 l -12.934484018932336 -10.419104741569274" fill="#ffb310" stroke="none" /><path d="M 116.35404254752997 113.17365903436017 l 12.830944647655755 10.33570075323639 a37.47603868081333,37.47603868081333 0 0,0 -0.40786989727791023,0.4975349559614181 l -12.651627931139219 -10.5544379908963" fill="#ffb210" stroke="none" /><path d="M 115.89218393027572 113.72728997021213 l 28.748804240526066 24.83253238434665 a58.988793214311436,58.988793214311436 0 0,0 -0.6685085778781423,0.7606400451982877 l -28.31828459868934 -25.322384707356232" fill="#48ff2c" stroke="none" /><path d="M 115.6541949942343 113.99807769240083 l 9.366704536183413 8.375764954221587 a33.56537275358457,33.56537275358457 0 0,0 -0.3877636477199495,0.4262201750372061 l -9.221543187621583 -8.535322704816464" fill="#ff7b0b" stroke="none" /><path d="M 115.41159269507618 114.26474011684316 l 46.23477808522855 42.794220350529464 a84.0,84.0 0 0,0 -0.9885766650549601,1.0498341602220114 l -45.49334558643733 -43.58159597069598" fill="#4dd2ff" stroke="none" /><path d="M 114.91283532996324 114.78537596483092 l 22.70620114783913 22.512132218702927 a52.974484633821596,52.974484633821596 0 0,0 -0.6458045758671118,0.640284911804691 l -22.316404651842053 -22.89859714073628" fill="#8aff24" stroke="none" /><path d="M 114.13192950727249 115.5334660781643 l 6.744819415643664 7.413738056245501 a31.022779101440207,31.022779101440207 0 0,0 -0.39699550998522887,0.3549958330245869 l -6.6165588788350576 -7.528429419153475" fill="#ff5608" stroke="none" /><path d="M 113.59037401385872 116.0094264158162 l 27.199735532845725 32.041220064930094 a63.029339708185155,63.029339708185155 0 0,0 -0.8308637586692602,0.6931360981754819 l -26.645697440014573 -32.503418347017444" fill="#32ff44" stroke="none" /><path d="M 113.31354834802062 116.24036423190432 l 7.110870737019066 8.674106087754502 a32.2162649335781,32.2162649335781 0 0,0 -0.43069959819681636,0.3469411086824966 l -6.960920368466997 -8.794895490230402" fill="#ff6809" stroke="none" /><path d="M 113.03279911837588 116.46651593811092 l 2.6509779189441884 3.349423999969892 a25.271571731611676,25.271571731611676 0 0,0 -0.34247799991686223,0.2663129641950169 l -2.5930899743920954 -3.3944380157857017" fill="#ff0000" stroke="none" /><path d="M 112.45986205192187 116.90419585922612 l 9.189711348831132 12.467608379856284 a36.48844903107791,36.48844903107791 0 0,0 -0.5073961913845878,0.3673157132839364 l -8.974334147072575 -12.623524864513298" fill="#ffa40f" stroke="none" /><line stroke="#e1ed5e" stroke-width="0.3" x1="143.1302829299769" x2="145.66735839644613" y1="173.24464959558577" y2="177.55315839532614" /><path d="M 143.63769802327073 174.10635135553383 a86.0,86.0 0 0,1 -40.68552437913181,11.842963189579606" fill="none" id="id90" stroke="none" /><text fill="#e1ed5e" style="font-size:6.75px; font-family:Arial;" text-anchor="middle"><textPath startOffset="21.407464694133747" xlink:href="#id90">June</textPath></text><path d="M 110.34350942703117 118.27599006163325 l 9.693448341507803 17.127394411163642 a40.680207825758345,40.680207825758345 0 0,0 -0.6106986640042023,0.33874425438400824 l -9.398005489347506 -17.291271580980798" fill="#ffdd14" stroke="none" /><path d="M 110.02825361518725 118.45085714620011 l 4.859084705417512 8.94016856785191 a31.17532889866611,31.17532889866611 0 0,0 -0.472397063194677,0.25152482828076633 l -4.704898826436282 -9.022263863855244" fill="#ff5908" stroke="none" /><path d="M 109.3889696526874 118.78422872680471 l 3.9756131370951597 7.953889431851541 a29.89212330717266,29.89212330717266 0 0,0 -0.4609646552772514,0.2254809121295525 l -3.838488232555839 -8.020964094078318" fill="#ff4606" stroke="none" /><path d="M 107.74402155503746 119.51999308798841 l 5.589501631033031 14.089195442914392 a36.15743898922112,36.15743898922112 0 0,0 -0.5789111383511459,0.2239352647419082 l -5.346818230188355 -14.18307059579434" fill="#ff9f0e" stroke="none" /><path d="M 107.407793817531 119.65005319985036 l 3.4902160852150765 9.258212828648665 a30.894246464589852,30.894246464589852 0 0,0 -0.49785467405182565,0.18281913231761315 l -3.330772259509124 -9.316762809975" fill="#ff5407" stroke="none" /><path d="M 106.38641147887787 120.00534299687104 l 1.641993596528283 5.14352155445296 a26.399255221987758,26.399255221987758 0 0,0 -0.43289670575734146,0.1341125060211865 l -1.5534562578993174 -5.17095064828079" fill="#ff1101" stroke="none" /><path d="M 106.0420521117495 120.11202640906438 l 7.052782406998234 23.47641883973442 a45.512934977662326,45.512934977662326 0 0,0 -0.750183178554513,0.21836738999042637 l -6.648739216062114 -23.594029924027367" fill="#e3ff1b" stroke="none" /><path d="M 105.3480935250658 120.30758222061773 l 1.9479178640845027 7.396561409875378 a28.64875837605537,28.64875837605537 0 0,0 -0.4766535491551575,0.12116346825603448 l -1.8206590217039478 -7.428910109966682" fill="#ff3304" stroke="none" /><path d="M 104.9986988182912 120.39639698878246 l 2.481168482332785 10.124014108738452 a31.4236202305944,31.4236202305944 0 0,0 -0.5250256167621247,0.12390461598522438 l -2.307010711830781 -10.165114868369901" fill="#ff5c08" stroke="none" /><line stroke="#e1ed5e" stroke-width="0.3" x1="101.45913802915013" x2="101.54496967792366" y1="184.9874750549273" y2="189.98673829345242" /><path d="M 101.47630435890484 185.9873277026323 a86.0,86.0 0 0,1 -42.54439059252881,-10.42667462771756" fill="none" id="id91" stroke="none" /><text fill="#e1ed5e" style="font-size:6.75px; font-family:Arial;" text-anchor="middle"><textPath startOffset="22.145653131862474" xlink:href="#id91">July</textPath></text><line stroke="#e1ed5e" stroke-width="0.3" x1="58.13341422392154" x2="55.67067388415222" y1="173.97424548756322" y2="178.32567169271397" /><path d="M 57.64086615596768 174.84453072859336 a86.0,86.0 0 0,1 -31.369924170532247,-30.572349798747897" fill="none" id="id92" stroke="none" /><text fill="#e1ed5e" style="font-size:6.75px; font-family:Arial;" text-anchor="middle"><textPath startOffset="22.145653131862474" xlink:href="#id92">August</textPath></text><line stroke="#e1ed5e" stroke-width="0.3" x1="26.387840678322732" x2="22.057713659400548" y1="142.50000000000003" y2="145.00000000000006" /><path d="M 25.521815274538298 143.00000000000003 a86.0,86.0 0 0,1 -11.493303480769221,-40.785679425670985" fill="none" id="id93" stroke="none" /><text fill="#e1ed5e" style="font-size:6.75px; font-family:Arial;" text-anchor="middle"><textPath startOffset="21.40746469413373" xlink:href="#id93">September</textPath></text><line stroke="#e1ed5e" stroke-width="0.3" x1="15.003131293944662" x2="10.003315487706104" y1="100.72959589197737" y2="100.7725132973878" /><path d="M 14.003168132696942 100.73817937305945 a86.0,86.0 0 0,1 10.791469493833604,-42.45332614584628" fill="none" id="id94" stroke="none" /><text fill="#e1ed5e" style="font-size:6.75px; font-family:Arial;" text-anchor="middle"><textPath startOffset="22.145653131862435" xlink:href="#id94">October</textPath></text><line stroke="#e1ed5e" stroke-width="0.3" x1="26.387840678322718" x2="22.05771365940052" y1="57.49999999999999" y2="54.99999999999999" /><path d="M 25.521815274538284 56.99999999999999 a86.0,86.0 0 0,1 29.574782752854787,-30.34633250058573" fill="none" id="id95" stroke="none" /><text fill="#e1ed5e" style="font-size:6.75px; font-family:Arial;" text-anchor="middle"><textPath startOffset="21.40746469413373" xlink:href="#id95">November</textPath></text><line stroke="#e1ed5e" stroke-width="0.3" x1="56.869717070023135" x2="54.33264160355391" y1="26.7553504044142" y2="22.446841604673864" /><path d="M 56.362301976729285 25.89364864446614 a86.0,86.0 0 0,1 42.16139366436587,-11.88097634709845" fill="none" id="id96" stroke="none" /><text fill="#e1ed5e" style="font-size:6.75px; font-family:Arial;" text-anchor="middle"><textPath startOffset="22.145653131862474" xlink:href="#id96">December</textPath></text></svg>