<?xml version="1.0" encoding="utf-8" ?>
<svg baseProfile="full" height="200mm" version="1.1" viewBox="0,0,200,200" width="200mm" xmlns="http://www.w3.org/2000/svg" xmlns:ev="http://www.w3.org/2001/xml-events" xmlns:xlink="http://www.w3.org/1999/xlink"><defs /><rect fill="#1a1a1a" height="200" width="200" x="0" y="0" /><text alignment-baseline="middle" fill="#e1ed5e" style="dominant-baseline: central; font-size:9.0px; font-family:Arial;" text-anchor="middle" x="100.0" y="100.0">2020</text><line stroke="#e1ed5e" stroke-width="0.3" x1="100.0" x2="100.0" y1="15.0" y2="10.0" /><path d="M 100.0 14.0 a86.0,86.0 0 0,1 42.35913384403234,11.155469271406648" fill="none" id="id37" stroke="none" /><text fill="#e1ed5e" style="font-size:6.75px; font-family:Arial;" text-anchor="middle"><textPath startOffset="22.145653131862478" xlink:href="#id37">January</textPath></text><path d="M 100.36049292484886 79.00309439819443 l 0.19875797983482024 -11.57665588567945 a32.578361983889806,32.578361983889806 0 0,0 0.5590860908751331,0.014400074486048122 l -0.3974573847806947 11.571538093843358" fill="#ff800b" stroke="none" /><path d="M 101.44090949804482 79.04949213459386 l 0.5332499246326754 -7.753336871887723 a28.771652857088668,28.771652857088668 0 0,0 0.4924487670667336,0.03811864903463578 l -0.6662676864746425 7.743040455858034" fill="#ff4a06" stroke="none" /><path d="M 102.87502721639298 79.19773525538626 l 1.0451387967129675 -7.562103697705807 a28.633985030064604,28.633985030064604 0 0,0 0.486334456506167,0.07147441725961212 l -1.1747983588268165 7.543048207147313" fill="#ff4806" stroke="none" /><path d="M 105.3480935250658 79.69241777938227 l 2.1647805277756915 -8.22002426684492 a29.500298446581517,29.500298446581517 0 0,0 0.48860726084278294,0.13317208168267913 l -2.305569189553167 8.181651691018098" fill="#ff5407" stroke="none" /><path d="M 106.04205211174951 79.88797359093562 l 2.754913123545929 -9.170209801350165 a30.57508715986775,30.57508715986775 0 0,0 0.5013722697269907,0.1553264107773274 l -2.9119260261445503 9.121566802766191" fill="#ff6409" stroke="none" /><path d="M 106.72888874123014 80.10723608172694 l 2.9074356836980932 -8.595316981388459 a30.073734416731945,30.073734416731945 0 0,0 0.4876158562832526,0.1696181068016028 l -3.0545573120263643 8.544140442018266" fill="#ff5c08" stroke="none" /><path d="M 108.73861861582097 80.90454125486305 l 4.108229418555691 -8.977222696909996 a30.87259217760981,30.87259217760981 0 0,0 0.48001189419199486,0.22466980370325706 l -4.261730026619191 8.905376661636206" fill="#ff6809" stroke="none" /><path d="M 110.02825361518725 81.54914285379988 l 3.590433182035234 -6.605992656027559 a28.518666730621174,28.518666730621174 0 0,0 0.4281274015651234,0.2374750527103551 l -3.7033047717564576 6.543384687884058" fill="#ff4606" stroke="none" /><line stroke="#e1ed5e" stroke-width="0.3" x1="143.13028292997686" x2="145.6673583964461" y1="26.7553504044142" y2="22.446841604673864" /><path d="M 143.63769802327073 25.89364864446614 a86.0,86.0 0 0,1 29.32050498858742,28.57503671076993" fill="none" id="id38" stroke="none" /><text fill="#e1ed5e" style="font-size:6.75px; font-family:Arial;" text-anchor="middle"><textPath startOffset="20.669276256404974" xlink:href="#id38">February</textPath></text><path d="M 110.65571695917076 81.90426304109057 l 4.032784242267652 -6.848549294217499 a28.94770257244251,28.94770257244251 0 0,0 0.4260374589552417,0.25582325305217296 l -4.149754457780327 6.778312040629405" fill="#ff4c07" stroke="none" /><path d="M 110.96478420261332 82.08984904055464 l 4.269183926619863 -6.973391102505757 a29.176436562942065,29.176436562942065 0 0,0 0.4249143283351938,0.2651779674090066 l -4.388262383744769 6.899077338255205" fill="#ff5007" stroke="none" /><path d="M 114.39649973595853 84.71141617570332 l 7.584510489113037 -8.054487306343956 a32.06343369517446,32.06343369517446 0 0,0 0.3974759042136742,0.3807729249679923 l -7.721658879192023 7.923102251070384" fill="#ff780b" stroke="none" /><path d="M 115.8921839302757 86.27271002978787 l 8.214948819366562 -7.095877132347041 a31.855268600185706,31.855268600185706 0 0,0 0.3539051116840243,0.41689933168203774 l -8.335548494557699 6.953811018215451" fill="#ff760a" stroke="none" /><path d="M 116.1254893667686 86.54754324733833 l 5.881071509839481 -4.906199021064514 a28.658837440378274,28.658837440378274 0 0,0 0.31190802161531256,0.3804770708357715 l -5.964426350693421 4.804519668530247" fill="#ff4806" stroke="none" /><path d="M 116.57777611688842 87.10902102172516 l 8.690519047782965 -6.757800175690565 a32.00876852942426,32.00876852942426 0 0,0 0.33357408095181873,0.4366591798377838 l -8.80524510608909 6.607620082611899" fill="#ff780b" stroke="none" /><line stroke="#e1ed5e" stroke-width="0.3" x1="172.87174338648825" x2="177.1583165268699" y1="56.24261187166439" y2="53.66864786411523" /><path d="M 173.72905801456457 55.72781907015455 a86.0,86.0 0 0,1 12.242430191666344,42.057860355516425" fill="none" id="id39" stroke="none" /><text fill="#e1ed5e" style="font-size:6.75px; font-family:Arial;" text-anchor="middle"><textPath startOffset="22.145653131862474" xlink:href="#id39">March</textPath></text><path d="M 118.00360718960297 89.18935116829356 l 10.1503390330619 -6.0949869464250845 a32.83968953829416,32.83968953829416 0 0,0 0.28605916989192537,0.48579100898444744 l -10.253471913083592 5.919844769147081" fill="#ff830c" stroke="none" /><path d="M 119.83427380445688 93.10060997987247 l 9.900291096612133 -3.4438351644099203 a31.482164110396468,31.482164110396468 0 0,0 0.1731737578667652,0.5119574441728589 l -9.957950276051262 3.2733760457629" fill="#ff700a" stroke="none" /><path d="M 119.94978838288452 93.4421083053983 l 10.68266135469043 -3.5116029719026773 a32.24502596934627,32.24502596934627 0 0,0 0.1683425041390001,0.5273304965380433 l -10.741368574606687 3.327703441673247" fill="#ff7b0b" stroke="none" /><path d="M 120.05942366710727 93.78553927170692 l 7.249063054545417 -2.245778264470406 a28.588967991890797,28.588967991890797 0 0,0 0.14120728416273437,0.470033123797539 l -7.286546658711778 2.1210075370821433" fill="#ff4706" stroke="none" /><path d="M 120.26092885502905 94.47779374421319 l 11.312829469837563 -3.08336197792235 a32.725494944799664,32.725494944799664 0 0,0 0.14307355627639198,0.5432735972288852 l -11.364092506918686 2.888707876320666" fill="#ff820b" stroke="none" /><path d="M 120.35273937422433 94.82641323984039 l 19.21590897973567 -4.884608919421271 a40.82701596845011,40.82701596845011 0 0,0 0.1668317726291229,0.6807305638088145 l -19.296928278881083 4.554022531004361" fill="#ffed16" stroke="none" /><path d="M 120.43855184770803 95.1765574152323 l 11.268595524439283 -2.6593578609728348 a32.57814446818362,32.57814446818362 0 0,0 0.12378009900791655,0.5453979551898858 l -11.312586485004866 2.465525571843923" fill="#ff800b" stroke="none" /><path d="M 120.51834098615036 95.52812308129327 l 11.044082231984055 -2.4070063196066767 a32.30333719613161,32.30333719613161 0 0,0 0.11343438251691071,0.5428245840521484 l -11.083774325325331 2.2170652842691236" fill="#ff7c0b" stroke="none" /><path d="M 120.592083275326 95.88100663000786 l 11.367063759610323 -2.27373110510945 a32.592238422901275,32.592238422901275 0 0,0 0.10503036270960363,0.5495632393034282 l -11.404420414602084 2.0782653007727077" fill="#ff800b" stroke="none" /><path d="M 120.65975698304385 96.23510406497455 l 11.06198123386949 -2.0158614747939354 a32.24415965308387,32.24415965308387 0 0,0 0.0945601170021288,0.5453976264950532 l -11.094956168363854 1.8256708153782897" fill="#ff7b0b" stroke="none" /><path d="M 120.7213421655516 96.59031103205396 l 10.944444368204424 -1.8009041559385126 a32.091623790392376,32.091623790392376 0 0,0 0.08478073346433901,0.5443531264356134 l -10.973746593807029 1.6127628475714582" fill="#ff790b" stroke="none" /><path d="M 120.77682067341334 96.94652285012252 l 12.498295620010104 -1.836819053694273 a33.632549134722495,33.632549134722495 0 0,0 0.07904527247737128,0.5719322152878331 l -12.527985409042689 1.6219985302063542" fill="#ff8e0d" stroke="none" /><path d="M 120.86939407059847 97.66154086499901 l 12.26815296825935 -1.3746721290117847 a33.34493016241455,33.34493016241455 0 0,0 0.05885794209460179,0.5693971981444446 l -12.289943302835619 1.1638704085844087" fill="#ff8a0c" stroke="none" /><path d="M 120.9064616781168 98.02013634271609 l 12.396564256907515 -1.1739675237884053 a33.452028152977604,33.452028152977604 0 0,0 0.04923242874389157,0.572155449292684 l -12.414890308349147 0.9609910271200593" fill="#ff8c0c" stroke="none" /><path d="M 120.93736805541906 98.37931529534042 l 12.648995285166395 -0.9791122329090649 a33.686833430324285,33.686833430324285 0 0,0 0.03967994380754531,0.5769376744111304 l -12.663939190139006 0.7618311343436004" fill="#ff8f0d" stroke="none" /><path d="M 120.98066250479742 99.09900007780936 l 12.54405246631148 -0.5386955866392505 a33.55561409141902,33.55561409141902 0 0,0 0.01977434416163256,0.5757084545639148 l -12.551451497469962 0.3232808675112157" fill="#ff8d0d" stroke="none" /><line stroke="#e1ed5e" stroke-width="0.3" x1="184.99686870605535" x2="189.99668451229388" y1="99.2704041080226" y2="99.22748670261217" /><path d="M 185.99683186730306 99.26182062694052 a86.0,86.0 0 0,1 -10.086455211305974,41.156179273409016" fill="none" id="id40" stroke="none" /><text fill="#e1ed5e" style="font-size:6.75px; font-family:Arial;" text-anchor="middle"><textPath startOffset="21.40746469413373" xlink:href="#id40">April</textPath></text><path d="M 120.98066250479742 100.90099992219065 l 12.92625986983072 0.5551092170836087 a33.938173768553554,33.938173768553554 0 0,0 -0.02999231247099967,0.5818428494267247 l -12.914825967903147 -0.776923859887064" fill="#ff920d" stroke="none" /><path d="M 120.96210409425399 101.26102812881392 l 12.714248573646149 0.7648576219261712 a33.737233764608455,33.737233764608455 0 0,0 -0.03973931069450469,0.577800855918264 l -12.699245301786577 -0.9830019019987787" fill="#ff8f0d" stroke="none" /><path d="M 120.93736805541906 101.62068470465957 l 8.96019989061403 0.6935761397981431 a29.987003390533296,29.987003390533296 0 0,0 -0.04413284004533086,0.5128904985787791 l -8.946973427870958 -0.8472876857525796" fill="#ff5b08" stroke="none" /><path d="M 120.9064616781168 101.97986365728391 l 11.263520704550052 1.0666671213592123 a32.31391521134998,32.31391521134998 0 0,0 -0.05703807268738294,0.5517916124820427 l -11.243550239381003 -1.2598632561241863" fill="#ff7c0b" stroke="none" /><path d="M 120.86939407059847 102.33845913500097 l 12.247124923107249 1.3723158926921852 a33.32377051845458,33.32377051845458 0 0,0 -0.06858018284615873,0.5679422941575332 l -12.221762654001425 -1.582351863773127" fill="#ff8a0c" stroke="none" /><path d="M 120.82617615685814 102.69636545807757 l 9.902632296850292 1.2820940084326393 a30.985283744244896,30.985283744244896 0 0,0 -0.07282350756529492,0.5269146237527476 l -9.879164272729787 -1.451896940385472" fill="#ff6909" stroke="none" /><path d="M 120.77682067341334 103.0534771498775 l 12.522939620381065 1.840440873086045 a33.65745785468139,33.65745785468139 0 0,0 -0.08891740667604146,0.5709135359038875 l -12.489500721566756 -2.055142590921383" fill="#ff8e0d" stroke="none" /><path d="M 120.7213421655516 103.40968896794604 l 10.647169205974622 1.7519876411200617 a31.79035091159188,31.79035091159188 0 0,0 -0.09322926489887147,0.5377216252236557 l -10.615525123583517 -1.9345022992643053" fill="#ff750a" stroke="none" /><path d="M 120.65975698304385 103.76489593502545 l 12.475787200175622 2.273504018209586 a33.68124941734374,33.68124941734374 0 0,0 -0.10853976326861975,0.5679259059597423 l -12.434921144624843 -2.4873324892026427" fill="#ff8f0d" stroke="none" /><path d="M 120.592083275326 104.11899336999214 l 20.365000404583917 4.073570436017008 a41.76841875482808,41.76841875482808 0 0,0 -0.14667137210607478,0.7018756111619433 l -20.292071321653477 -4.422562498464361" fill="#fff917" stroke="none" /><path d="M 120.51834098615036 104.47187691870673 l 11.24534510902285 2.4508706269125025 a32.509324630528354,32.509324630528354 0 0,0 -0.12351861921962229,0.5442458269964011 l -11.201615628245564 -2.6435507878479205" fill="#ff7f0b" stroke="none" /><path d="M 120.43855184770803 104.8234425847677 l 12.350699109511124 2.9147313606344882 a33.68997349872509,33.68997349872509 0 0,0 -0.1376676170250496,0.5617308566517178 l -12.298843965969779 -3.1263180418943057" fill="#ff8f0d" stroke="none" /><path d="M 120.35273937422433 105.17358676015961 l 11.478671168622146 2.917833324069313 a32.84371745291176,32.84371745291176 0 0,0 -0.14359041674545575,0.5452362006169647 l -11.426891271071959 -3.1144500290590806" fill="#ff830c" stroke="none" /><path d="M 120.16314734710363 105.8691983318838 l 12.305835621195364 3.5820494021599734 a33.816577868346734,33.816577868346734 0 0,0 -0.16702761435184457,0.5559806053898236 l -12.24253168683989 -3.7927676111405204" fill="#ff910d" stroke="none" /><path d="M 120.05942366710727 106.21446072829308 l 24.80435643901352 7.6844530301035325 a46.967420294004924,46.967420294004924 0 0,0 -0.24520411776868375,0.7680984065044302 l -24.668787605467582 -8.109120470299345" fill="#c6ff1e" stroke="none" /><path d="M 119.94978838288452 106.5578916946017 l 10.844551840430166 3.564819590118963 a32.41543881459987,32.41543881459987 0 0,0 -0.17830741662930003,0.5271341941129123 l -10.781759002228501 -3.750455458706036" fill="#ff7d0b" stroke="none" /><path d="M 119.71291397450082 107.23885506374661 l 10.794477856352756 3.9638817879505526 a32.49926567308261,32.49926567308261 0 0,0 -0.1968052091513685,0.5220491991394235 l -10.724841963386949 -4.148599267284135" fill="#ff7e0b" stroke="none" /><path d="M 119.58574465831526 107.57618678355244 l 7.13093665792064 2.7583994892505244 a28.64585020527959,28.64585020527959 0 0,0 -0.18134368014341834,0.4571045364210383 l -7.082534302811097 -2.8804050428851267" fill="#ff4806" stroke="none" /><path d="M 119.16976305983485 108.57439118712176 l 11.895545009399754 5.3207259774804045 a34.03127453467581,34.03127453467581 0 0,0 -0.24310570766589973,0.5312298448449246 l -11.802454836878798 -5.524144804540018" fill="#ff930d" stroke="none" /><path d="M 119.0197475246899 108.90220220490707 l 6.989691678446679 3.2715286357358284 a28.717427639711712,28.717427639711712 0 0,0 -0.21281082851307,0.4446927829182996 l -6.932501591973697 -3.3910339207192313" fill="#ff4906" stroke="none" /><line stroke="#e1ed5e" stroke-width="0.3" x1="174.33088141563837" x2="178.70328620479359" y1="141.23008692659167" y2="143.65538615756765" /><path d="M 175.20536237346943 141.71514677278685 a86.0,86.0 0 0,1 -30.301960400862466,31.631185727798858" fill="none" id="id41" stroke="none" /><text fill="#e1ed5e" style="font-size:6.75px; font-family:Arial;" text-anchor="middle"><textPath startOffset="22.145653131862474" xlink:href="#id41">May</textPath></text><path d="M 118.36410011445183 110.18625677009912 l 11.19215390717856 6.2080991063248705 a33.798625066620396,33.798625066620396 0 0,0 -0.28578610095161316,0.5049566568862017 l -11.083934441205567 -6.399312533310195" fill="#ff900d" stroke="none" /><path d="M 117.81537515405839 111.11811171558189 l 10.050087385418337 6.271997829750287 a32.84661188825468,32.84661188825468 0 0,0 -0.3026303947813334,0.4757852461687638 l -9.940939299011113 -6.443596750597722" fill="#ff830c" stroke="none" /><path d="M 117.62189284568427 111.42229804090321 l 9.39398508234237 6.089067635466416 a32.19480684945281,32.19480684945281 0 0,0 -0.30458672926923186,0.46118312920489646 l -9.288073914152411 -6.249430643010374" fill="#ff7a0b" stroke="none" /><path d="M 117.423217284605 111.72311816256416 l 9.598555168972641 6.458336287591576 a32.56902627429956,32.56902627429956 0 0,0 -0.31609056269684477,0.46118557745560884 l -9.486274869460477 -6.622156600117229" fill="#ff7f0b" stroke="none" /><path d="M 117.21940702142032 112.02048342749411 l 3.3537252630820102 2.3411606970610093 a25.09004970015007,25.09004970015007 0 0,0 -0.24956821711877325,0.3510489516616415 l -3.3130419474332764 -2.398386875432155" fill="#ff1402" stroke="none" /><path d="M 117.01052211995028 112.31430620078461 l 16.2156673400748 11.73889263760748 a41.018727922653916,41.018727922653916 0 0,0 -0.41780109818552913,0.5668274307128903 l -16.01176422230544 -12.015526377589248" fill="#ffef16" stroke="none" /><path d="M 116.35404254752997 113.17365903436017 l 2.9680542489151027 2.3908544053896326 a24.81123743845408,24.81123743845408 0 0,0 -0.27003272548496793,0.3293960183846632 l -2.926574704191507 -2.4414527054727886" fill="#ff1001" stroke="none" /><path d="M 115.89218393027572 113.72728997021213 l 9.177296277775486 7.927129946411765 a33.126918658809004,33.126918658809004 0 0,0 -0.37542095837811595,0.42716013555949817 l -9.039864255438784 -8.083502359782557" fill="#ff870c" stroke="none" /><path d="M 114.91283532996324 114.78537596483092 l 8.144718593544477 8.075106032408714 a32.46925361140265,32.46925361140265 0 0,0 -0.395828155803257,0.3924450295013908 l -8.004898517611256 -8.213731072138765" fill="#ff7e0b" stroke="none" /><path d="M 114.13192950727249 115.5334660781643 l 7.34293807767759 8.071175240788474 a31.911581433510193,31.911581433510193 0 0,0 -0.40836942764561684,0.3651664603315626 l -7.203303623208595 -8.196037231003425" fill="#ff760a" stroke="none" /><path d="M 113.31354834802062 116.24036423190432 l 6.859871347158524 8.367927644054555 a31.820353411774448,31.820353411774448 0 0,0 -0.42540665273234707,0.3426774864842706 l -6.715213924070924 -8.48445342433223" fill="#ff750a" stroke="none" /><path d="M 113.03279911837588 116.46651593811092 l 7.156930194569646 9.04254750237527 a32.532099338050116,32.532099338050116 0 0,0 -0.440871997702279,0.3428247320037324 l -7.0006482522321365 -9.164073285999795" fill="#ff7f0b" stroke="none" /><path d="M 112.7482090630111 116.68781488649013 l 6.974467690536622 9.129802090333046 a32.48897235504503,32.48897235504503 0 0,0 -0.4460999081875226,0.3347616876846273 l -6.816714793438334 -9.248182805281688" fill="#ff7e0b" stroke="none" /><path d="M 111.5731344415666 117.5232005979908 l 6.583761578895656 9.968654163557462 a32.946546880180655,32.946546880180655 0 0,0 -0.47460970470345915,0.30763627651700753 l -6.411666241935187 -10.080204281778364" fill="#ff850c" stroke="none" /><path d="M 111.27062007382361 117.71928675628689 l 9.702189535276924 15.253453440303439 a39.07761941279719,39.07761941279719 0 0,0 -0.5691113227588942,0.3551675566929906 l -9.438914083728315 -15.417756793837976" fill="#ffd614" stroke="none" /><path d="M 110.96478420261333 117.91015095944535 l 5.897976532413227 9.633901415552748 a32.295936599569174,32.295936599569174 0 0,0 -0.4753150523440305,0.2854130320218808 l -5.73172872351176 -9.733728448110552" fill="#ff7c0b" stroke="none" /><line stroke="#e1ed5e" stroke-width="0.3" x1="143.1302829299769" x2="145.66735839644613" y1="173.24464959558577" y2="177.55315839532614" /><path d="M 143.63769802327073 174.10635135553383 a86.0,86.0 0 0,1 -40.68552437913181,11.842963189579606" fill="none" id="id42" stroke="none" /><text fill="#e1ed5e" style="font-size:6.75px; font-family:Arial;" text-anchor="middle"><textPath startOffset="21.407464694133747" xlink:href="#id42">June</textPath></text><path d="M 110.34350942703117 118.27599006163325 l 3.9389932020018907 6.959823560898529 a28.997175216553366,28.997175216553366 0 0,0 -0.4353108578130719,0.24145959479966603 l -3.8189381560327242 -7.026416071131338" fill="#ff4d07" stroke="none" /><path d="M 109.71004243097381 118.62028667847754 l 3.5914963156356428 6.887167741771108 a28.76736282714519,28.76736282714519 0 0,0 -0.4398293860421391,0.22458001842156625 l -3.472739707879921 -6.947805711865511" fill="#ff4a06" stroke="none" /><path d="M 108.4095320186766 119.2426549942271 l 6.552387440237646 14.99314475775572 a37.362401134735755,37.362401134735755 0 0,0 -0.5899077011281361,0.25179651953139826 l -6.294044663939078 -15.103415926946523" fill="#ffc011" stroke="none" /><path d="M 107.407793817531 119.65005319985036 l 3.8804454590791737 10.293342604861786 a32.0004890319454,32.0004890319454 0 0,0 -0.5156815543230212,0.18936540968121723 l -3.7031747531020254 -10.358438863551726" fill="#ff780b" stroke="none" /><path d="M 106.72888874123015 119.89276391827305 l 2.441341706459927 7.2173929571560675 a28.619114805914574,28.619114805914574 0 0,0 -0.46673314712737235,0.15342445595903295 l -2.3170858216848207 -7.25823833451712" fill="#ff4806" stroke="none" /><path d="M 105.69591212413111 120.21278271476187 l 3.1206657306392147 11.074141764157968 a32.50544090485253,32.50544090485253 0 0,0 -0.5383808055964696,0.1467380826384196 l -2.93010352410805 -11.12608034094053" fill="#ff7f0b" stroke="none" /><path d="M 105.3480935250658 120.30758222061773 l 1.5575026429447159 5.914091223758107 a27.115741123176523,27.115741123176523 0 0,0 -0.4511474485099189,0.11467991721284564 l -1.4557499012093997 -5.939956372806223" fill="#ff3204" stroke="none" /><path d="M 103.58742460773223 120.69131181640829 l 1.9582804758956982 11.294841392180889 a32.46334613002665,32.46334613002665 0 0,0 -0.5499020259345458,0.09048616910526394 l -1.7641009469080802 -11.326793559781823" fill="#ff7e0b" stroke="none" /><path d="M 103.2317021107853 120.74984581791261 l 0.7104343232538852 4.56149798648646 a25.61649009620699,25.61649009620699 0 0,0 -0.4350837571317333,0.06394232936633233 l -0.6320254605144665 -4.573021389151675" fill="#ff1c02" stroke="none" /><path d="M 102.15924093988457 120.88869738790638 l 0.7931373025487426 7.6728839259998205 a28.7137678551121,28.7137678551121 0 0,0 -0.4907325628600498,0.046472883915568905 l -0.6613051763036776 -7.685368565420573" fill="#ff4906" stroke="none" /><path d="M 101.80034050326958 120.92268563240118 l 0.9994442829880581 11.61505754166136 a32.65797797951694,32.65797797951694 0 0,0 -0.5589661835136185,0.04326751775316797 l -0.7999091046992037 -11.63050282640958" fill="#ff810b" stroke="none" /><line stroke="#e1ed5e" stroke-width="0.3" x1="101.45913802915013" x2="101.54496967792366" y1="184.9874750549273" y2="189.98673829345242" /><path d="M 101.47630435890484 185.9873277026323 a86.0,86.0 0 0,1 -42.54439059252881,-10.42667462771756" fill="none" id="id43" stroke="none" /><text fill="#e1ed5e" style="font-size:6.75px; font-family:Arial;" text-anchor="middle"><textPath startOffset="22.145653131862474" xlink:href="#id43">July</textPath></text><path d="M 93.95794788825049 120.11202640906438 l -2.417637461674422 8.047528815943984 a29.40283826689175,29.40283826689175 0 0,0 -0.4821496560649788,-0.1493711959276784 l 2.5554277506110346 -8.004841032209656" fill="#ff5307" stroke="none" /><path d="M 93.61358852112213 120.00534299687104 l -1.444634634640508 4.525297417294005 a25.75029324806066,25.75029324806066 0 0,0 -0.4199471398268385,-0.13804496607116262 l 1.5221045121150898 -4.4998315298208205" fill="#ff1e03" stroke="none" /><path d="M 93.27111125876986 119.89276391827306 l -2.467359284396555 7.29430930330509 a28.700312334612217,28.700312334612217 0 0,0 -0.4653471757352631,-0.16187190374678515 l 2.5922122321768395 -7.250878966989714" fill="#ff4906" stroke="none" /><path d="M 91.92203290615298 119.3841803445677 l -3.803161483171365 9.126203067286651 a30.88694187767029,30.88694187767029 0 0,0 -0.4876679315183339,-0.20815644143747222 l 3.95926448986013 -9.059571976189774" fill="#ff6809" stroke="none" /><path d="M 91.59046798132341 119.24265499422711 l -5.331661458763509 12.19988481750846 a34.314045345849536,34.314045345849536 0 0,0 -0.5377282103391932,-0.24051898885800957 l 5.540303071958338 -12.106562077740596" fill="#ff970e" stroke="none" /><line stroke="#e1ed5e" stroke-width="0.3" x1="58.13341422392154" x2="55.67067388415222" y1="173.97424548756322" y2="178.32567169271397" /><path d="M 57.64086615596768 174.84453072859336 a86.0,86.0 0 0,1 -31.369924170532247,-30.572349798747897" fill="none" id="id44" stroke="none" /><text fill="#e1ed5e" style="font-size:6.75px; font-family:Arial;" text-anchor="middle"><textPath startOffset="22.145653131862474" xlink:href="#id44">August</textPath></text><path d="M 89.65649057296885 118.27599006163327 l -4.298530946833418 7.5950923057745285 a29.727129850879958,29.727129850879958 0 0,0 -0.44195399277793695,-0.25516225669977377 l 4.428277407471755 -7.520183151798583" fill="#ff5808" stroke="none" /><path d="M 88.1277618465304 117.32195027204791 l -14.201611416689568 20.720575477249223 a46.12027099652847,46.12027099652847 0 0,0 -0.64920850014143,-0.4531979531717142 l 14.555215008004764 -20.47373270827238" fill="#d0ff1d" stroke="none" /><path d="M 87.54013794807813 116.9041958592261 l -7.522111204309817 10.20518851193214 a33.67785587290197,33.67785587290197 0 0,0 -0.46242424194501325,-0.34701177206861133 l 7.696188435165596 -10.074557712599514" fill="#ff8f0d" stroke="none" /><path d="M 86.96720088162412 116.46651593811092 l -6.96957035351674 8.805824463768031 a32.230202820934046,32.230202820934046 0 0,0 -0.4308859339652809,-0.3470912075875555 l 7.119707057837283 -8.684884962387066" fill="#ff7b0b" stroke="none" /><path d="M 86.68645165197938 116.24036423190432 l -15.515299845446654 18.926143058978315 a45.4729119718727,45.4729119718727 0 0,0 -0.5994318635338715,-0.5000673800929549 l 15.837906043142418 -18.65701349497349" fill="#d8ff1c" stroke="none" /><path d="M 86.40962598614128 116.0094264158162 l -6.9738956629965845 8.215231555398763 a31.77614264137136,31.77614264137136 0 0,0 -0.4128182745975439,-0.3565825933846237 l 7.113893417356991 -8.094304829549417" fill="#ff740a" stroke="none" /><path d="M 86.13680546590413 115.77377054828092 l -6.808529273992202 7.746856489322929 a31.313576311880063,31.313576311880063 0 0,0 -0.40071681382082935,-0.3583234458610767 l 6.9405111146364025 -7.628837513578469" fill="#ff6e0a" stroke="none" /><path d="M 85.60350026404147 115.28858382429668 l -8.105390802441118 8.607644148548568 a32.82323550676123,32.82323550676123 0 0,0 -0.40689482406345223,-0.38979603711949273 l 8.251958112369884 -8.467235981123492" fill="#ff830c" stroke="none" /><path d="M 84.83555147118756 114.52719865689866 l -6.857913537657336 6.5697260367954025 a30.496961529275097,30.496961529275097 0 0,0 -0.3589117205109648,-0.38115180948107574 l 6.969681091904555 -6.451032767369837" fill="#ff6209" stroke="none" /><path d="M 84.3458050057657 113.99807769240083 l -5.825648331178036 5.209330660469655 a28.815069059750314,28.815069059750314 0 0,0 -0.3265556013090313,-0.37156032930475563 l 5.9142149964456605 -5.1085580533536" fill="#ff4b06" stroke="none" /><path d="M 83.8745106332314 113.45245675266167 l -14.844604762016115 12.383897259137552 a40.331921835796514,40.331921835796514 0 0,0 -0.4389518581804881,-0.5354498944064146 l 15.055003439435232 -12.127245083032642" fill="#ffe715" stroke="none" /><path d="M 83.4222238831116 112.89097897827486 l -9.248524243738707 7.1917083911300095 a32.71562504820261,32.71562504820261 0 0,0 -0.340940469115116,-0.44630201840777106 l 9.370616690208118 -7.0318854594813684" fill="#ff810b" stroke="none" /><path d="M 83.20337586046588 112.60449989151573 l -6.386137124948551 4.792276354458642 a28.984275799103482,28.984275799103482 0 0,0 -0.2952227646311188,-0.4005263793957396 l 6.4674619091635 -4.681943665794022" fill="#ff4d07" stroke="none" /><path d="M 82.78059297857968 112.02048342749411 l -12.879820981576946 8.991115342447277 a36.70763965777992,36.70763965777992 0 0,0 -0.3562568428352542,-0.5197893805613727 l 13.032267561227526 -8.768691226815852" fill="#ffb711" stroke="none" /><path d="M 82.576782715395 111.72311816256416 l -27.412817221968265 18.444566822102477 a54.040347959730134,54.040347959730134 0 0,0 -0.5112617358008832,-0.7741154308497854 l 27.725403396689874 -17.97127151291363" fill="#76ff27" stroke="none" /><path d="M 82.37810715431573 111.42229804090323 l -10.089394986120293 6.53982393339117 a33.023526448829614,33.023526448829614 0 0,0 -0.30426038704633485,-0.47834786474386504 l 10.20017306479252 -6.365662393968633" fill="#ff860c" stroke="none" /><path d="M 81.99639281039703 110.81064883170644 l -10.224391437632574 6.139453287671377 a32.9260667003599,32.9260667003599 0 0,0 -0.2868115819769791,-0.48706876919786474 l 10.328276729739324 -5.963033350179954" fill="#ff840c" stroke="none" /><line stroke="#e1ed5e" stroke-width="0.3" x1="26.387840678322732" x2="22.057713659400548" y1="142.50000000000003" y2="145.00000000000006" /><path d="M 25.521815274538298 143.00000000000003 a86.0,86.0 0 0,1 -11.493303480769221,-40.785679425670985" fill="none" id="id45" stroke="none" /><text fill="#e1ed5e" style="font-size:6.75px; font-family:Arial;" text-anchor="middle"><textPath startOffset="21.40746469413373" xlink:href="#id45">September</textPath></text><path d="M 81.63589988554817 110.18625677009913 l -27.282272593440748 15.133016710681405 a52.198246627472045,52.198246627472045 0 0,0 -0.42791289994501186,-0.7873115390644386 l 27.538030843001092 -14.66245033814238" fill="#8aff24" stroke="none" /><path d="M 81.4637452351635 109.86951160357371 l -30.232131718718758 16.09690730862674 a55.2504337660194,55.2504337660194 0 0,0 -0.43856197592521146,-0.8410004154006634 l 30.50400176361892 -15.575560650121574" fill="#68ff28" stroke="none" /><path d="M 81.1358732173502 109.22738970284198 l -13.880168972806093 6.789486188736627 a36.45173820062631,36.45173820062631 0 0,0 -0.2701260260682138,-0.5644595019447387 l 13.99467425683422 -6.550214184726784" fill="#ffb410" stroke="none" /><path d="M 80.9802524753101 108.90220220490708 l -25.142361410971276 11.767894652585213 a48.76007352069229,48.76007352069229 0 0,0 -0.34832231061492686,-0.7611471108621304 l 25.340668186441256 -11.334558559508395" fill="#b1ff20" stroke="none" /><path d="M 80.68587082218212 108.24405325689762 l -55.89466808993559 23.858110105179804 a81.7735414360143,81.7735414360143 0 0,0 -0.5399941332333328,-1.2957893417981847 l 56.29598806770541 -22.89508825394034" fill="#4ae7ff" stroke="none" /><path d="M 80.5471966667186 107.91128576633889 l -45.129956555670425 18.353960445563285 a69.71940930218676,69.71940930218676 0 0,0 -0.4413614596767532,-1.1125191970301846 l 45.438376690313305 -17.576540231319537" fill="#3bff99" stroke="none" /><path d="M 80.28708602549918 107.23885506374661 l -11.923094334929202 4.378325391850967 a33.7015712318023,33.7015712318023 0 0,0 -0.19476271209254578,-0.5447859689635833 l 11.996497217065691 -4.1730044665064625" fill="#ff8f0d" stroke="none" /><path d="M 80.16572619554312 106.89939002012753 l -11.7676392020655 4.093395768941558 a33.459262470595014,33.459262470595014 0 0,0 -0.1840491713709664,-0.5441086717637011 l 11.836173795008833 -3.890785422703695" fill="#ff8c0c" stroke="none" /><path d="M 80.05021161711548 106.5578916946017 l -11.167361438417206 3.6709335167906434 a32.75524199584783,32.75524199584783 0 0,0 -0.17100620314283693,-0.5356744957288728 l 11.228732357337297 -3.4786899873703785" fill="#ff820c" stroke="none" /><path d="M 79.73907114497094 105.5222062557868 l -15.212728423827498 4.146296779912631 a36.76765306202045,36.76765306202045 0 0,0 -0.1607455865340743,-0.6103771745655879 l 15.281663491166304 -3.8845391009742403" fill="#ffb811" stroke="none" /><path d="M 79.56144815229197 104.8234425847677 l -27.1795712816287 6.414304816328685 a48.926195611466895,48.926195611466895 0 0,0 -0.18589423786190604,-0.8190843118083261 l 27.285676381048273 -5.946786170581333" fill="#afff20" stroke="none" /><path d="M 79.407916724674 104.11899336999214 l -24.31711910785959 4.864104862211767 a45.798826541117265,45.798826541117265 0 0,0 -0.14758935243636973,-0.7722498572711324 l 24.397034752578115 -4.4459524399073205" fill="#d4ff1c" stroke="none" /><path d="M 79.2786578344484 103.40968896794605 l -10.68917485996882 1.7588996554997858 a31.83292145199561,31.83292145199561 0 0,0 -0.08409728490649765,-0.5399648964213668 l 10.717793637013584 -1.5751465771469688" fill="#ff750a" stroke="none" /><path d="M 79.06263194458094 101.62068470465958 l -10.45508113745163 0.8092894025931355 a31.486356418119996,31.486356418119996 0 0,0 -0.03708798738710414,-0.5392511969141406 l 10.467433086003801 -0.6296947815246515" fill="#ff700a" stroke="none" /><line stroke="#e1ed5e" stroke-width="0.3" x1="15.003131293944662" x2="10.003315487706104" y1="100.72959589197737" y2="100.7725132973878" /><path d="M 14.003168132696942 100.73817937305945 a86.0,86.0 0 0,1 10.791469493833604,-42.45332614584628" fill="none" id="id46" stroke="none" /><text fill="#e1ed5e" style="font-size:6.75px; font-family:Arial;" text-anchor="middle"><textPath startOffset="22.145653131862435" xlink:href="#id46">October</textPath></text><path d="M 79.01933749520258 99.09900007780938 l -11.753546176045592 -0.504747845195998 a32.76437920587678,32.76437920587678 0 0,0 0.028954990500155767,-0.5617190803151031 l 11.743149596088866 0.7064387188878132" fill="#ff820c" stroke="none" /><path d="M 79.22317932658666 96.9465228501225 l -12.56763835940087 -1.847010048436342 a33.702636736194144,33.702636736194144 0 0,0 0.08903676176809812,-0.571679881214458 l 12.534080105494503 2.06247811158225" fill="#ff8f0d" stroke="none" /><path d="M 79.2786578344484 96.59031103205396 l -10.326524685836997 -1.6992257073509667 a31.46539440688803,31.46539440688803 0 0,0 0.09227628843938232,-0.5322251102489545 l 10.295833579905379 1.876243850520514" fill="#ff700a" stroke="none" /><path d="M 79.34024301695615 96.23510406497455 l -2.696655609866121 -0.49142048244232145 a23.74106650207292,23.74106650207292 0 0,0 0.0765069521605287,-0.4003167024646438 l 2.687822365423433 0.5376397499402797" fill="#ff0000" stroke="none" /><path d="M 80.05021161711548 93.44210830539832 l -10.028752733116093 -3.2966502197155987 a31.556693803134312,31.556693803134312 0 0,0 0.17358372291614393,-0.5131694329953318 l 9.970683588627583 3.468321327185092" fill="#ff710a" stroke="none" /><path d="M 81.1358732173502 90.77261029715801 l -5.019692682264317 -2.455383230903558 a26.58804271950209,26.58804271950209 0 0,0 0.20406966824091455,-0.4082760373331534 l 4.976803100811659 2.5411911244004814" fill="#ff2a04" stroke="none" /><path d="M 81.63589988554816 89.8137432299009 l -10.689070715818511 -5.929047340543998 a33.223331588981,33.223331588981 0 0,0 0.28092167585879096,-0.4963616838473964 l 10.585715674938351 6.1116657944905" fill="#ff880c" stroke="none" /><line stroke="#e1ed5e" stroke-width="0.3" x1="26.387840678322718" x2="22.05771365940052" y1="57.49999999999999" y2="54.99999999999999" /><path d="M 25.521815274538284 56.99999999999999 a86.0,86.0 0 0,1 29.574782752854787,-30.34633250058573" fill="none" id="id47" stroke="none" /><text fill="#e1ed5e" style="font-size:6.75px; font-family:Arial;" text-anchor="middle"><textPath startOffset="21.40746469413373" xlink:href="#id47">November</textPath></text><path d="M 82.78059297857968 87.97951657250589 l -6.598250915233822 -4.606091584823574 a29.046924557131533,29.046924557131533 0 0,0 0.28892685591065465,-0.40641180613979644 l 6.518208960793196 4.71868061767289" fill="#ff4e07" stroke="none" /><path d="M 82.98947788004972 87.6856937992154 l -9.759635036203242 -7.0652231246187895 a33.048562314257,33.048562314257 0 0,0 0.33662003498466136,-0.4566897272062949 l 9.636912981634762 7.231719161093948" fill="#ff860c" stroke="none" /><path d="M 83.2033758604659 87.39550010848427 l -10.14198283752647 -7.610732996904617 a33.6800265231132,33.6800265231132 0 0,0 0.35099081939227744,-0.45945824954115544 l 10.009840040779887 7.783712159686657" fill="#ff8f0d" stroke="none" /><path d="M 83.42222388311158 87.10902102172516 l -12.860890928854522 -10.000706574680622 a37.2916127954464,37.2916127954464 0 0,0 0.3973040779932397,-0.5019807236442246 l 12.68732042021972 10.22000724223953" fill="#ffbf11" stroke="none" /><path d="M 83.64595745247003 86.82634096563983 l -22.487140144348796 -18.114048319157998 a49.875425856260094,49.875425856260094 0 0,0 0.5428184391083869,-0.6621502346686337 l 22.17287488600178 18.497400835525124" fill="#a4ff21" stroke="none" /><path d="M 83.8745106332314 86.54754324733833 l -19.332904404858017 -16.128196453104696 a46.176971890148295,46.176971890148295 0 0,0 0.513016122988131,-0.6043317029193254 l 19.053193718362774 16.457694938473576" fill="#cfff1d" stroke="none" /><path d="M 84.10781606972428 86.27271002978789 l -19.62177768551149 -16.948824227167165 a46.928301182743255,46.928301182743255 0 0,0 0.5318293556529424,-0.6051241801647769 l 19.327937265899955 17.283160685143244" fill="#c6ff1e" stroke="none" /><path d="M 84.34580500576568 86.00192230759919 l -39.95771795708375 -35.73043778874022 a74.60301678928984,74.60301678928984 0 0,0 0.8618506379625999,-0.9473248251307043 l 39.338469618279284 36.41110018942858" fill="#41ffcf" stroke="none" /><path d="M 84.58840730492382 85.73525988315684 l -40.675552581615726 -37.648684218803204 a76.42494024558752,76.42494024558752 0 0,0 0.8994275304167137,-0.9551608686040417 l 40.02326921746274 38.34138654735176" fill="#43ffe2" stroke="none" /><path d="M 84.83555147118756 85.47280134310135 l -18.897594913260388 -18.10346844601212 a47.16972799402855,47.16972799402855 0 0,0 0.5651679118773364,-0.5799120661617004 l 18.584040200232252 18.42520320424155" fill="#c3ff1e" stroke="none" /><path d="M 85.08716467003674 85.21462403516908 l -17.502216042707907 -17.35262535147763 a45.64632169299034,45.64632169299034 0 0,0 0.5564679604643742,-0.5517118526292139 l 17.201756162113558 17.65051721433552" fill="#d6ff1c" stroke="none" /><path d="M 85.34317274990677 84.96080404539775 l -19.385710402686154 -19.891446661030535 a48.77544631658395,48.77544631658395 0 0,0 0.6046471757336566,-0.5792383166803798 l 19.0413907410872 20.221297108016483" fill="#b1ff20" stroke="none" /><path d="M 85.60350026404147 84.71141617570332 l -35.96329441419507 -38.19177239839499 a73.45922248807048,73.45922248807048 0 0,0 0.9254820615603807,-0.8566123795353673 l 35.30238258132073 38.80350252406272" fill="#40ffc2" stroke="none" /><path d="M 85.86807049272753 84.46653392183569 l -17.364450748104655 -19.0865731762129 a46.8035157564678,46.8035157564678 0 0,0 0.5989400738754919,-0.5355759073072329 l 17.034245647405772 19.381844613403537" fill="#c8ff1d" stroke="none" /><path d="M 86.68645165197937 83.75963576809568 l -39.940645044061895 -48.721092695712954 a84.0,84.0 0 0,0 1.1229969185790178,-0.9046068248264043 l 39.09839735512763 49.399547814332756" fill="#4dd2ff" stroke="none" /><path d="M 86.96720088162412 83.53348406188908 l -17.79373424718651 -22.481801945883134 a49.671386384223084,49.671386384223084 0 0,0 0.6731420286252477,-0.5234393129221544 l 17.40518227392602 22.78394231042609" fill="#a6ff21" stroke="none" /><path d="M 87.25179093698888 83.31218511350988 l -17.04444370664786 -22.311723945995407 a49.07714527353863,49.07714527353863 0 0,0 0.6738689596389363,-0.50568383016163 l 16.658921758098174 22.60102680342104" fill="#adff20" stroke="none" /><path d="M 87.54013794807813 83.09580414077388 l -32.56134311734713 -44.175715525694756 a75.879275758821,75.879275758821 0 0,0 1.055151878125999,-0.7638485887706741 l 31.79821022884716 44.72816488583851" fill="#43ffdc" stroke="none" /><path d="M 88.72937992617638 82.28071324371311 l -14.083570972879135 -22.141712788327734 a47.241235042370235,47.241235042370235 0 0,0 0.6880030607730439,-0.42936479440874764 l 13.701403783316392 22.380213379578016" fill="#c3ff1e" stroke="none" /><path d="M 89.03521579738668 82.08984904055464 l -14.162148393845053 -23.13280507457484 a48.123663427855085,48.123663427855085 0 0,0 0.708259428571666,-0.4252894369110151 l 13.762956208715954 23.372508512021778" fill="#b8ff1f" stroke="none" /><line stroke="#e1ed5e" stroke-width="0.3" x1="56.869717070023135" x2="54.33264160355391" y1="26.7553504044142" y2="22.446841604673864" /><path d="M 56.362301976729285 25.89364864446614 a86.0,86.0 0 0,1 42.16139366436587,-11.88097634709845" fill="none" id="id48" stroke="none" /><text fill="#e1ed5e" style="font-size:6.75px; font-family:Arial;" text-anchor="middle"><textPath startOffset="22.145653131862474" xlink:href="#id48">December</textPath></text><path d="M 89.34428304082924 81.90426304109057 l -14.806951577808768 -25.14544088792953 a50.18114138405028,50.18114138405028 0 0,0 0.746044300545843,-0.4307288777475262 l 14.373114809402525 25.39591666295323" fill="#a0ff22" stroke="none" /><path d="M 89.65649057296885 81.72400993836675 l -13.120054167713812 -23.181878575040955 a47.63710411496879,47.63710411496879 0 0,0 0.7151368538884167,-0.3966743577996321 l 12.720173125669294 23.40368584827373" fill="#beff1f" stroke="none" /><path d="M 90.28995756902619 81.37971332152246 l -25.169764384115165 -48.266341964373396 a75.4348859259731,75.4348859259731 0 0,0 1.1533375430462462,-0.5889023673347688 l 24.337499619355334 48.691302283381" fill="#42ffd7" stroke="none" /><path d="M 90.93487009805054 81.0573650232925 l -16.073671305019175 -33.58779097043914 a58.23577059086745,58.23577059086745 0 0,0 0.9054588740146237,-0.42380047233760554 l 15.494723717133029 33.858767674347284" fill="#49ff2c" stroke="none" /><path d="M 91.26138138417902 80.90454125486306 l -11.136115557630161 -24.33442224229927 a47.761486796876625,47.761486796876625 0 0,0 0.7484602459304962,-0.33477674797472246 l 10.716741908844046 24.522002741183837" fill="#bcff1f" stroke="none" /><path d="M 91.5904679813234 80.7573450057729 l -11.455881500930639 -26.213298776624146 a49.607241281114995,49.607241281114995 0 0,0 0.7832391060178656,-0.3343182000828705 l 11.004207319742344 26.406091626366422" fill="#a7ff21" stroke="none" /><path d="M 91.92203290615298 80.6158196554323 l -11.918426608037922 -28.599885108429774 a51.983904225041904,51.983904225041904 0 0,0 0.8266568050407683,-0.336194126024872 l 11.425715341806713 28.800266491033938" fill="#8cff24" stroke="none" /><path d="M 92.25597844496254 80.48000691201159 l -9.541505449207643 -24.050826704683125 a46.874361661999664,46.874361661999664 0 0,0 0.7504981223178187,-0.290308796248458 l 9.127235064396295 24.211075389069624" fill="#c7ff1e" stroke="none" /><path d="M 92.592206182469 80.34994680014964 l -9.99906917212912 -26.523718939953984 a49.34588242963511,49.34588242963511 0 0,0 0.795199139780406,-0.29200813878315157 l 9.542280880694586 26.691457927745855" fill="#aaff21" stroke="none" /><path d="M 92.93061703081487 80.22567764915836 l -12.83098432933223 -35.89054678644174 a59.11516112374881,59.11516112374881 0 0,0 0.9584938641555251,-0.3334139210694005 l 12.2129846931317 36.10551914007973" fill="#40ff2d" stroke="none" /><path d="M 93.61358852112211 79.99465700312896 l -7.83522851166972 -24.54374171680476 a46.764045941802394,46.764045941802394 0 0,0 0.7668398697562733,-0.23756895185897303 l 7.412748009041831 24.674627256470373" fill="#c8ff1d" stroke="none" /><path d="M 94.30408787586887 79.78721728523814 l -7.578720373490603 -26.894204971371817 a48.941640315874835,48.941640315874835 0 0,0 0.8106101319345946,-0.2209353960819135 l 7.115928840621331 27.02034086159787" fill="#afff20" stroke="none" /><path d="M 95.35216902796891 79.52079915486377 l -12.804170874170305 -56.41753939967141 a78.85227345306689,78.85227345306689 0 0,0 1.3226063926284155,-0.2882559074206471 l 11.833802064922772 56.629026765225774" fill="#46fffa" stroke="none" /><path d="M 95.70440661134978 79.44403061299748 l -2.0305349427636448 -9.716844763047764 a30.92673885538211,30.92673885538211 0 0,0 0.5206052798306321,-0.1041356363673357 l 1.863433177402036 9.750269796077966" fill="#ff6909" stroke="none" /><path d="M 96.05791012581881 79.37332000966035 l -4.0957818637945635 -21.43086142404991 a42.818736224919604,42.818736224919604 0 0,0 0.7231580234389957,-0.13178348153180588 l 3.727289106804529 21.498013079513075" fill="#f8ff18" stroke="none" /><path d="M 96.76829788921471 79.25015418208739 l -3.8782352441439407 -24.90105232565099 a46.20125226122164,46.20125226122164 0 0,0 0.7847060367173303,-0.11532476456098631 l 3.4502041018189256 24.963958163510863" fill="#cfff1d" stroke="none" /><path d="M 97.12497278360702 79.19773525538626 l -5.817332182568782 -42.09131777228235 a63.4914154333508,63.4914154333508 0 0,0 1.080932816046097,-0.1399483940660683 l 5.093921544631891 42.18497776254881" fill="#33ff51" stroke="none" /><path d="M 97.84075906011542 79.11130261209362 l -5.299626831722009 -51.269082163006644 a72.54226256571042,72.54226256571042 0 0,0 1.239783319422491,-0.11740876934716789 l 4.418743948914503 51.352502687858994" fill="#3effb9" stroke="none" /><path d="M 98.5590905019552 79.04949213459386 l -3.5979726650054435 -52.31373290272298 a73.4373155063793,73.4373155063793 0 0,0 1.2584206071047295,-0.07570345878938271 l 2.6994077057682304 52.36778833933706" fill="#40ffc2" stroke="none" /><path d="M 98.9189461498227 79.02784411241856 l -2.4367461436040365 -47.2722242039522 a68.3349861408778,68.3349861408778 0 0,0 1.1720238884592458,-0.05033174867885614 l 1.6248964945439706 47.30708852105688" fill="#39ff8a" stroke="none" /><path d="M 99.27912038922189 79.0123766808444 l -1.4659778786772268 -42.680346415516304 a63.70551558392951,63.70551558392951 0 0,0 1.0932676017479492,-0.028158695333863823 l 0.7330969628585337 42.69922282820021" fill="#33ff53" stroke="none" /><path d="M 99.63950707515114 79.00309439819443 l -0.6807942488148472 -39.652851946014515 a60.658695745848306,60.658695745848306 0 0,0 1.0412871736636895,-0.008938198028225219 l 9.713578960702376e-15 39.658695745848306" fill="#31ff2f" stroke="none" /></svg>