<?xml version="1.0" encoding="utf-8" ?>
<svg baseProfile="full" height="200mm" version="1.1" viewBox="0,0,200,200" width="200mm" xmlns="http://www.w3.org/2000/svg" xmlns:ev="http://www.w3.org/2001/xml-events" xmlns:xlink="http://www.w3.org/1999/xlink"><defs /><rect fill="#1a1a1a" height="200" width="200" x="0" y="0" /><text alignment-baseline="middle" fill="#e1ed5e" style="dominant-baseline: central; font-size:9.0px; font-family:Arial;" text-anchor="middle" x="100.0" y="100.0">2021</text><line stroke="#e1ed5e" stroke-width="0.3" x1="100.0" x2="100.0" y1="15.0" y2="10.0" /><path d="M 100.0 14.0 a86.0,86.0 0 0,1 42.46469731375804,11.215312516191453" fill="none" id="id49" stroke="none" /><text fill="#e1ed5e" style="font-size:6.75px; font-family:Arial;" text-anchor="middle"><textPath startOffset="22.20632615414155" xlink:href="#id49">January</textPath></text><path d="M 100.0 79.0 l 0.0 -15.972090587366154 a36.972090587366154,36.972090587366154 0 0,0 0.6364137631061167,0.005477814182050028 l -0.2749332838335884 15.969724149792663" fill="#ffc712" stroke="none" /><path d="M 100.36148047927253 79.00311137660856 l 0.43163500958502404 -25.07187176594521 a46.075586984744746,46.075586984744746 0 0,0 0.7928804716213698,0.020477763356733878 l -0.8631421164012616 25.060727210446117" fill="#c7ff1e" stroke="none" /><path d="M 100.72285384407766 79.0124445844662 l 0.6974364513826916 -20.249579209037023 a41.2615862100375,41.2615862100375 0 0,0 0.70961905380538,0.030557689180191295 l -1.045896337577403 20.23457379333264" fill="#fffd17" stroke="none" /><path d="M 101.08401301168833 79.027996857942 l 0.7003558533710167 -13.549528464219822 a34.56761658966136,34.56761658966136 0 0,0 0.593967045081488,0.03582971421295669 l -0.9334849472921165 13.535465480626563" fill="#ffa80f" stroke="none" /><path d="M 101.44485096284872 79.0497635885617 l 1.4862548425358335 -21.550589728216107 a42.60177935011037,42.60177935011037 0 0,0 0.7311475823047906,0.05675112417258209 l -1.8569926142029651 21.52181334185506" fill="#f1ff19" stroke="none" /><path d="M 101.80526077348638 79.07773832637324 l 1.262978972093364 -14.637429079785484 a35.691815611070666,35.691815611070666 0 0,0 0.6116470289024997,0.05808325541776199 l -1.514751128086108 14.613520279852544" fill="#ffb710" stroke="none" /><path d="M 102.16513564639614 79.11191278185805 l 1.5651980309449318 -15.100205402123843 a36.18110826199471,36.18110826199471 0 0,0 0.6189266091251369,0.06954361606535159 l -1.824891343579794 15.07102583258789" fill="#ffbd11" stroke="none" /><path d="M 102.52436894288641 79.15227682838746 l 1.6496153272308893 -13.623493419482367 a34.72300272092498,34.72300272092498 0 0,0 0.5927469074968377,0.0769555605432425 l -1.883876963235573 13.593079535774988" fill="#ffaa0f" stroke="none" /><path d="M 102.88285421437855 79.19881850522331 l 3.7941838665255396 -27.37686381729308 a48.63853295100183,48.63853295100183 0 0,0 0.8283165776057717,0.12207233184934572 l -4.264869424559967 27.30749700128277" fill="#aaff21" stroke="none" /><path d="M 103.2404852339499 79.25152402106235 l 2.4960397391943387 -15.981872106240294 a37.17561282919009,37.17561282919009 0 0,0 0.6314026352410022,0.10418684488130805 l -2.770771580574216 15.936538998419362" fill="#ffca12" stroke="none" /><path d="M 103.59715602781102 79.31037775812273 l 5.147891898752584 -29.608929360794047 a51.05311113501786,51.05311113501786 0 0,0 0.8645112096422938,0.1579838977455422 l -5.656798229497778 29.515929981697766" fill="#8fff24" stroke="none" /><path d="M 104.307194497241 79.44645832069477 l 3.1516392637678394 -15.03933686010246 a36.366017156067464,36.366017156067464 0 0,0 0.6115677882010883,0.13366503106963837 l -3.4100497761224555 14.982858330936953" fill="#ffbf11" stroke="none" /><path d="M 105.01212808612495 79.60689891045804 l 3.2242802380744657 -13.118793395980617 a34.50920883027804,34.50920883027804 0 0,0 0.5756318624646972,0.14674137872031798 l -3.449620989224188 13.061349021091432" fill="#ffa70f" stroke="none" /><path d="M 105.71112130821622 79.79150937346287 l 8.580251124980565 -30.36074968028675 a52.54989430278273,52.54989430278273 0 0,0 0.8683489228888358,0.25349486228654255 l -9.101590265592828 30.208556489081506" fill="#7fff26" stroke="none" /><path d="M 106.0581310904928 79.89281104454417 l 6.636928985155045 -22.02824323129642 a44.006354039941826,44.006354039941826 0 0,0 0.7234112908694618,0.22476740945886695 l -7.015125648735225 21.91073568695503" fill="#e0ff1b" stroke="none" /><path d="M 106.40334571778207 80.00007090966166 l 4.067027688598257 -12.702775855835199 a34.33796193814537,34.33796193814537 0 0,0 0.5613720086929217,0.1850755251574654 l -4.285082519533596 12.630886606418498" fill="#ffa50f" stroke="none" /><path d="M 107.08798089147638 80.2323363322302 l 7.655165885167487 -21.34948539730842 a43.68043411090973,43.68043411090973 0 0,0 0.7055797746831912,0.2598709856484861 l -8.021527985623255 21.214551143853612" fill="#e4ff1b" stroke="none" /><path d="M 107.76421540070413 80.48803036053334 l 8.13868115857816 -20.453026027211287 a43.0128236414772,43.0128236414772 0 0,0 0.685575518445351,0.279663467749966 l -8.489540546611899 20.30990167327774" fill="#ecff1a" stroke="none" /><path d="M 108.43124777332544 80.76684994638697 l 9.038291403020098 -20.61792269141234 a43.511984532576484,43.511984532576484 0 0,0 0.6833824076114573,0.306613766176213 l -9.391855929098336 20.459288594719595" fill="#e6ff1a" stroke="none" /><path d="M 108.76106565485865 80.91482961587045 l 5.937985367970118 -12.935351354584311 a35.23316496415233,35.23316496415233 0 0,0 0.5490028219593458,0.2577641862340564 l -6.159766401229061 12.831222185710253" fill="#ffb110" stroke="none" /><path d="M 109.08828744355905 81.06846463323043 l 14.304710925300096 -29.797708586523544 a54.05341422098145,54.05341422098145 0 0,0 0.8353279062331151,0.4098917757993232 l -14.815510098543644 29.547061650589388" fill="#6fff27" stroke="none" /><path d="M 109.41281617654863 81.2277094730956 l 6.240831973655286 -12.446297552366318 a34.92330084733638,34.92330084733638 0 0,0 0.5350574184006288,0.27407719144768183 l -6.454149879644671 12.337027835606134" fill="#ffad10" stroke="none" /><path d="M 109.73455568895987 81.39251694778311 l 6.3580100114265825 -12.153257664098533 a34.715901835292144,34.715901835292144 0 0,0 0.5271112983057045,0.2815646005346214 l -6.566266356260598 12.042014337062158" fill="#ffaa0f" stroke="none" /><path d="M 110.36928655335952 81.73862282372117 l 9.987517265673374 -17.58904230339432 a41.22683638839052,41.22683638839052 0 0,0 0.6140899586859931,0.35572054083509463 l -10.288803956824696 17.414517605169177" fill="#fffd17" stroke="none" /><line stroke="#e1ed5e" stroke-width="0.3" x1="143.23703022742887" x2="145.7803849466894" y1="26.81831364943548" y2="22.513508569990506" /><path d="M 143.74570117128098 25.957352633546492 a86.0,86.0 0 0,1 28.547481713284135,27.462654790039103" fill="none" id="id50" stroke="none" /><text fill="#e1ed5e" style="font-size:6.75px; font-family:Arial;" text-anchor="middle"><textPath startOffset="19.985693538727396" xlink:href="#id50">February</textPath></text><path d="M 110.99172775467656 82.1063720568725 l 2.0197185422032233 -3.2879355230249505 a24.8587281574748,24.8587281574748 0 0,0 0.3626780097064103,0.22710893640600957 l -2.0760157042818967 3.252682245295997" fill="#ff2203" stroke="none" /><path d="M 111.2981086023043 82.29822771554956 l 4.1225407778405385 -6.459158842552691 a28.66264154311584,28.66264154311584 0 0,0 0.4136059769375925,0.26902083259894943 l -4.233113780562411 6.387239085794214" fill="#ff5808" stroke="none" /><path d="M 111.60114157652 82.49532879139004 l 26.470452033652176 -39.940600374205175 a68.91593043151556,68.91593043151556 0 0,0 0.9831852018041622,0.6638510371023414 l -27.154041929862878 39.47903742480416" fill="#3aff94" stroke="none" /><path d="M 111.90073688211348 82.69761687909136 l 7.584399297001687 -11.026895534166982 a34.383405314709385,34.383405314709385 0 0,0 0.48475502994092606,0.33960187712675144 l -7.773085466526264 10.894708814276296" fill="#ffa60f" stroke="none" /><path d="M 112.19680574252982 82.90503203632743 l 2.336205126979631 -3.2744107469896244 a25.02238985372217,25.02238985372217 0 0,0 0.3484721480353564,0.25317983537306465 l -2.392222591368776 3.233711676799885" fill="#ff2503" stroke="none" /><path d="M 112.48926042617603 83.11751280151076 l 12.782646177194273 -17.279074427577974 a42.4933118984748,42.4933118984748 0 0,0 0.584290821439489,0.44007573308914555 l -13.078183152392144 17.05648210498298" fill="#f2ff19" stroke="none" /><path d="M 112.77801427241765 83.33499621200491 l 32.2590760009638 -42.07207882947277 a74.01610888653872,74.01610888653872 0 0,0 1.0043895917351582,0.7839420077130086 l -32.97849814785839 41.510558432536534" fill="#40ffcb" stroke="none" /><path d="M 113.06298171725822 83.55741782278167 l 8.304332157652432 -10.452794536849135 a34.3500129668178,34.3500129668178 0 0,0 0.4597939002018164,0.3717880241074176 l -8.48302945641874 10.308300415477587" fill="#ffa50f" stroke="none" /><path d="M 113.34407831869373 83.78471172551755 l 9.836465028207574 -11.952951131199953 a36.47995752565248,36.47995752565248 0 0,0 0.48143548953743387,0.40318837714412237 l -10.040758054704124 11.781861596662011" fill="#ffc111" stroke="none" /><path d="M 113.6212207817346 84.01681056812373 l 23.613189906183944 -27.707801922387194 a57.40473904474184,57.40473904474184 0 0,0 0.7465519152468201,0.647402464257309 l -24.08663562007753 27.297234464710215" fill="#4cff2c" stroke="none" /><path d="M 113.89432698308785 84.25364557470407 l 8.935110094276983 -10.126104743668336 a34.50459883434502,34.50459883434502 0 0,0 0.44196942684985807,0.39680451526247934 l -9.10809050872283 9.97080121963656" fill="#ffa70f" stroke="none" /><path d="M 114.16331599549186 84.49514656593476 l 28.170172301663182 -30.838427447970233 a62.76801665113051,62.76801665113051 0 0,0 0.7914512361453876,0.73556766852542 l -28.696831421603417 30.348955193370173" fill="#32ff4d" stroke="none" /><path d="M 114.42810811169701 84.74124197986012 l 7.6244844673008725 -8.063438575189288 a32.09737829615459,32.09737829615459 0 0,0 0.3981859467742552,0.3830545653145213 l -7.762153657687546 7.931000923112464" fill="#ff870c" stroke="none" /><path d="M 115.19652480421416 85.50635884689758 l 43.42431477787492 -41.41581340592741 a81.00783877130189,81.00783877130189 0 0,0 0.9537040438482824,1.0173449788859033 l -44.13078614369366 40.662199010163455" fill="#49eeff" stroke="none" /><path d="M 115.68641384162765 86.03803664274999 l 10.810941202492636 -9.622464793452403 a35.473018979638766,35.473018979638766 0 0,0 0.40204129241006875,0.4596026970893948 l -10.974974358480553 9.43494654016006" fill="#ffb410" stroke="none" /><path d="M 116.15771136456269 86.58626213691792 l 4.099337183099549 -3.403169740182498 a26.327863513758246,26.327863513758246 0 0,0 0.2864741196809646,0.35118339764766543 l -4.157309794856922 3.332102172926732" fill="#ff3705" stroke="none" /><path d="M 116.60985879189232 87.15038557335679 l 4.16311591435759 -3.220643533648171 a26.263466432609523,26.263466432609523 0 0,0 0.27354533342514636,0.35995359416392675 l -4.21793718800685 3.1485051636032106" fill="#ff3605" stroke="none" /><path d="M 116.82858285166822 87.43820079747576 l 4.181762144239126 -3.121502079626498 a26.218324430706083,26.218324430706083 0 0,0 0.26684934133758487,0.36398220169314416 l -4.234874098090337 3.0490574342618597" fill="#ff3605" stroke="none" /><path d="M 117.04232023915458 87.72973835380427 l 2.578069780819063 -1.8561786369981772 a24.176766111507245,24.176766111507245 0 0,0 0.24025647530593866,0.33982574589491893 l -2.6096388759288844 1.811526390771465" fill="#ff1802" stroke="none" /><path d="M 117.2510076193507 88.02491185347247 l 14.507002717658185 -10.070289232902782 a38.6596674114905,38.6596674114905 0 0,0 0.3747696404934874,0.5499282032794806 l -14.678196823820405 9.819083006352896" fill="#ffdd14" stroke="none" /><path d="M 117.45458315368197 88.32363383020206 l 5.331988223564759 -3.5668710254051215 a27.415034475987472,27.415034475987472 0 0,0 0.2590111943721144,0.39449181876536704 l -5.392596053294798 3.4745611426620804" fill="#ff4706" stroke="none" /><path d="M 117.65298651832404 88.62581576622439 l 9.718228924717168 -6.261655845088948 a32.56080911335993,32.56080911335993 0 0,0 0.29951665545734907,0.4737634198531352 l -9.824573176420474 6.093444777521607" fill="#ff8d0d" stroke="none" /><line stroke="#e1ed5e" stroke-width="0.3" x1="172.23445277983987" x2="176.4835382374775" y1="55.19839476539836" y2="52.563006222186495" /><path d="M 173.08426987136738 54.67131705675599 a86.0,86.0 0 0,1 12.851231095245387,41.99856678651699" fill="none" id="id51" stroke="none" /><text fill="#e1ed5e" style="font-size:6.75px; font-family:Arial;" text-anchor="middle"><textPath startOffset="22.20632615414155" xlink:href="#id51">March</textPath></text><path d="M 118.03404312379186 89.2402003453031 l 11.333624451652113 -6.762073686098068 a34.19760143917472,34.19760143917472 0 0,0 0.29725910947814077,0.5081121760542177 l -11.448343235600582 6.565982097689955" fill="#ffa30f" stroke="none" /><path d="M 118.21658344932153 89.55222093294921 l 15.268887388120298 -8.757183391416934 a38.60190850510273,38.60190850510273 0 0,0 0.3256206249146471,0.579242757997438 l -15.417365654327378 8.493057123484702" fill="#ffdc14" stroke="none" /><path d="M 118.3937258080291 89.86733742301442 l 12.486980507729205 -6.878778199193652 a35.25630638398709,35.25630638398709 0 0,0 0.2882486789334722,0.5340810246763585 l -12.603537285881142 6.6628161911848345" fill="#ffb110" stroke="none" /><path d="M 118.56541770881063 90.18545643968196 l 11.837294531493518 -6.2577446216318116 a34.38958212846421,34.38958212846421 0 0,0 0.27215353082458094,0.5257139968240554 l -11.943257495478216 6.053057902547411" fill="#ffa60f" stroke="none" /><path d="M 118.73160827565052 90.50648371742162 l 5.832556578613159 -2.9560446723681433 a27.538877300252675,27.538877300252675 0 0,0 0.2106592806090606,0.42467625510432166 l -5.882575872175628 2.8552088287648716" fill="#ff4806" stroke="none" /><path d="M 118.89224826269711 90.83032412892265 l 5.893947108398216 -2.8607280527854697 a27.55151719135266,27.55151719135266 0 0,0 0.20341128513082005,0.42843604283077374 l -5.942316587370791 2.7588495943141558" fill="#ff4906" stroke="none" /><path d="M 119.196687751892 91.48605970444005 l 11.931529903138195 -5.29176358666326 a34.05236253276073,34.05236253276073 0 0,0 0.23303051656013044,0.5378665609982787 l -12.020851129541006 5.085597881078378" fill="#ffa10e" stroke="none" /><path d="M 119.34039704204932 91.81776055985345 l 21.197789333531176 -8.968036568827243 a44.01677545896885,44.01677545896885 0 0,0 0.2892076393589308,0.7003392384518321 l -21.349018659776306 8.601822759922106" fill="#e0ff1b" stroke="none" /><path d="M 119.47837535516314 92.15188598940014 l 12.30902980720157 -4.959482889376775 a34.27059476152436,34.27059476152436 0 0,0 0.21575207985066325,0.5490655100156281 l -12.392575436933933 4.746868374465363" fill="#ffa40f" stroke="none" /><path d="M 119.61058180528143 92.48833698450437 l 20.869751114190795 -7.993976881646938 a43.34838199853792,43.34838199853792 0 0,0 0.26090650383304476,0.6990997157199497 l -21.004262206525464 7.633554028897654" fill="#e8ff1a" stroke="none" /><path d="M 119.7369772167798 92.82701384747503 l 6.175641826849899 -2.244406163132601 a27.57083792211051,27.57083792211051 0 0,0 0.1582656938572616,0.4474384288220175 l -6.21336060151697 2.137770107883969" fill="#ff4906" stroke="none" /><path d="M 119.85752413597 93.16781622104841 l 18.790155710063658 -6.4649447819996535 a40.8712219715533,40.8712219715533 0 0,0 0.22316213895776155,0.6672263908705219 l -18.898655142793192 6.140545288206817" fill="#fff817" stroke="none" /><path d="M 120.08093135843002 93.85539295169968 l 13.215496547311648 -4.043837996453786 a34.82034640425375,34.82034640425375 0 0,0 0.17044410813738223,0.5746528003343088 l -13.283146552560734 3.815755809372947" fill="#ffab0f" stroke="none" /><path d="M 120.18372546131832 94.20196356495316 l 12.648831449503476 -3.633540584246403 a34.160378194235676,34.160378194235676 0 0,0 0.1574845967456355,0.566555885523143 l -12.709502816815474 3.415273395304308" fill="#ffa30f" stroke="none" /><path d="M 120.28053869075195 94.5502522615342 l 12.672038660268038 -3.405206098496703 a34.12158497974109,34.12158497974109 0 0,0 0.14754119421712736,0.5685364071595268 l -12.728776186355468 3.1865732657883257" fill="#ffa20f" stroke="none" /><path d="M 120.37134235888165 94.90015583598534 l 6.620991855740919 -1.6575258557159969 a27.82531501955438,27.82531501955438 0 0,0 0.11231781124134224,0.46562983960003573 l -6.648542467243081 1.543310784456555" fill="#ff4c07" stroke="none" /><path d="M 120.45610955862082 95.25157060432595 l 61.36832867586249 -14.245288187022162 a84.0,84.0 0 0,0 0.31482245199184966,1.4112873218001445 l -61.60444551485638 13.186822695672053" fill="#4dd2ff" stroke="none" /><path d="M 120.53481517161879 95.60439243477599 l 17.277153864411428 -3.69828447917603 a38.668541358682134,38.668541358682134 0 0,0 0.13372079520988375,0.652070087417204 l -17.33825395553631 3.4003387355954144" fill="#ffdd14" stroke="none" /><path d="M 120.6074358757038 95.95851677861258 l 4.1486713310003545 -0.8136279387896608 a25.227702004096713,25.227702004096713 0 0,0 0.0799048731533469,0.42685502749034293 l -4.162061928063561 0.742094833836755" fill="#ff2703" stroke="none" /><path d="M 120.67395015179393 96.31383870115 l 17.692743601340272 -3.1546127496141403 a38.971776699669824,38.971776699669824 0 0,0 0.1120682403877432,0.6614330985878104 l -17.744423703248238 2.8495938627104924" fill="#ffe115" stroke="none" /><path d="M 120.73433829027371 96.67025291283417 l 16.9624191245401 -2.724011004379044 a38.17975257413627,38.17975257413627 0 0,0 0.09862031271869583,0.649784640887952 l -17.006795330698097 2.4316272510990102" fill="#ffd714" stroke="none" /><path d="M 120.78858239683441 97.02765380044208 l 13.18795040840424 -1.8856097798350897 a34.32207041778189,34.32207041778189 0 0,0 0.0785877364907446,0.5855699187169635 l -13.21845414395282 1.658321519053462" fill="#ffa50f" stroke="none" /><path d="M 120.83666639777658 97.38593545837742 l 27.298581992969154 -3.424744335879558 a48.512568992971175,48.512568992971175 0 0,0 0.0968164114944981,0.8294638888987569 l -27.353488757467243 2.954336708655948" fill="#acff21" stroke="none" /><path d="M 120.87857604477298 97.74499172005257 l 42.193503595849656 -4.557145073715545 a63.438889204547614,63.438889204547614 0 0,0 0.10791521266252736,1.0866914643717163 l -42.26569593419441 3.830178078639394" fill="#33ff55" stroke="none" /><path d="M 120.91429891909075 98.10471618934814 l 13.219806737869458 -1.1979978763409436 a34.2739778927922,34.2739778927922 0 0,0 0.04818842327828169,0.5880208207953159 l -13.238469644967234 0.9702631383378588" fill="#ffa40f" stroke="none" /><path d="M 120.94382443527127 98.46500227214037 l 26.95716796864535 -1.975722805989285 a48.02947253454764,48.02947253454764 0 0,0 0.0533342339940623,0.8250569935974218 l -26.987182793643825 1.511406748138828" fill="#b1ff20" stroke="none" /><path d="M 120.96714384426684 98.82574320788733 l 13.93746240918154 -0.780562198664531 a34.95930283908665,34.95930283908665 0 0,0 0.02847750144044072,0.6011150464474867 l -13.948833518855476 0.5405360455940446" fill="#ffad10" stroke="none" /><path d="M 120.98425023603335 99.18683210126433 l 17.81004930325335 -0.6901633465767711 a38.823416665422855,38.823416665422855 0 0,0 0.02012958204423455,0.6680028295321464 l -17.81929057975323 0.3834903696196257" fill="#ffdf14" stroke="none" /><line stroke="#e1ed5e" stroke-width="0.3" x1="184.98032266829074" x2="189.97916517819016" y1="98.17113171792111" y2="98.06355123074" /><path d="M 185.9800911702706 98.14961562048488 a86.0,86.0 0 0,1 -9.607161424134198,41.387399972396054" fill="none" id="id52" stroke="none" /><text fill="#e1ed5e" style="font-size:6.75px; font-family:Arial;" text-anchor="middle"><textPath startOffset="21.466115282336823" xlink:href="#id52">April</textPath></text><path d="M 120.99513854157772 99.54816195383933 l 17.398638109933906 -0.37443747436487784 a38.40266679284107,38.40266679284107 0 0,0 0.008534522503949076,0.6610081733046448 l -17.40250563955557 0.0748930429997703" fill="#ffd914" stroke="none" /><path d="M 120.99980553446 99.90962569577887 l 13.00667862752423 -0.055975257926147846 a34.006799073914976,34.006799073914976 0 0,0 -0.002519260452124569,0.585387406754856 l -13.005715069782603 -0.16792162703239288" fill="#ffa10e" stroke="none" /><path d="M 120.99824983174949 100.27111621757518 l 4.27209587721764 0.055158619629266964 a25.272451949110646,25.272451949110646 0 0,0 -0.009360359383635417,0.4349391197315976 l -4.270513455148997 -0.1286875551509794" fill="#ff2803" stroke="none" /><path d="M 120.9904718944345 100.63252640178507 l 4.04522864460532 0.12189882780332005 a25.047064876099125,25.047064876099125 0 0,0 -0.0166954993620443,0.4308366537506341 l -4.042531012392073 -0.1915127285679603" fill="#ff2503" stroke="none" /><path d="M 120.95626037817324 101.35467743843564 l 6.204573415998789 0.4010828015157444 a27.217523517300968,27.217523517300968 0 0,0 -0.03424669695054342,0.4672689707627577 l -6.196750160383908 -0.5078249087752723" fill="#ff4406" stroke="none" /><path d="M 120.89721153311464 102.0752229133903 l 5.139607117554666 0.5103949127026718 a26.164887635731425,26.164887635731425 0 0,0 -0.048364796166794184,0.4477979454168104 l -5.13006001988682 -0.5987891800042735" fill="#ff3505" stroke="none" /><path d="M 120.8583938346157 102.4346265915055 l 5.2760738190858225 0.6158321546971132 a26.311892712320322,26.311892712320322 0 0,0 -0.05638073623396525,0.4494099412859134 l -5.26469157360501 -0.7065598502704215" fill="#ff3705" stroke="none" /><path d="M 120.76222939487914 103.15116336523771 l 6.20473567647878 0.9417165846132933 a27.275792773881584,27.275792773881584 0 0,0 -0.0744476471525685,0.4635855698848728 l -6.1876062749649225 -1.048381384191371" fill="#ff4506" stroke="none" /><path d="M 120.70491114924044 103.5080841355445 l 5.522537518163174 0.9356971452702053 a26.601245378233905,26.601245378233905 0 0,0 -0.08037826940272166,0.45080402082181353 l -5.505612806421264 -1.0306199168252372" fill="#ff3b05" stroke="none" /><path d="M 120.32669344350535 105.2749913415812 l 7.854671115729165 2.038370000590423 a29.114851236811248,29.114851236811248 0 0,0 -0.13006286674039283,0.48401231171504333 l -7.818420172646994 -2.173273245481014" fill="#ff5e08" stroke="none" /><path d="M 120.13307415673323 105.97154293290107 l 38.577656826573325 11.442273156956684 a61.2388024328169,61.2388024328169 0 0,0 -0.3084488467227779,1.0080286778208698 l -38.37498120734442 -12.104628807329611" fill="#30ff3b" stroke="none" /><path d="M 120.02730092923936 106.31721596034902 l 5.0266315590485915 1.5855515041098387 a26.270768293390276,26.270768293390276 0 0,0 -0.13974516143468468,0.43009138274743025 l -4.998594146597659 -1.6718417868350641" fill="#ff3605" stroke="none" /><path d="M 119.9155931802556 106.66101706037122 l 3.1620213455205857 1.0575772429742047 a24.334193847751617,24.334193847751617 0 0,0 -0.13628211038573396,0.3960996050227577 l -3.143348404191621 -1.1118495510862627" fill="#ff1b02" stroke="none" /><path d="M 119.79798401119884 107.00284435728193 l 1.615275554496823 0.5713472288827531 a22.713345491401842,22.713345491401842 0 0,0 -0.13354986283783066,0.367471865145935 l -1.6052014306537656 -0.5990668910348192" fill="#ff0300" stroke="none" /><path d="M 119.67450827220406 107.3425965602758 l 5.895085002955411 2.200066719145745 a27.292242903827102,27.292242903827102 0 0,0 -0.1680496728661127,0.4387246672665426 l -5.856341050495791 -2.3012149532454313" fill="#ff4506" stroke="none" /><path d="M 119.54520255179757 107.68017299344265 l 24.566027898302643 9.653076938992916 a47.39453771313869,47.39453771313869 0 0,0 -0.3048989592154504,0.756734212191096 l -24.396226324829797 -10.074510519026825" fill="#b8ff1f" stroke="none" /><path d="M 119.41010516605496 108.01547362559984 l 11.377809510750883 4.6985078787730465 a33.309773578333015,33.309773578333015 0 0,0 -0.22341185358164561,0.5280796270723436 l -11.295246675976927 -4.893662031511554" fill="#ff970e" stroke="none" /><path d="M 119.26925614724726 108.34839909993367 l 49.50567697712552 21.448318812061835 a74.95222361337242,74.95222361337242 0 0,0 -0.5230912661788065,1.179432713171951 l -49.12914462621544 -22.297299861726472" fill="#42ffd4" stroke="none" /><path d="M 119.12269723197855 108.67885076344098 l 37.86676405765041 17.185859827409708 a62.58419890060574,62.58419890060574 0 0,0 -0.45366207892461496,0.9771477583304236 l -37.56532736188596 -17.83512765301896" fill="#32ff4b" stroke="none" /><path d="M 118.97047184881838 109.00673069616215 l 1.3710414637142632 0.6509380122622257 a22.517720327014054,22.517720327014054 0 0,0 -0.16925470581332472,0.3487148255633419 l -1.359633501286224 -0.674441793790843" fill="#ff0000" stroke="none" /><path d="M 118.81262510543309 109.33194174019688 l 23.556715551691223 11.685232437618998 a47.29569365322912,47.29569365322912 0 0,0 -0.3680535795329436,0.7262046296706354 l -23.352083302372012 -12.088991278992328" fill="#b9ff1f" stroke="none" /><line stroke="#e1ed5e" stroke-width="0.3" x1="174.80103733775053" x2="179.2010983576182" y1="140.37084112569926" y2="142.7455964860345" /><path d="M 175.68104954172406 140.8457921977663 a86.0,86.0 0 0,1 -30.038265399797805,32.042727171017184" fill="none" id="id53" stroke="none" /><text fill="#e1ed5e" style="font-size:6.75px; font-family:Arial;" text-anchor="middle"><textPath startOffset="22.206326154141568" xlink:href="#id53">May</textPath></text><path d="M 118.30583269289576 110.29060199501025 l 34.318844155811405 19.292297272731854 a60.36973200633105,60.36973200633105 0 0,0 -0.5170178949597354,0.901464279430357 l -33.981674264699286 -19.880181398020525" fill="#2fff30" stroke="none" /><path d="M 118.12598468904814 110.60418214915192 l 29.57478917963455 17.302036654212877 a55.264101146879,55.264101146879 0 0,0 -0.48742706760712023,0.8169558020620794 l -29.272581236329202 -17.808554550161062" fill="#62ff29" stroke="none" /><path d="M 117.94076556474637 110.91462005526583 l 4.830722164816001 2.938865503327436 a26.654450201415926,26.654450201415926 0 0,0 -0.24183882255138678,0.38992118511031415 l -4.779418702596651 -3.0215830198030234" fill="#ff3c05" stroke="none" /><path d="M 117.75023020441432 111.22182372390056 l 10.832899951419504 6.848637582359262 a33.816222457961956,33.816222457961956 0 0,0 -0.31528818553470095,0.48933426558217674 l -10.713406902507753 -7.034093447862892" fill="#ff9e0e" stroke="none" /><path d="M 117.35343817320211 111.8261652097733 l 29.686822303574814 20.231222286394665 a56.92505774087968,56.92505774087968 0 0,0 -0.5587847505927597,0.8049711093648886 l -29.334176645819916 -20.73923465794657" fill="#51ff2b" stroke="none" /><path d="M 116.93607887273984 112.41649034213515 l 6.325064213396527 4.637147672087898 a28.84280407994103,28.84280407994103 0 0,0 -0.29699673424800377,0.3978756600378618 l -6.244306212453432 -4.745336211635075" fill="#ff5b08" stroke="none" /><path d="M 116.71984013943494 112.70617746262583 l 14.629866084374859 11.117909810876945 a39.37500748869332,39.37500748869332 0 0,0 -0.41473729659459363,0.5361038629987092 l -14.436321970562197 -11.368091667988907" fill="#ffe615" stroke="none" /><path d="M 116.498646956653 112.99209946851258 l 10.503065855382035 8.270791942877226 a34.36863462455515,34.36863462455515 0 0,0 -0.37000631789253663,0.4616397726431347 l -10.359141625434646 -8.45035954909861" fill="#ffa50f" stroke="none" /><path d="M 116.27256486870786 113.27417163493432 l 32.98100956748834 26.903907603043713 a63.562509752173575,63.562509752173575 0 0,0 -0.6988970361229779,0.8418665027220601 l -32.51301653147182 -27.467635362879545" fill="#33ff56" stroke="none" /><path d="M 116.0416608686014 113.55231037782055 l 10.09582599288358 8.529152217887242 a34.216358803939706,34.216358803939706 0 0,0 -0.3839686308267724,0.4466422634031401 l -9.947514852486027 -8.70167158045191" fill="#ffa30f" stroke="none" /><path d="M 115.56566222782051 114.09645910891815 l 3.6249111408876082 3.2827650326149196 a25.890452641493457,25.890452641493457 0 0,0 -0.30199806538811763,0.32775925463650013 l -3.5678666675037687 -3.3446755420527543" fill="#ff3104" stroke="none" /><path d="M 115.07121518719521 114.62390073753431 l 9.58975699342313 9.305132507698895 a34.3622202563325,34.3622202563325 0 0,0 -0.41555276085724835,0.42095275280341415 l -9.428163607510346 -9.468825754482975" fill="#ffa50f" stroke="none" /><path d="M 114.81725581225074 114.88116024355365 l 9.181099418730955 9.220696017758721 a34.01206446297179,34.01206446297179 0 0,0 -0.4184294511336343,0.40952128565967927 l -9.021020015221527 -9.377367406340971" fill="#ffa10e" stroke="none" /><path d="M 114.55890576462653 115.13401014063108 l 11.826755068257656 12.293934312608195 a38.0591018616832,38.0591018616832 0 0,0 -0.47603629687306087,0.45012203138099643 l -11.613382936993787 -12.495690980735114" fill="#ffd513" stroke="none" /><path d="M 114.29624159901734 115.38237550388516 l 13.469267606972997 14.492573496170948 a40.785243400326635,40.785243400326635 0 0,0 -0.5183618970786091,0.4735113027393554 l -13.217806160427523 -14.722277565496887" fill="#fff717" stroke="none" /><path d="M 114.0293411484842 115.62618273729858 l 1.533027413468028 1.707518995411116 a23.29473182967733,23.29473182967733 0 0,0 -0.3006769142583027,0.265312417727585 l -1.5034081463031375 -1.73365455491099" fill="#ff0b01" stroke="none" /><path d="M 113.48314897796784 116.09983520530334 l 5.183276078077784 6.189198889443761 a29.07295074893098,29.07295074893098 0 0,0 -0.3864347145416967,0.31800946172639516 l -5.075971234991396 -6.277503470027335" fill="#ff5e08" stroke="none" /><path d="M 113.20401910651253 116.32954008644616 l 8.466671464945302 10.470815739535144 a34.46560462610632,34.46560462610632 0 0,0 -0.4645348165897903,0.36905455303425483 l -8.285179155638161 -10.615004206574524" fill="#ffa70f" stroke="none" /><path d="M 112.92097659922987 116.55440617244103 l 8.060211647003406 10.326774947358636 a34.09997300027307,34.09997300027307 0 0,0 -0.46582393394885085,0.3571739288004251 l -7.881258984561063 -10.463988217986433" fill="#ffa20f" stroke="none" /><path d="M 112.63410532772338 116.77436683061366 l 7.860641725326037 10.436614576523173 a34.06570366083789,34.06570366083789 0 0,0 -0.4714288322431822,0.34875177982187505 l -7.67982792266429 -10.570376305084816" fill="#ffa10e" stroke="none" /><path d="M 112.34349029814194 116.9893568818739 l 9.304792177757225 12.806947727206637 a36.83025797511384,36.83025797511384 0 0,0 -0.5161018300167466,0.3682249523634693 l -9.082963019891594 -12.965216941414326" fill="#ffc512" stroke="none" /><path d="M 112.04921762599082 117.19931262002967 l 9.313858796738096 13.294802543724423 a37.23267508336802,37.23267508336802 0 0,0 -0.5280712352692515,0.3632122108287953 l -9.083630676845962 -13.453155543918312" fill="#ffcb12" stroke="none" /><path d="M 111.45004920935366 117.60387380957326 l 2.7563453220527605 4.237742068862545 a26.055284104440574,26.055284104440574 0 0,0 -0.37807234378382804,0.24130365767666948 l -2.682991176222002 -4.284560155363023" fill="#ff3304" stroke="none" /><path d="M 111.1453310114006 117.79835938074945 l 22.736664516979072 36.30895536245481 a63.84035659130758,63.84035659130758 0 0,0 -0.9363884625648223,0.5752062737554459 l -22.108296854481942 -36.694950103038636" fill="#34ff5a" stroke="none" /><line stroke="#e1ed5e" stroke-width="0.3" x1="143.8653032363475" x2="146.44561519142675" y1="172.8068346515853" y2="177.08958963109032" /><path d="M 144.38136562736335 173.6633856474863 a86.0,86.0 0 0,1 -40.68145358897372,12.25698825130547" fill="none" id="id54" stroke="none" /><text fill="#e1ed5e" style="font-size:6.75px; font-family:Arial;" text-anchor="middle"><textPath startOffset="21.466115282336833" xlink:href="#id54">June</textPath></text><path d="M 110.8373102113329 117.98757091392108 l 10.352339907373862 17.18262600014654 a41.060248697828186,41.060248697828186 0 0,0 -0.6085366008728175,0.3595341501204933 l -10.055035435472663 -17.358278722560787" fill="#fffb17" stroke="none" /><path d="M 110.5260780823613 118.17145234162733 l 16.98348684178887 29.319051153284853 a54.88282139719403,54.88282139719403 0 0,0 -0.8215467895738829,0.4664957081741886 l -16.476291285293787 -29.60705002725367" fill="#66ff29" stroke="none" /><path d="M 110.21172684928248 118.3499491758327 l 6.457916404881307 11.604544418427583 a34.28044183947559,34.28044183947559 0 0,0 -0.5180871542339567,0.2825024248631781 l -6.257206438778702 -11.713987495050532" fill="#ffa40f" stroke="none" /><path d="M 109.2508944713604 118.85261126421891 l 4.973054407223173 10.134702306403229 a32.289085922988484,32.289085922988484 0 0,0 -0.5010763840073315,0.24054711468522877 l -4.797865355215609 -10.218803697588017" fill="#ff8a0c" stroke="none" /><path d="M 108.92500713936063 119.00905698771935 l 5.516918604832637 11.750289777738544 a33.98097456869766,33.98097456869766 0 0,0 -0.5316113181347901,0.24403668226707656 l -5.313839290930427 -11.843513530339695" fill="#ffa00e" stroke="none" /><path d="M 108.2653958097858 119.30500536409082 l 5.547580569917716 12.95716201917291 a35.09481102288447,35.09481102288447 0 0,0 -0.5573867190321462,0.23298769376083855 l -5.323722391388109 -13.050734755953723" fill="#ffaf10" stroke="none" /><path d="M 107.93186726928326 119.44442032107085 l 4.9447697452427075 12.121758730098081 a34.09151567024142,34.09151567024142 0 0,0 -0.5452676952105973,0.21697326896703412 l -4.735380973990244 -12.205078843471183" fill="#ffa20e" stroke="none" /><path d="M 107.2578585660854 119.70592522655815 l 2.0645986446685454 5.605624047953224 a26.97374158551897,26.97374158551897 0 0,0 -0.43707793515144705,0.15672059705723115 l -1.9678011488873632 -5.640332186050415" fill="#ff4006" stroke="none" /><path d="M 106.57524785965236 119.94407469862006 l 3.991345319232882 12.106568587815456 a33.747542525084675,33.747542525084675 0 0,0 -0.5532646927153544,0.1771378830843134 l -3.7823592814265874 -12.173479317559476" fill="#ff9d0e" stroke="none" /><path d="M 106.2309692047433 120.05430185196036 l 3.9033383940027715 12.562849183091503 a34.155273855575906,34.155273855575906 0 0,0 -0.5629521445838863,0.16961286319626642 l -3.6865112749786393 -12.628177415393495" fill="#ffa30f" stroke="none" /><path d="M 105.88484417918355 120.15858648285463 l 4.7366511495482255 16.225440968349982 a37.90268613948465,37.90268613948465 0 0,0 -0.627864912049537,0.1774408957182917 l -4.456655069394083 -16.304570657406792" fill="#ffd313" stroke="none" /><path d="M 105.18746579009965 120.34920634021253 l 3.2052146913441852 12.573302216917453 a33.97541251196084,33.97541251196084 0 0,0 -0.5679503315151552,0.13958837332351162 l -2.988311075085819 -12.626611848554994" fill="#ffa00e" stroke="none" /><path d="M 104.48393922423573 120.51570834832081 l 3.729017441200832 17.061657266890716 a38.464412952333234,38.464412952333234 0 0,0 -0.6480494158877107,0.13580505596571782 l -3.4347765638837435 -17.123318303582977" fill="#ffda14" stroke="none" /><path d="M 104.13013068566511 120.58985236759428 l 2.576284563915673 12.843496456914998 a34.099337517334924,34.099337517334924 0 0,0 -0.5764937685859045,0.11048640281622188 l -2.354823180758064 -12.885940058079688" fill="#ffa20f" stroke="none" /><path d="M 103.7750983002368 120.6578951692458 l 2.987681514418344 16.349034280796367 a37.61978227132509,37.61978227132509 0 0,0 -0.6380154356633321,0.11092716161765241 l -2.705817107282962 -16.398040020935024" fill="#ffd013" stroke="none" /><path d="M 103.41894727170886 120.7198165907248 l 2.6985685468059413 16.35411163254675 a37.57525986196329,37.57525986196329 0 0,0 -0.6390731065849365,0.09981007604631757 l -2.4166595766124876 -16.398140015940175" fill="#ffcf13" stroke="none" /><path d="M 102.70371172650421 120.8252237178851 l 1.6684217991746002 12.85094741536356 a33.95879935690033,33.95879935690033 0 0,0 -0.5803277064424738,0.07026960338933318 l -1.4469666696807462 -12.877762547478245" fill="#ffa00e" stroke="none" /><path d="M 101.98527174616119 120.90594882070398 l 1.2530147793878084 13.194900345567257 a34.25426124560759,34.25426124560759 0 0,0 -0.5874698490081557,0.05068937051663134 l -1.025700612638111 -13.214513968362553" fill="#ffa40f" stroke="none" /><path d="M 101.62511606390274 120.93702456842531 l 1.318443810263118 16.98604244996213 a38.03713391955163,38.03713391955163 0 0,0 -0.6532193792680573,0.045049832877857715 l -1.0258616702161303 -17.006220627356274" fill="#ffd513" stroke="none" /><path d="M 101.26447882468166 120.96189622390904 l 1.5168639983040475 25.14581114178643 a46.191520286948574,46.191520286948574 0 0,0 -0.794080474367107,0.04104489021438723 l -1.0837954555234608 -25.168195838763022" fill="#c6ff1e" stroke="none" /><path d="M 100.90346689309514 120.98055641714683 l 0.5729939635369306 13.306223250180745 a34.31855469883652,34.31855469883652 0 0,0 -0.5904093034585651,0.020334890182988053 l -0.3438643084037132 -13.314114938789826" fill="#ffa50f" stroke="none" /><line stroke="#e1ed5e" stroke-width="0.3" x1="102.19456741930631" x2="102.32365962044197" y1="184.97166512339345" y2="189.96999836594603" /><path d="M 102.22038585953345 185.97133177190398 a86.0,86.0 0 0,1 -42.740103519485714,-10.115201625700543" fill="none" id="id55" stroke="none" /><text fill="#e1ed5e" style="font-size:6.75px; font-family:Arial;" text-anchor="middle"><textPath startOffset="22.20632615414155" xlink:href="#id55">July</textPath></text><path d="M 100.54218724476979 120.99299961872073 l 0.329037401762393 12.740030527047166 a33.744278851384735,33.744278851384735 0 0,0 -0.5807877434472755,0.009998787707195889 l -0.10968996842244959 -12.74380679203352" fill="#ff9d0e" stroke="none" /><path d="M 100.18074693466247 120.99922214144158 l 0.11561022423855304 13.431623530108121 a34.4321210677429,34.4321210677429 0 0,0 -0.5927143178020077,0.0 l 0.11561022423854378 -13.431623530108121" fill="#ffa60f" stroke="none" /><path d="M 99.81925306533755 120.99922214144158 l -0.02499255466177332 2.903640984035654 a23.903748541447772,23.903748541447772 0 0,0 -0.4114180135975509,-0.0070829342101149 l 0.07497025815199217 -2.9027805725463796" fill="#ff1402" stroke="none" /><path d="M 99.45781275523022 120.99299961872073 l -0.10759368291104036 4.165930065889524 a25.16731924796801,25.16731924796801 0 0,0 -0.43297334510466046,-0.014912477451300749 l 0.17928737969034386 -4.16346079001213" fill="#ff2703" stroke="none" /><path d="M 98.73552117531835 120.96189622390904 l -0.24697478083589908 4.094224137844457 a25.101666470262682,25.101666470262682 0 0,0 -0.43107598550874443,-0.029729523834070938 l 0.31741352712357357 -4.089366269494101" fill="#ff2603" stroke="none" /><path d="M 98.01472825383883 120.90594882070398 l -0.4093038464851596 4.310183370756199 a25.329573919947645,25.329573919947645 0 0,0 -0.4336994820705837,-0.04495472460680671 l 0.4834359251613366 -4.302499277693632" fill="#ff2904" stroke="none" /><path d="M 97.65516085044442 120.86867818915974 l -1.9119744246119743 17.016254177048122 a38.12333356616865,38.12333356616865 0 0,0 -0.6514961408934481,-0.07888710968309663 l 2.2045979885568117 -16.980821538639674" fill="#ffd614" stroke="none" /><path d="M 96.58105272829116 120.7198165907248 l -2.149259420541677 13.025138283941141 a34.20127052114971,34.20127052114971 0 0,0 -0.5800389368128632,-0.10084720414558085 l 2.37314732882659 -12.986212501274554" fill="#ffa30f" stroke="none" /><path d="M 95.86986931433489 120.58985236759428 l -0.6021225010052579 3.0017484545790905 a24.061542959160427,24.061542959160427 0 0,0 -0.40538949286355136,-0.08495330975776895 l 0.6537034552981961 -2.99093916409478" fill="#ff1702" stroke="none" /><path d="M 95.51606077576429 120.51570834832081 l -0.9320167792373634 4.264327294006582 a25.3649905552234,25.3649905552234 0 0,0 -0.42574514674079017,-0.09689820929100697 l 1.0052820753710163 -4.247652351137888" fill="#ff2904" stroke="none" /><path d="M 94.81253420990036 120.34920634021253 l -3.1833057813397687 12.487358723811493 a33.886720435962836,33.886720435962836 0 0,0 -0.5639872692449632,-0.14895416380811785 l 3.397783493396221 -12.430713210699793" fill="#ff9f0e" stroke="none" /><path d="M 94.46302465271185 120.25689768951611 l -1.5088337894020425 5.520033914792771 a26.722530369032892,26.722530369032892 0 0,0 -0.4426635916554501,-0.12510115264893484 l 1.6036285491621065 -5.493243968805315" fill="#ff3d05" stroke="none" /><path d="M 94.11515582081647 120.15858648285463 l -7.453988664048361 25.53370498032189 a47.59947437499238,47.59947437499238 0 0,0 -0.7845413945083382,-0.23637588647416924 l 7.892405032996946 -25.401613724741996" fill="#b6ff1f" stroke="none" /><path d="M 93.76903079525671 120.05430185196036 l -3.985587800354693 12.82756793998578 a34.4324759210388,34.4324759210388 0 0,0 -0.564493642632563,-0.18073303824925263 l 4.205802788078197 -12.75706205507682" fill="#ffa60f" stroke="none" /><path d="M 93.42475214034765 119.94407469862007 l -1.9039107761324303 5.7749516899125 a27.08070253048909,27.08070253048909 0 0,0 -0.44145448235761314,-0.14976532879006876 l 2.003034991427269 -5.741323374224309" fill="#ff4206" stroke="none" /><path d="M 93.08242187328487 119.8279376855182 l -2.1960608944600137 6.294595850070067 a27.666679860912463,27.666679860912463 0 0,0 -0.4483061894756184,-0.16074664957572418 l 2.3040866445653587 -6.255861659454385" fill="#ff4a06" stroke="none" /><path d="M 92.7421414339146 119.70592522655815 l -4.691250160231247 12.73728663005034 a34.57373562295689,34.57373562295689 0 0,0 -0.5566861711277502,-0.21049107617836524 l 4.90980655211928 -12.65464730376534" fill="#ffa80f" stroke="none" /><path d="M 92.40401165467489 119.57807347666478 l -1.411795142916652 3.638792976694284 a24.903073129317807,24.903073129317807 0 0,0 -0.3983055907583896,-0.15849401465332455 l 1.4742218097168998 -3.613952117634893" fill="#ff2303" stroke="none" /><path d="M 91.7346041902142 119.30500536409082 l -4.6092025806755625 10.765447002401812 a32.710661705951054,32.710661705951054 0 0,0 -0.5157058956716698,-0.22607030946320295 l 4.793829151004976 -10.684512139644157" fill="#ff8f0d" stroke="none" /><path d="M 91.40352486487194 119.15986991738527 l -1.706097991977269 3.802560360934467 a25.167761468315927,25.167761468315927 0 0,0 -0.3937340532015879,-0.18074399238904396 l 1.7713000409462762 -3.7726292982113487" fill="#ff2703" stroke="none" /><path d="M 91.07499286063937 119.00905698771935 l -5.634316431284725 12.000331255399699 a34.25720452762074,34.25720452762074 0 0,0 -0.5316185231083977,-0.2552091974964807 l 5.8400476223933655 -11.901567781403655" fill="#ffa40f" stroke="none" /><path d="M 90.10565033884886 118.52300852407294 l -3.205753278635315 6.001424786854383 a27.803966016651703,27.803966016651703 0 0,0 -0.42020688348879964,-0.22913029701596968 l 3.3085829739927552 -5.945353838078647" fill="#ff4c07" stroke="none" /><line stroke="#e1ed5e" stroke-width="0.3" x1="58.666819895761336" x2="56.23545636021788" y1="174.27360380694188" y2="178.64263932499728" /><path d="M 58.180547188652646 175.14741091055294 a86.0,86.0 0 0,1 -31.652253787137756,-30.449443065178592" fill="none" id="id56" stroke="none" /><text fill="#e1ed5e" style="font-size:6.75px; font-family:Arial;" text-anchor="middle"><textPath startOffset="22.20632615414155" xlink:href="#id56">August</textPath></text><path d="M 89.7882731507175 118.34994917583269 l -3.512378086499158 6.311563198353335 a28.223062358122604,28.223062358122604 0 0,0 -0.42247402159692865,-0.23989177535740674 l 3.620500875017294 -6.250168257201295" fill="#ff5207" stroke="none" /><path d="M 89.4739219176387 118.17145234162733 l -2.745401795165432 4.739461125893105 a26.47720026845372,26.47720026845372 0 0,0 -0.39240740041708305,-0.23184120890607568 l 2.826577066610897 -4.69150134469328" fill="#ff3905" stroke="none" /><path d="M 88.8546689885994 117.79835938074946 l -3.941104465022851 6.293684194197667 a28.425817472879103,28.425817472879103 0 0,0 -0.41246970836565694,-0.26325768320777043 l 4.048855975435432 -6.224912082166092" fill="#ff5507" stroke="none" /><path d="M 87.95078237400918 117.19931262002967 l -3.4561621450014313 4.933400245769389 a27.02357823535964,27.02357823535964 0 0,0 -0.37868097992399724,-0.270178824572163 l 3.5405704527743156 -4.873177159353006" fill="#ff4106" stroke="none" /><path d="M 87.65650970185807 116.9893568818739 l -3.6363849707238645 5.005054529577427 a27.18658762965093,27.18658762965093 0 0,0 -0.3762300461052047,-0.27832599371854655 l 3.7219999872476337 -4.941718587119113" fill="#ff4306" stroke="none" /><path d="M 87.36589467227662 116.77436683061367 l -2.625409114651746 3.485769227597602 a25.36386985683153,25.36386985683153 0 0,0 -0.3464840760073803,-0.2656692146435084 l 2.685021919152613 -3.440060671126727" fill="#ff2904" stroke="none" /><path d="M 87.07902340077011 116.55440617244103 l -3.798713762078588 4.866927052095937 a27.173913279001294,27.173913279001294 0 0,0 -0.3662558355795049,-0.2909757866768108 l 3.8819270903754513 -4.800817351413995" fill="#ff4306" stroke="none" /><path d="M 86.51685102203217 116.09983520530335 l -2.6314624829818816 3.142152652483116 a25.098501932517276,25.098501932517276 0 0,0 -0.3288316365634745,-0.2802374545294009 l 2.685159596122413 -3.0963908077307636" fill="#ff2603" stroke="none" /><path d="M 86.24171649860922 115.8653595955263 l -13.473071065508648 15.536466979239636 a41.56466508682429,41.56466508682429 0 0,0 -0.5364962057457283,-0.4733955242263652 l 13.738509624160965 -15.302248313240982" fill="#fdff18" stroke="none" /><path d="M 85.70375840098266 115.38237550388516 l -8.38733997582467 9.024554607117878 a33.32031078045189,33.32031078045189 0 0,0 -0.4167643632850506,-0.39407671860597204 l 8.541440173500538 -8.878843251765975" fill="#ff980e" stroke="none" /><path d="M 84.9287848128048 114.62390073753433 l -4.787178018284001 4.645094326021637 a27.670380399675864,27.670380399675864 0 0,0 -0.32874183955101105,-0.3446845044766801 l 4.866426409213969 -4.562002704962456" fill="#ff4a06" stroke="none" /><path d="M 84.67929136418377 114.36230785411682 l -4.817801907242572 4.516419952678158 a27.603731097370602,27.603731097370602 0 0,0 -0.32198252785813936,-0.34944844166843286 l 4.89483084309644 -4.432820256208381" fill="#ff4906" stroke="none" /><path d="M 84.19399662182784 113.82643327865904 l -3.2294385942401758 2.824978344143047 a25.290661519957634,25.290661519957634 0 0,0 -0.2838063726232424,-0.3301309285702213 l 3.277587476434197 -2.7689703164112953" fill="#ff2803" stroke="none" /><path d="M 83.95833913139862 113.55231037782056 l -9.965299260572548 8.418880669113639 a34.045487383518605,34.045487383518605 0 0,0 -0.3743447248775517,-0.45092233627624617 l 10.108739985343636 -8.246097075723632" fill="#ffa10e" stroke="none" /><path d="M 83.72743513129214 113.27417163493432 l -3.3133517457981507 2.7028314291873765 a25.275932357508328,25.275932357508328 0 0,0 -0.2721159791497897,-0.33950652373389245 l 3.3593856370028012 -2.6453970718752244" fill="#ff2803" stroke="none" /><path d="M 82.6465618267979 111.8261652097733 l -5.237614658742138 3.5693731490665996 a27.338219938653765,27.338219938653765 0 0,0 -0.26166177672704094,-0.3911488534708507 l 5.298279540879909 -3.478687381389928" fill="#ff4606" stroke="none" /><path d="M 82.24976979558568 111.22182372390057 l -3.7645205713674006 2.379957091845294 a25.45374122410284,25.45374122410284 0 0,0 -0.23094465504443046,-0.37235631831064775 l 3.804929866079787 -2.314804442169382" fill="#ff2b04" stroke="none" /><line stroke="#e1ed5e" stroke-width="0.3" x1="26.63291911575756" x2="22.317208475507996" y1="142.92168965132927" y2="145.44649492493687" /><path d="M 25.769776987707644 143.4266507060508 a86.0,86.0 0 0,1 -11.730757126820373,-40.83630448921669" fill="none" id="id57" stroke="none" /><text fill="#e1ed5e" style="font-size:6.75px; font-family:Arial;" text-anchor="middle"><textPath startOffset="21.46611528233685" xlink:href="#id57">September</textPath></text><path d="M 81.87401531095188 110.60418214915194 l -3.822403440173925 2.236207468035651 a25.428475121252447,25.428475121252447 0 0,0 -0.21777430911648527,-0.37970786419574043 l 3.8603297454427876 -2.1700797579816036" fill="#ff2a04" stroke="none" /><path d="M 81.51974371655577 109.97397251340807 l -1.9334825517789513 1.0435191769431038 a23.197108793547024,23.197108793547024 0 0,0 -0.18662349271924802,-0.35302131732529596 l 1.9511585527230852 -1.0100828445316816" fill="#ff0a01" stroke="none" /><path d="M 81.35079622478065 109.6543875284942 l -5.423986518565898 2.8079090362637924 a27.107698659029968,27.107698659029968 0 0,0 -0.21095124637579576,-0.41622682204938033 l 5.471516434727961 -2.7141280025117274" fill="#ff4206" stroke="none" /><path d="M 81.18737489456691 109.33194174019688 l -2.971015286811788 1.4737625084419959 a24.316460125760383,24.316460125760383 0 0,0 -0.18277495435758656,-0.37657054212985985 l 2.9959434977840935 -1.4224030103468512" fill="#ff1a02" stroke="none" /><path d="M 81.02952815118164 109.00673069616217 l -2.8231468992764674 1.3403632782635406 a24.125177136197518,24.125177136197518 0 0,0 -0.17487925396974857,-0.37667435506203906 l 2.845800770086043 -1.2915688559226746" fill="#ff1802" stroke="none" /><path d="M 80.73074385275274 108.34839909993369 l -2.943391040878287 1.2752232327313544 a24.207763256978353,24.207763256978353 0 0,0 -0.16236379534639683,-0.3837800507090881 l 2.9649058174169904 -1.2243686563561074" fill="#ff1902" stroke="none" /><path d="M 80.58989483394504 108.01547362559985 l -3.974629837895899 1.6413378683229427 a25.300194454473342,25.300194454473342 0 0,0 -0.1627614347418611,-0.4039605330611839 l 4.002293886895148 -1.5726779674189535" fill="#ff2903" stroke="none" /><path d="M 80.45479744820244 107.68017299344265 l -2.9948278736280596 1.1768000916896169 a24.217740270509765,24.217740270509765 0 0,0 -0.14911868344264528,-0.38930182761331816 l 3.014640836664214 -1.1250746972431407" fill="#ff1902" stroke="none" /><path d="M 80.20201598880116 107.00284435728193 l -4.741017021181275 1.6769689416749083 a26.02886341298636,26.02886341298636 0 0,0 -0.1457729998806442,-0.4236845724818584 l 4.769180852005147 -1.5951116661037532" fill="#ff3304" stroke="none" /><path d="M 79.97269907076064 106.31721596034903 l -4.093472612409486 1.2912049712405747 a25.29228707174892,25.29228707174892 0 0,0 -0.1273927063943027,-0.41632673538924525 l 4.115092091309919 -1.2205512632992817" fill="#ff2803" stroke="none" /><path d="M 79.29508885075956 103.50808413554451 l -3.886236973401035 0.6584547103383643 a24.941624083927337,24.941624083927337 0 0,0 -0.06807667313670922,-0.42391350860655425 l 3.8969954008990353 -0.5914619720385964" fill="#ff2303" stroke="none" /><path d="M 79.18660465613746 102.79330883721812 l -2.3984394450805278 0.321887995052741 a23.41994290285479,23.41994290285479 0 0,0 -0.0501839087692122,-0.40001512927888677 l 2.4036248630965877 -0.28055511148644563" fill="#ff0d01" stroke="none" /><path d="M 79.07016306316243 101.71520430193888 l -5.894077720481761 0.48302084209452734 a26.91383642900082,26.91383642900082 0 0,0 -0.03386457990473226,-0.4620552872660424 l 5.901518859050828 -0.3814924183317243" fill="#ff4006" stroke="none" /><line stroke="#e1ed5e" stroke-width="0.3" x1="15.007084014347285" x2="10.007500721073583" y1="101.09737516637583" y2="101.16192664675087" /><path d="M 14.007167355692545 101.11028546245083 a86.0,86.0 0 0,1 10.666146001902534,-42.60595125391555" fill="none" id="id58" stroke="none" /><text fill="#e1ed5e" style="font-size:6.75px; font-family:Arial;" text-anchor="middle"><textPath startOffset="22.20632615414155" xlink:href="#id58">October</textPath></text><path d="M 79.00486145842228 99.54816195383935 l -5.271808030747812 -0.11345499986246374 a26.273028726457966,26.273028726457966 0 0,0 0.013622322111870895,-0.4520585522109497 l 5.269074014180296 0.20418369949840784" fill="#ff3605" stroke="none" /><path d="M 79.05617556472873 98.46500227214037 l -15.323898543339514 -1.1231066951823898 a36.36500033242194,36.36500033242194 0 0,0 0.05112835265328181,-0.6238954057383875 l 15.302295706866735 1.3867160181285558" fill="#ffbf11" stroke="none" /><path d="M 79.12142395522702 97.74499172005258 l -4.323632313699765 -0.46697756810297913 a25.348777349230488,25.348777349230488 0 0,0 0.05058849097604147,-0.43341129681191043 l 4.314953469720134 0.5413326032397514" fill="#ff2904" stroke="none" /><path d="M 79.46518482838121 95.60439243477599 l -4.032481397714821 -0.863178245836777 a25.12383109583818,25.12383109583818 0 0,0 0.09416126320262923,-0.42210647976910864 l 4.0170257475101545 0.9324628951558449" fill="#ff2603" stroke="none" /><path d="M 79.81627453868168 94.20196356495316 l -4.10509803771726 -1.1792425554806059 a25.271117289881715,25.271117289881715 0 0,0 0.12370103956182012,-0.4170584103216401 l 4.084191101043733 1.2497303525487853" fill="#ff2803" stroke="none" /><path d="M 80.803312248108 91.48605970444005 l -3.941632678898894 -1.7481570638073045 a25.311904601809164,25.311904601809164 0 0,0 0.18007332860737935,-0.3967677099621277 l 3.9109570333281627 1.8157467826115032" fill="#ff2903" stroke="none" /><path d="M 81.26839172434947 90.50648371742162 l -40.101818409132264 -20.32432348710736 a65.95813569230383,65.95813569230383 0 0,0 0.5219819027812423,-1.0083028926706523 l 39.74602707319091 21.011599102038346" fill="#36ff72" stroke="none" /><path d="M 81.6062741919709 89.86733742301443 l -12.531436394671383 -6.903267881525918 a35.30706138792316,35.30706138792316 0 0,0 0.297827434918555,-0.5298017742418781 l 12.410751318460397 7.1179531657025805" fill="#ffb210" stroke="none" /><line stroke="#e1ed5e" stroke-width="0.3" x1="26.266209847984243" x2="21.928928074336255" y1="57.711370442889674" y2="55.22380399835377" /><path d="M 25.398753493254645 57.213857153982495 a86.0,86.0 0 0,1 29.58750427330803,-30.492523968695096" fill="none" id="id59" stroke="none" /><text fill="#e1ed5e" style="font-size:6.75px; font-family:Arial;" text-anchor="middle"><textPath startOffset="21.46611528233685" xlink:href="#id59">November</textPath></text><path d="M 81.78341655067845 89.55222093294921 l -4.473829758911236 -2.5658809751420497 a26.157411937233217,26.157411937233217 0 0,0 0.22737059476363614,-0.38865004971223016 l 4.428999489677275 2.6425104372081716" fill="#ff3505" stroke="none" /><path d="M 81.96595687620814 89.24020034530311 l -5.819326746980322 -3.472032837723513 a27.776398439757727,27.776398439757727 0 0,0 0.24851173558751666,-0.40848795154466294 l 5.758699213106588 3.57168856247525" fill="#ff4c07" stroke="none" /><path d="M 82.15384107792192 88.93136811851018 l -3.4219843008575093 -2.1223998226066763 a25.026730381130093,25.026730381130093 0 0,0 0.23021303170605215,-0.36414173037982894 l 3.3849436729054942 2.1809892007007208" fill="#ff2503" stroke="none" /><path d="M 82.7489923806493 88.02491185347247 l -3.4936355189934 -2.425168095390363 a25.252873079515965,25.252873079515965 0 0,0 0.2509502821613979,-0.3549513773122834 l 3.451372617028124 2.4849459730344328" fill="#ff2803" stroke="none" /><path d="M 83.84228863543731 86.58626213691792 l -3.7304307727388193 -3.096912636503675 a25.848399903920146,25.848399903920146 0 0,0 0.28715035028214325,-0.3398954428511985 l 3.6765698089695515 3.1606670289839895" fill="#ff3004" stroke="none" /><path d="M 86.37877921826538 84.01681056812374 l -4.409207905521233 -5.173780406890792 a27.797728889330465,27.797728889330465 0 0,0 0.36685385958723515,-0.3072295572521041 l 4.319496508974888 5.248911121536708" fill="#ff4c07" stroke="none" /><path d="M 86.65592168130627 83.78471172551755 l -3.2272458949680893 -3.9216438385435373 a26.078819396569923,26.078819396569923 0 0,0 0.34907940484885663,-0.28226460187572244 l 3.159263091554732 3.9766145376833943" fill="#ff3404" stroke="none" /><path d="M 88.09926311788651 82.69761687909137 l -3.7176711799800404 -5.405091441879817 a27.560189974195612,27.560189974195612 0 0,0 0.39318588273966476,-0.2654808631697868 l 3.624080602833836 5.46828421734827" fill="#ff4906" stroke="none" /><line stroke="#e1ed5e" stroke-width="0.3" x1="56.762969772571076" x2="54.21961505331055" y1="26.818313649435495" y2="22.513508569990535" /><path d="M 56.25429882871897 25.957352633546506 a86.0,86.0 0 0,1 42.265352541879196,-11.944610805530505" fill="none" id="id60" stroke="none" /><text fill="#e1ed5e" style="font-size:6.75px; font-family:Arial;" text-anchor="middle"><textPath startOffset="22.20632615414155" xlink:href="#id60">December</textPath></text><path d="M 90.26544431104013 81.39251694778311 l -3.084386125336844 -5.895766010028403 a27.6538330768946,27.6538330768946 0 0,0 0.4236824176410374,-0.21702659023011966 l 2.9824432201070428 5.947985125571027" fill="#ff4a06" stroke="none" /><path d="M 93.59665428221793 80.00007090966166 l -1.6212623595427071 -5.06377972653331 a26.316987564149436,26.316987564149436 0 0,0 0.4326194787302016,-0.13441697792518711 l 1.5338575081017767 5.090936839341022" fill="#ff3705" stroke="none" /><path d="M 93.94186890950719 79.89281104454417 l -1.3541252858957011 -4.494398121492387 a25.693960988800015,25.693960988800015 0 0,0 0.42457408612125713,-0.12394481832681918 l 1.2765609820510226 4.517041268737905" fill="#ff2e04" stroke="none" /><path d="M 94.28887869178378 79.79150937346287 l -1.0200207085772437 -3.6092875314173862 a24.750653107176326,24.750653107176326 0 0,0 0.41098118959827695,-0.11233668402158865 l 0.9577416297552444 3.6263107562652706" fill="#ff2103" stroke="none" /><path d="M 94.63758080256005 79.69619591428918 l -0.7168137309336035 -2.714082025846003 a23.807145020813014,23.807145020813014 0 0,0 0.3971157755513321,-0.10123365333961759 l 0.669989066697272 2.7260186753544837" fill="#ff1302" stroke="none" /><path d="M 94.98787191387505 79.60689891045804 l -2.044349820520229 -8.317950346813358 a29.565492639697588,29.565492639697588 0 0,0 0.4952590473299598,-0.1172118153249436 l 1.9008670862277355 8.351908074279173" fill="#ff6509" stroke="none" /><path d="M 96.04723909329186 79.375362276772 l -0.5155594180674755 -2.690075740324827 a23.73903431928887,23.73903431928887 0 0,0 0.401986496392618,-0.07346046278273052 l 0.46917780057196423 2.6985516844582937" fill="#ff1202" stroke="none" /><path d="M 98.91598698831166 79.02799685794201 l -0.2600431384908717 -5.030959461461836 a26.037675608527067,26.037675608527067 0 0,0 0.44779739282344927,-0.019283097701817957 l 0.17340491327809834 5.034690285687847" fill="#ff3304" stroke="none" /></svg>