<?xml version="1.0" encoding="utf-8" ?>
<svg baseProfile="full" height="200mm" version="1.1" viewBox="0,0,200,200" width="200mm" xmlns="http://www.w3.org/2000/svg" xmlns:ev="http://www.w3.org/2001/xml-events" xmlns:xlink="http://www.w3.org/1999/xlink"><defs /><rect fill="#1a1a1a" height="200" width="200" x="0" y="0" /><text alignment-baseline="middle" fill="#e1ed5e" style="dominant-baseline: central; font-size:9.0px; font-family:Arial;" text-anchor="middle" x="100.0" y="100.0">2019</text><line stroke="#e1ed5e" stroke-width="0.3" x1="100.0" x2="100.0" y1="15.0" y2="10.0" /><path d="M 100.0 14.0 a86.0,86.0 0 0,1 42.46469731375804,11.215312516191453" fill="none" id="id25" stroke="none" /><text fill="#e1ed5e" style="font-size:6.75px; font-family:Arial;" text-anchor="middle"><textPath startOffset="22.20632615414155" xlink:href="#id25">January</textPath></text><path d="M 105.36241919743992 79.69619591428918 l 4.0175779241571545 -15.211812442806975 a36.73340936262106,36.73340936262106 0 0,0 0.6099532086074031,0.1667232530283441 l -4.278829021988269 15.140402648952337" fill="#ff710a" stroke="none" /><line stroke="#e1ed5e" stroke-width="0.3" x1="143.23703022742887" x2="145.7803849466894" y1="26.81831364943548" y2="22.513508569990506" /><path d="M 143.74570117128098 25.957352633546492 a86.0,86.0 0 0,1 28.547481713284135,27.462654790039103" fill="none" id="id26" stroke="none" /><text fill="#e1ed5e" style="font-size:6.75px; font-family:Arial;" text-anchor="middle"><textPath startOffset="19.985693538727396" xlink:href="#id26">February</textPath></text><path d="M 117.65298651832404 88.62581576622439 l 7.3069465660515265 -4.708016762056337 a29.692346630854964,29.692346630854964 0 0,0 0.2731305700847882,0.43202696942585234 l -7.386904732382271 4.581542144916279" fill="#ff0000" stroke="none" /><line stroke="#e1ed5e" stroke-width="0.3" x1="172.23445277983987" x2="176.4835382374775" y1="55.19839476539836" y2="52.563006222186495" /><path d="M 173.08426987136738 54.67131705675599 a86.0,86.0 0 0,1 12.851231095245387,41.99856678651699" fill="none" id="id27" stroke="none" /><text fill="#e1ed5e" style="font-size:6.75px; font-family:Arial;" text-anchor="middle"><textPath startOffset="22.20632615414155" xlink:href="#id27">March</textPath></text><path d="M 120.45610955862082 95.25157060432595 l 61.36832867586249 -14.245288187022162 a84.0,84.0 0 0,0 0.31482245199184966,1.4112873218001445 l -61.60444551485638 13.186822695672053" fill="#4dd2ff" stroke="none" /><path d="M 120.73433829027371 96.67025291283417 l 25.44643994072733 -4.086467968506293 a46.772476134719206,46.772476134719206 0 0,0 0.12081577045521483,0.7960249755318476 l -25.513011604621845 3.6478438805823634" fill="#faff18" stroke="none" /><line stroke="#e1ed5e" stroke-width="0.3" x1="184.98032266829074" x2="189.97916517819016" y1="98.17113171792111" y2="98.06355123074" /><path d="M 185.9800911702706 98.14961562048488 a86.0,86.0 0 0,1 -9.607161424134198,41.387399972396054" fill="none" id="id28" stroke="none" /><text fill="#e1ed5e" style="font-size:6.75px; font-family:Arial;" text-anchor="middle"><textPath startOffset="21.466115282336823" xlink:href="#id28">April</textPath></text><path d="M 120.9764740272857 100.99374915477107 l 12.261618960616724 0.5808875916127657 a33.27537086728728,33.27537086728728 0 0,0 -0.032029365276127375,0.5719058331158217 l -12.249803244453068 -0.7918651410640106" fill="#ff3b05" stroke="none" /><line stroke="#e1ed5e" stroke-width="0.3" x1="174.80103733775053" x2="179.2010983576182" y1="140.37084112569926" y2="142.7455964860345" /><path d="M 175.68104954172406 140.8457921977663 a86.0,86.0 0 0,1 -30.038265399797805,32.042727171017184" fill="none" id="id29" stroke="none" /><text fill="#e1ed5e" style="font-size:6.75px; font-family:Arial;" text-anchor="middle"><textPath startOffset="22.206326154141568" xlink:href="#id29">May</textPath></text><path d="M 111.1453310114006 117.79835938074945 l 9.565752942052747 15.27587726519401 a39.02376363498096,39.02376363498096 0 0,0 -0.5723871855475863,0.3516069594048443 l -9.301386556572853 -15.438272691427233" fill="#ff940d" stroke="none" /><line stroke="#e1ed5e" stroke-width="0.3" x1="143.8653032363475" x2="146.44561519142675" y1="172.8068346515853" y2="177.08958963109032" /><path d="M 144.38136562736335 173.6633856474863 a86.0,86.0 0 0,1 -40.68145358897372,12.25698825130547" fill="none" id="id30" stroke="none" /><text fill="#e1ed5e" style="font-size:6.75px; font-family:Arial;" text-anchor="middle"><textPath startOffset="21.466115282336833" xlink:href="#id30">June</textPath></text><path d="M 107.2578585660854 119.70592522655815 l 5.602825323106193 15.212318601869256 a37.21130126936198,37.21130126936198 0 0,0 -0.602965616451324,0.21620201757036706 l -5.340140146025133 -15.306508160479584" fill="#ff790b" stroke="none" /><line stroke="#e1ed5e" stroke-width="0.3" x1="102.19456741930631" x2="102.32365962044197" y1="184.97166512339345" y2="189.96999836594603" /><path d="M 102.22038585953345 185.97133177190398 a86.0,86.0 0 0,1 -42.740103519485714,-10.115201625700543" fill="none" id="id31" stroke="none" /><text fill="#e1ed5e" style="font-size:6.75px; font-family:Arial;" text-anchor="middle"><textPath startOffset="22.20632615414155" xlink:href="#id31">July</textPath></text><path d="M 98.37488393609728 120.93702456842531 l -1.2926651176643054 16.65392517398935 a37.704017684594994,37.704017684594994 0 0,0 -0.6466341053847756,-0.05579431150701368 l 1.5791435407906227 -16.629206610203674" fill="#ff800b" stroke="none" /><path d="M 98.01472825383883 120.90594882070398 l -2.2575829294830836 23.773527867673877 a44.880479642556594,44.880479642556594 0 0,0 -0.7684551203890287,-0.07965351525173608 l 2.666470646477706 -23.73114498396638" fill="#ffea16" stroke="none" /><path d="M 96.93821686468263 120.77559828337769 l -1.8914425800312287 12.834302588426512 a33.972928657972595,33.972928657972595 0 0,0 -0.5778053202292496,-0.09024130785322523 l 2.1120837638689953 -12.79984297322618" fill="#ff4606" stroke="none" /><path d="M 95.86986931433489 120.58985236759428 l -3.7791454531016817 18.84009317794704 a40.21538579652841,40.21538579652841 0 0,0 -0.6775498512725292,-0.14198715902797068 l 4.102886765803597 -18.772250038192528" fill="#ffa60f" stroke="none" /><path d="M 95.51606077576429 120.51570834832081 l -3.9271798731408287 17.968324921372172 a39.392483308025774,39.392483308025774 0 0,0 -0.6611931729265275,-0.15048541349791808 l 4.235893195460219 -17.89806277429657" fill="#ff9a0e" stroke="none" /><path d="M 94.81253420990036 120.34920634021253 l -4.44608682067583 17.440951281665058 a38.99873522296501,38.99873522296501 0 0,0 -0.6490681275566894,-0.1714247917761326 l 4.745645391044008 -17.36183514058534" fill="#ff940d" stroke="none" /><path d="M 93.42475214034765 119.94407469862007 l -6.387815135348847 19.3755528216862 a41.40137812377742,41.40137812377742 0 0,0 -0.6749021347561724,-0.22896344731413812 l 6.720387003042245 -19.262726387473936" fill="#ffb811" stroke="none" /><path d="M 93.08242187328487 119.8279376855182 l -5.464730643257804 15.66362340660842 a37.589526190564094,37.589526190564094 0 0,0 -0.609094308945026,-0.218399548650173 l 5.733544512832556 -15.567236316918288" fill="#ff7f0b" stroke="none" /><path d="M 90.7491055286396 118.85261126421891 l -6.810972133369631 13.880237241854827 a36.46125244900009,36.46125244900009 0 0,0 -0.561062440470798,-0.281328355117261 l 7.04888848152319 -13.760941045828263" fill="#ff6d0a" stroke="none" /><line stroke="#e1ed5e" stroke-width="0.3" x1="58.666819895761336" x2="56.23545636021788" y1="174.27360380694188" y2="178.64263932499728" /><path d="M 58.180547188652646 175.14741091055294 a86.0,86.0 0 0,1 -31.652253787137756,-30.449443065178592" fill="none" id="id32" stroke="none" /><text fill="#e1ed5e" style="font-size:6.75px; font-family:Arial;" text-anchor="middle"><textPath startOffset="22.20632615414155" xlink:href="#id32">August</textPath></text><path d="M 89.4739219176387 118.17145234162733 l -7.782897925979224 13.435826490653945 a36.52723200100939,36.52723200100939 0 0,0 -0.5413546752911601,-0.3198418843096689 l 8.013020472298766 -13.299866034050526" fill="#ff6e0a" stroke="none" /><path d="M 89.1626897886671 117.98757091392108 l -10.75994696078604 17.859164793933115 a41.850089345990554,41.850089345990554 0 0,0 -0.6138427620598274,-0.37707236040591574 l 11.065768922778176 -17.671303966698822" fill="#ffbe11" stroke="none" /><path d="M 88.54995079064634 117.60387380957326 l -10.354360329729362 15.919307357605335 a39.9904482459941,39.9904482459941 0 0,0 -0.5738158983451495,-0.3802938881985827 l 10.626850926814473 -15.738715448315434" fill="#ffa30f" stroke="none" /><path d="M 87.65650970185807 116.9893568818739 l -10.745480236996546 14.789884724982352 a39.28130289946397,39.28130289946397 0 0,0 -0.5436065240059551,-0.40214711066307185 l 10.998471731421066 -14.602727665579513" fill="#ff980e" stroke="none" /><path d="M 87.07902340077011 116.55440617244103 l -20.951603181422236 26.843276618095874 a55.05188945517407,55.05188945517407 0 0,0 -0.7420011820018716,-0.5894906146860578 l 21.410561856141467 -26.478652089404683" fill="#8dff24" stroke="none" /><path d="M 86.51685102203217 116.09983520530335 l -8.511366612615664 10.163174793881598 a34.256450637532616,34.256450637532616 0 0,0 -0.4488158200151963,-0.3824905786682296 l 8.685047909207917 -10.015159824990418" fill="#ff4a06" stroke="none" /><path d="M 86.24171649860922 115.8653595955263 l -13.879373849427656 16.004994886146545 a42.184826639785214,42.184826639785214 0 0,0 -0.5445009453344608,-0.4804587762183087 l 14.152817147668705 -15.763712968155946" fill="#ffc312" stroke="none" /><path d="M 85.18274418774928 114.88116024355367 l -9.293918707402915 9.334001877802203 a34.17195945919319,34.17195945919319 0 0,0 -0.4132518792802076,-0.4186219719135616 l 9.453211211738656 -9.172639411907976" fill="#ff4906" stroke="none" /><path d="M 83.50135304334701 112.99209946851258 l -17.117142870935513 13.479143070350906 a42.78724117402218,42.78724117402218 0 0,0 -0.4506783837019084,-0.5825625629922118 l 17.346628071855488 -13.182502513245442" fill="#ffcc13" stroke="none" /><path d="M 82.6465618267979 111.8261652097733 l -14.308352137275559 9.750974680990842 a38.31503531944427,38.31503531944427 0 0,0 -0.3667239578707849,-0.5482025592568185 l 14.474079200557075 -9.503235207528203" fill="#ff8a0c" stroke="none" /><line stroke="#e1ed5e" stroke-width="0.3" x1="26.63291911575756" x2="22.317208475507996" y1="142.92168965132927" y2="145.44649492493687" /><path d="M 25.769776987707644 143.4266507060508 a86.0,86.0 0 0,1 -11.730757126820373,-40.83630448921669" fill="none" id="id33" stroke="none" /><text fill="#e1ed5e" style="font-size:6.75px; font-family:Arial;" text-anchor="middle"><textPath startOffset="21.46611528233685" xlink:href="#id33">September</textPath></text><path d="M 81.51974371655577 109.97397251340807 l -9.831429820417151 5.3061174743657595 a32.171924407440166,32.171924407440166 0 0,0 -0.25882694924836114,-0.4896030464953359 l 9.9213092778904 -5.136099412784297" fill="#ff2904" stroke="none" /><path d="M 81.35079622478065 109.6543875284942 l -9.0217102046034 4.670391697941937 a31.158927779448483,31.158927779448483 0 0,0 -0.24247778217862465,-0.4784316681115892 l 9.100766656568291 -4.5144058181276625" fill="#ff1802" stroke="none" /><path d="M 80.45479744820244 107.68017299344265 l -16.995199200135676 6.678164095211986 a39.260193633553584,39.260193633553584 0 0,0 -0.24174131528976067,-0.631110292012123 l 17.107634795018946 -6.384630236366705" fill="#ff980e" stroke="none" /><path d="M 80.0844068197444 106.66101706037122 l -15.245784940428562 5.099141796470557 a37.075920051751666,37.075920051751666 0 0,0 -0.1972222652610802,-0.60698771895844 l 15.331299456705892 -4.835955177534315" fill="#ff770a" stroke="none" /><path d="M 79.97269907076064 106.31721596034903 l -18.491842849684257 5.832886078809633 a40.38996678660874,40.38996678660874 0 0,0 -0.20343700692332403,-0.6648439094118704 l 18.589506629113714 -5.513715196845714" fill="#ffa90f" stroke="none" /><path d="M 79.86692584326677 105.97154293290107 l -15.85554268830415 4.7028115602499225 a37.53827894648822,37.53827894648822 0 0,0 -0.1784093636896602,-0.6210664001133591 l 15.934144688879915 -4.429187684631968" fill="#ff7e0b" stroke="none" /><path d="M 79.76711848015287 105.62410040840567 l -12.186760153460607 3.387533440997368 a33.64881440498874,33.64881440498874 0 0,0 -0.15031714324526615,-0.5593860093654811 l 12.243265373047649 -3.177256498456348" fill="#ff4106" stroke="none" /><path d="M 79.4281124754447 104.21870165774334 l -15.96000923175733 3.2729382426987175 a37.29214594270193,37.29214594270193 0 0,0 -0.12354367108166674,-0.6299465172072367 l 16.013982835814662 -2.997727998423526" fill="#ff7a0b" stroke="none" /><path d="M 79.35854240842038 103.8639653848113 l -15.553722333910024 2.911569807343024 a36.82389070941161,36.82389070941161 0 0,0 -0.11126699392500297,-0.6240443918347147 l 15.601535770174216 -2.6434066647750956" fill="#ff730a" stroke="none" /><path d="M 79.29508885075956 103.50808413554451 l -13.649281273207881 2.3126313728654626 a34.84381244967964,34.84381244967964 0 0,0 -0.09510410480856442,-0.5922133514268976 l 13.687067132377736 -2.077338791745351" fill="#ff5407" stroke="none" /><path d="M 79.18660465613746 102.79330883721812 l -18.78515898286496 2.5211047850901114 a39.95357927540116,39.95357927540116 0 0,0 -0.0856119413133076,-0.6824114066074732 l 18.825772433425115 -2.19737562419523" fill="#ffa20f" stroke="none" /><path d="M 79.04373962182676 101.35467743843564 l -20.954238953882207 1.3545467673220384 a41.997974356619665,41.997974356619665 0 0,0 -0.040425348432340684,-0.7218217524725257 l 20.974450653202076 -0.9936532985140751" fill="#ffc111" stroke="none" /><line stroke="#e1ed5e" stroke-width="0.3" x1="15.007084014347285" x2="10.007500721073583" y1="101.09737516637583" y2="101.16192664675087" /><path d="M 14.007167355692545 101.11028546245083 a86.0,86.0 0 0,1 10.666146001902534,-42.60595125391555" fill="none" id="id34" stroke="none" /><text fill="#e1ed5e" style="font-size:6.75px; font-family:Arial;" text-anchor="middle"><textPath startOffset="22.20632615414155" xlink:href="#id34">October</textPath></text><path d="M 79.00175016825051 100.2711162175752 l -15.410630838286814 0.1989723894515651 a36.411915288039985,36.411915288039985 0 0,0 -0.0026974340622852606,-0.6267886789084354 l 15.411772569638602 0.0663257676605457" fill="#ff6c0a" stroke="none" /><path d="M 79.01574976396665 99.18683210126434 l -12.795538200748853 -0.4958443020293287 a33.805141913258055,33.805141913258055 0 0,0 0.027537333394779144,-0.5812695849481183 l 12.785107259120576 0.7160249936004561" fill="#ff4306" stroke="none" /><path d="M 79.03285615573316 98.82574320788736 l -27.852731668100926 -1.559881478521048 a48.89637775056585,48.89637775056585 0 0,0 0.05429688719848364,-0.839948812589397 l 27.82175418989803 2.039089355363457" fill="#ddff1b" stroke="none" /><path d="M 79.16333360222342 97.38593545837743 l -19.755742820341094 -2.478457245232799 a40.91060332335275,40.91060332335275 0 0,0 0.09367359470212756,-0.6979770850393275 l 19.710153226581134 2.8181526723367862" fill="#ffb110" stroke="none" /><path d="M 79.3925641242962 95.95851677861259 l -13.820240842184525 -2.710394044951223 a35.08351138086281,35.08351138086281 0 0,0 0.12132329991678849,-0.5916154974872306 l 13.771538246352742 2.947885198601856" fill="#ff5808" stroke="none" /><path d="M 79.91906864156998 93.8553929516997 l -12.168933804891966 -3.723598029055013 a33.72588433979442,33.72588433979442 0 0,0 0.17464309414383114,-0.5536663339650534 l 12.103035226979932 3.932514529446481" fill="#ff4206" stroke="none" /><path d="M 80.14247586403 93.16781622104843 l -17.91028937175178 -6.162217791308447 a39.940733710376776,39.940733710376776 0 0,0 0.22927297138008118,-0.6481855643218607 l 17.80156331956189 6.469600982056919" fill="#ffa20f" stroke="none" /><path d="M 80.2630227832202 92.82701384747504 l -23.24543647640827 -8.44806132789768 a45.732975097603045,45.732975097603045 0 0,0 0.27525896221458834,-0.7375571685891166 l 23.096572925692055 8.846941633516138" fill="#fff617" stroke="none" /><path d="M 80.52162464483688 92.15188598940014 l -16.980218321997803 -6.841571069765394 a39.30669027883961,39.30669027883961 0 0,0 0.25826051517909054,-0.6253983225464733 l 16.859936119932513 7.132843962765179" fill="#ff990e" stroke="none" /><line stroke="#e1ed5e" stroke-width="0.3" x1="26.266209847984243" x2="21.928928074336255" y1="57.711370442889674" y2="55.22380399835377" /><path d="M 25.398753493254645 57.213857153982495 a86.0,86.0 0 0,1 29.58750427330803,-30.492523968695096" fill="none" id="id35" stroke="none" /><text fill="#e1ed5e" style="font-size:6.75px; font-family:Arial;" text-anchor="middle"><textPath startOffset="21.46611528233685" xlink:href="#id35">November</textPath></text><path d="M 82.15384107792192 88.93136811851018 l -22.816116491655265 -14.151123248089618 a47.84826737321062,47.84826737321062 0 0,0 0.4401411820928082,-0.696197649937317 l 22.569147713316493 14.541768545741151" fill="#ebff1a" stroke="none" /><path d="M 82.7489923806493 88.02491185347247 l -26.72368623476354 -18.55071340310975 a53.531283001726294,53.531283001726294 0 0,0 0.531966819436545,-0.7524293402547199 l 26.400406795523118 19.00796924369626" fill="#a0ff22" stroke="none" /><path d="M 83.6137871275137 86.86637796730984 l -12.72031538861333 -10.195388998709557 a37.30191339753714,37.30191339753714 0 0,0 0.40588302189395487,-0.49756459269326286 l 12.542933874642983 10.412837761010902" fill="#ff7a0b" stroke="none" /><path d="M 85.05521093208273 85.24692304244772 l -13.810186573457514 -13.633029170934153 a40.405688278678696,40.405688278678696 0 0,0 0.49288051459984283,-0.49076392903323945 l 13.573470258690358 13.868728950617502" fill="#ffa90f" stroke="none" /><path d="M 85.31137513191541 84.99185889309783 l -12.253843893553652 -12.520397239907625 a38.519047839784804,38.519047839784804 0 0,0 0.4778503524932603,-0.4596916604981734 l 12.036510297447963 12.729471987168113" fill="#ff8d0d" stroke="none" /><line stroke="#e1ed5e" stroke-width="0.3" x1="56.762969772571076" x2="54.21961505331055" y1="26.818313649435495" y2="22.513508569990535" /><path d="M 56.25429882871897 25.957352633546506 a86.0,86.0 0 0,1 42.265352541879196,-11.944610805530505" fill="none" id="id36" stroke="none" /><text fill="#e1ed5e" style="font-size:6.75px; font-family:Arial;" text-anchor="middle"><textPath startOffset="22.20632615414155" xlink:href="#id36">December</textPath></text><path d="M 97.83486435360386 79.11191278185805 l -1.8831368813259477 -18.167511807543928 a39.26484847435253,39.26484847435253 0 0,0 0.6728777311680355,-0.06389784839547341 l 1.570134023067676 18.197235200454582" fill="#ff980e" stroke="none" /><path d="M 98.19473922651362 79.07773832637324 l -1.5896373928299747 -18.42327157795603 a39.49172470798237,39.49172470798237 0 0,0 0.677771667798036,-0.05260812592529697 l 1.2722755356696047 18.447904966069785" fill="#ff9b0e" stroke="none" /><path d="M 98.91598698831166 79.02799685794201 l -2.083388453910979 -40.30655419301408 a61.360361970183945,61.360361970183945 0 0,0 1.0552789168305432,-0.04544252999689729 l 1.3892687046911114 40.336444449535165" fill="#43ff2d" stroke="none" /><path d="M 99.27714615592234 79.0124445844662 l -0.5760415230726985 -16.724962433537062 a37.734879510756265,37.734879510756265 0 0,0 0.6493514466341814,-0.016770832093185833 l 0.2880634412436381 16.732400057772608" fill="#ff810b" stroke="none" /></svg>