<?xml version="1.0" encoding="utf-8" ?>
<svg baseProfile="full" height="200mm" version="1.1" viewBox="0,0,200,200" width="200mm" xmlns="http://www.w3.org/2000/svg" xmlns:ev="http://www.w3.org/2001/xml-events" xmlns:xlink="http://www.w3.org/1999/xlink"><defs /><rect fill="#1a1a1a" height="200" width="200" x="0" y="0" /><text alignment-baseline="middle" fill="#e1ed5e" style="dominant-baseline: central; font-size:9.0px; font-family:Arial;" text-anchor="middle" x="100.0" y="100.0">2018</text><line stroke="#e1ed5e" stroke-width="0.3" x1="100.0" x2="100.0" y1="15.0" y2="10.0" /><path d="M 100.0 14.0 a86.0,86.0 0 0,1 42.46469731375804,11.215312516191453" fill="none" id="id13" stroke="none" /><text fill="#e1ed5e" style="font-size:6.75px; font-family:Arial;" text-anchor="middle"><textPath startOffset="22.20632615414155" xlink:href="#id13">January</textPath></text><line stroke="#e1ed5e" stroke-width="0.3" x1="143.23703022742887" x2="145.7803849466894" y1="26.81831364943548" y2="22.513508569990506" /><path d="M 143.74570117128098 25.957352633546492 a86.0,86.0 0 0,1 28.547481713284135,27.462654790039103" fill="none" id="id14" stroke="none" /><text fill="#e1ed5e" style="font-size:6.75px; font-family:Arial;" text-anchor="middle"><textPath startOffset="19.985693538727396" xlink:href="#id14">February</textPath></text><path d="M 113.6212207817346 84.01681056812373 l 15.350382783068868 -18.012194340363497 a44.665869866577054,44.665869866577054 0 0,0 0.5808821928285153,0.5037353135127087 l -15.658158774544148 17.745294033431115" fill="#ffff18" stroke="none" /><path d="M 115.4437574822437 85.77008943001954 l 18.082795747721235 -16.661525968738072 a45.58849222015735,45.58849222015735 0 0,0 0.5267779786641698,0.5816814010940481 l -18.36691736700144 16.347791780374475" fill="#f3ff19" stroke="none" /><line stroke="#e1ed5e" stroke-width="0.3" x1="172.23445277983987" x2="176.4835382374775" y1="55.19839476539836" y2="52.563006222186495" /><path d="M 173.08426987136738 54.67131705675599 a86.0,86.0 0 0,1 12.851231095245387,41.99856678651699" fill="none" id="id15" stroke="none" /><text fill="#e1ed5e" style="font-size:6.75px; font-family:Arial;" text-anchor="middle"><textPath startOffset="22.20632615414155" xlink:href="#id15">March</textPath></text><path d="M 119.61058180528143 92.48833698450437 l 13.78829408424941 -5.281486278573324 a35.765200678098,35.765200678098 0 0,0 0.2152646312871499,0.5768021890083139 l -13.877163304038184 5.043360952535676" fill="#ff830c" stroke="none" /><path d="M 119.7369772167798 92.82701384747503 l 16.674092314715143 -6.059845535905655 a38.74111277340512,38.74111277340512 0 0,0 0.22238675194446295,0.6287172946690793 l -16.775932147469415 5.771930614809961" fill="#ffae10" stroke="none" /><path d="M 120.6074358757038 95.95851677861258 l 23.744770326155177 -4.656770082783376 a45.19709952547548,45.19709952547548 0 0,0 0.1431548741100497,0.7647390617384685 l -23.821410924175087 4.247352943582344" fill="#f8ff18" stroke="none" /><path d="M 120.73433829027371 96.67025291283417 l 23.322044436353767 -3.745309275923648 a44.620861505533185,44.620861505533185 0 0,0 0.11525803649220874,0.7594064527575016 l -23.383058366285276 3.343303710774064" fill="#fffe18" stroke="none" /><path d="M 120.83666639777658 97.38593545837742 l 24.177833979282 -3.033230810146421 a45.3673581883089,45.3673581883089 0 0,0 0.09053952223008409,0.7756873349129322 l -24.22646385451567 2.6165997369086362" fill="#f6ff19" stroke="none" /><line stroke="#e1ed5e" stroke-width="0.3" x1="184.98032266829074" x2="189.97916517819016" y1="98.17113171792111" y2="98.06355123074" /><path d="M 185.9800911702706 98.14961562048488 a86.0,86.0 0 0,1 -9.607161424134198,41.387399972396054" fill="none" id="id16" stroke="none" /><text fill="#e1ed5e" style="font-size:6.75px; font-family:Arial;" text-anchor="middle"><textPath startOffset="21.466115282336823" xlink:href="#id16">April</textPath></text><path d="M 120.99513854157772 99.54816195383933 l 36.44353260964433 -0.7843041634102433 a57.451971168798984,57.451971168798984 0 0,0 0.01276799716752363,0.9888954514512616 l -36.45163361392957 0.15687245389851912" fill="#62ff29" stroke="none" /><path d="M 120.99980553446 99.90962569577887 l 27.02773653449888 -0.11631597635364317 a48.02798682078709,48.02798682078709 0 0,0 -0.003557965203657716,0.8267458103177562 l -27.02573427200572 -0.3489393121677977" fill="#d3ff1c" stroke="none" /><path d="M 120.5718875245553 104.21870165774334 l 26.971789494707213 5.53113723365476 a48.53308750656781,48.53308750656781 0 0,0 -0.17487155808834168,0.8169417016494047 l -26.87258389789443 -5.994592754720334" fill="#cdff1d" stroke="none" /><path d="M 120.41448212921028 104.9243191809786 l 16.367594671488842 3.948141318361896 a37.8370417591662,37.8370417591662 0 0,0 -0.15817448414286184,0.6318284373570364 l -16.29720887305092 -4.2292975951163285" fill="#ffa10e" stroke="none" /><path d="M 120.13307415673323 105.97154293290107 l 22.02242142281735 6.531930195509325 a43.970702153028995,43.970702153028995 0 0,0 -0.2214725277094008,0.7237850348690149 l -21.906722122601813 -6.910042202930397" fill="#fff617" stroke="none" /><path d="M 119.67450827220406 107.3425965602758 l 25.663500934827994 9.57770995247307 a48.39247721849229,48.39247721849229 0 0,0 -0.2979725775710456,0.7779123738822367 l -25.49483407766344 -10.01804589318845" fill="#cfff1d" stroke="none" /><path d="M 119.54520255179757 107.68017299344265 l 22.127426084519485 8.694842623316553 a44.774424774747246,44.774424774747246 0 0,0 -0.28804322548559014,0.7148996634022449 l -21.974480244776505 -9.074441654561612" fill="#feff18" stroke="none" /><line stroke="#e1ed5e" stroke-width="0.3" x1="174.80103733775053" x2="179.2010983576182" y1="140.37084112569926" y2="142.7455964860345" /><path d="M 175.68104954172406 140.8457921977663 a86.0,86.0 0 0,1 -30.038265399797805,32.042727171017184" fill="none" id="id17" stroke="none" /><text fill="#e1ed5e" style="font-size:6.75px; font-family:Arial;" text-anchor="middle"><textPath startOffset="22.206326154141568" xlink:href="#id17">May</textPath></text><path d="M 118.48025628344425 109.97397251340804 l 32.412010376284854 17.493074535279717 a57.83131919072746,57.83131919072746 0 0,0 -0.4803403018763097,0.8719571721776717 l -32.10609366495704 -18.048402225855195" fill="#5eff2a" stroke="none" /><path d="M 117.94076556474637 110.91462005526583 l 21.645956333906742 13.16874624245205 a46.33699475485387,46.33699475485387 0 0,0 -0.4204207615390379,0.6778521324856756 l -21.416070932699743 -13.539394706302998" fill="#e9ff1a" stroke="none" /><path d="M 117.75023020441432 111.22182372390056 l 28.559674211727582 18.05563228900163 a54.78847212342777,54.78847212342777 0 0,0 -0.5108245897509148,0.7928111072197765 l -28.24464475859962 -18.54456499614286" fill="#81ff25" stroke="none" /><path d="M 117.35343817320211 111.8261652097733 l 22.02319695512952 15.008551218451652 a47.65103776218316,47.65103776218316 0 0,0 -0.4677496046228204,0.6738281918731704 l -21.761586443344562 -15.385420672511842" fill="#d8ff1c" stroke="none" /><path d="M 116.498646956653 112.99209946851258 l 18.502990459591025 14.570448906963765 a44.551191844536405,44.551191844536405 0 0,0 -0.47962983203131204,0.5984119619171129 l -18.24944271550486 -14.886788702459128" fill="#fffe18" stroke="none" /><path d="M 115.07121518719521 114.62390073753431 l 16.849852650522017 16.34974814855465 a44.478326151271304,44.478326151271304 0 0,0 -0.5378899003787089,0.5448796292496638 l -16.565922125087774 -16.63736827178498" fill="#fffd17" stroke="none" /><path d="M 114.0293411484842 115.62618273729858 l 42.088023445452606 46.878548211895726 a84.0,84.0 0 0,0 -1.0842305883736492,0.9567074329108447 l -41.27485050417237 -47.59607878657886" fill="#4dd2ff" stroke="none" /><path d="M 113.75828350139079 115.86535959552629 l 14.171560087129205 16.341929339454623 a42.630806037659376,42.630806037659376 0 0,0 -0.5585336429670357,0.47599448766511726 l -13.888160967585122 -16.58344821734269" fill="#ffe415" stroke="none" /><path d="M 113.20401910651253 116.32954008644616 l 12.557535914786458 15.530027975069581 a40.97181707200413,40.97181707200413 0 0,0 -0.5522269443802899,0.4387224829085489 l -12.288351477688817 -15.743884371983256" fill="#ffcd13" stroke="none" /><path d="M 112.63410532772338 116.77436683061366 l 17.643856599145387 23.4258394420193 a50.32704603696856,50.32704603696856 0 0,0 -0.6964664748942807,0.5152292479649464 l -17.238005153832543 -23.726078638724015" fill="#b6ff1f" stroke="none" /><path d="M 112.34349029814194 116.9893568818739 l 11.461874401150805 15.775916700455321 a40.50010544913697,40.50010544913697 0 0,0 -0.5675273453771184,0.4049156921409766 l -11.188619727924802 -15.970876654440518" fill="#ffc712" stroke="none" /><line stroke="#e1ed5e" stroke-width="0.3" x1="143.8653032363475" x2="146.44561519142675" y1="172.8068346515853" y2="177.08958963109032" /><path d="M 144.38136562736335 173.6633856474863 a86.0,86.0 0 0,1 -40.68145358897372,12.25698825130547" fill="none" id="id18" stroke="none" /><text fill="#e1ed5e" style="font-size:6.75px; font-family:Arial;" text-anchor="middle"><textPath startOffset="21.466115282336833" xlink:href="#id18">June</textPath></text><line stroke="#e1ed5e" stroke-width="0.3" x1="102.19456741930631" x2="102.32365962044197" y1="184.97166512339345" y2="189.96999836594603" /><path d="M 102.22038585953345 185.97133177190398 a86.0,86.0 0 0,1 -42.740103519485714,-10.115201625700543" fill="none" id="id19" stroke="none" /><text fill="#e1ed5e" style="font-size:6.75px; font-family:Arial;" text-anchor="middle"><textPath startOffset="22.20632615414155" xlink:href="#id19">July</textPath></text><path d="M 90.42595943632237 118.69057910512821 l -2.8274510809810773 5.5197904942505644 a27.201819629411997,27.201819629411997 0 0,0 -0.4149042997682863,-0.21705832005055128 l 2.922046283275859 -5.470302755255297" fill="#ff0000" stroke="none" /><line stroke="#e1ed5e" stroke-width="0.3" x1="58.666819895761336" x2="56.23545636021788" y1="174.27360380694188" y2="178.64263932499728" /><path d="M 58.180547188652646 175.14741091055294 a86.0,86.0 0 0,1 -31.652253787137756,-30.449443065178592" fill="none" id="id20" stroke="none" /><text fill="#e1ed5e" style="font-size:6.75px; font-family:Arial;" text-anchor="middle"><textPath startOffset="22.20632615414155" xlink:href="#id20">August</textPath></text><path d="M 89.7882731507175 118.34994917583269 l -9.44564752486483 16.973343938031206 a40.424589097396264,40.424589097396264 0 0,0 -0.6051199728319065,-0.3436029132351439 l 9.736416264617944 -16.80823785900143" fill="#ffc512" stroke="none" /><path d="M 88.54995079064634 117.60387380957326 l -14.723880801544246 22.637224947980318 a48.004381481595644,48.004381481595644 0 0,0 -0.6888064148449337,-0.45650333229342466 l 15.111361915129141 -22.380423594595577" fill="#d4ff1c" stroke="none" /><path d="M 88.24862548938628 117.40417183066458 l -15.39525256365928 22.80087497444691 a48.5117011669438,48.5117011669438 0 0,0 -0.6880417241812339,-0.4732413717912481 l 15.785451172463404 -22.53249281329056" fill="#cdff1d" stroke="none" /><line stroke="#e1ed5e" stroke-width="0.3" x1="26.63291911575756" x2="22.317208475507996" y1="142.92168965132927" y2="145.44649492493687" /><path d="M 25.769776987707644 143.4266507060508 a86.0,86.0 0 0,1 -11.730757126820373,-40.83630448921669" fill="none" id="id21" stroke="none" /><text fill="#e1ed5e" style="font-size:6.75px; font-family:Arial;" text-anchor="middle"><textPath startOffset="21.46611528233685" xlink:href="#id21">September</textPath></text><path d="M 81.35079622478065 109.6543875284942 l -17.570659666153524 9.096042897752794 a40.78550169951607,40.78550169951607 0 0,0 -0.31739147338901885,-0.6262434879334257 l 17.724629809328807 -8.792245198116682" fill="#ffca12" stroke="none" /><path d="M 81.02952815118164 109.00673069616217 l -20.984838902084043 9.9631044604297 a44.22987116270458,44.22987116270458 0 0,0 -0.32061471832703836,-0.6905755800520821 l 21.153228237250907 -9.60040881309879" fill="#fff917" stroke="none" /><path d="M 79.76711848015287 105.62410040840567 l -18.40263303630677 5.115349282983132 a40.100358660399166,40.100358660399166 0 0,0 -0.17913770406270535,-0.6666380376789595 l 18.487958816711252 -4.797820312128633" fill="#ffc111" stroke="none" /><path d="M 79.67330655649465 105.27499134158121 l -23.578073245614284 6.118758693707862 a45.359079332507164,45.359079332507164 0 0,0 -0.18961971235176084,-0.7574364929750188 l 23.6799042722611 -5.711994361335452" fill="#f6ff19" stroke="none" /><path d="M 79.50377843672027 104.57218783832718 l -20.393428040511235 4.549257207273552 a41.89467990617325,41.89467990617325 0 0,0 -0.15095243940154549,-0.705199542229313 l 20.46871451863722 -4.197543845628075" fill="#ffda14" stroke="none" /><line stroke="#e1ed5e" stroke-width="0.3" x1="15.007084014347285" x2="10.007500721073583" y1="101.09737516637583" y2="101.16192664675087" /><path d="M 14.007167355692545 101.11028546245083 a86.0,86.0 0 0,1 10.666146001902534,-42.60595125391555" fill="none" id="id22" stroke="none" /><text fill="#e1ed5e" style="font-size:6.75px; font-family:Arial;" text-anchor="middle"><textPath startOffset="22.20632615414155" xlink:href="#id22">October</textPath></text><line stroke="#e1ed5e" stroke-width="0.3" x1="26.266209847984243" x2="21.928928074336255" y1="57.711370442889674" y2="55.22380399835377" /><path d="M 25.398753493254645 57.213857153982495 a86.0,86.0 0 0,1 29.58750427330803,-30.492523968695096" fill="none" id="id23" stroke="none" /><text fill="#e1ed5e" style="font-size:6.75px; font-family:Arial;" text-anchor="middle"><textPath startOffset="21.46611528233685" xlink:href="#id23">November</textPath></text><path d="M 83.84228863543731 86.58626213691792 l -17.37401311962661 -14.423481912639536 a43.58081403238593,43.58081403238593 0 0,0 0.484140065207002,-0.5730691315676769 l 17.123162440932482 14.720409993836329" fill="#fff116" stroke="none" /><line stroke="#e1ed5e" stroke-width="0.3" x1="56.762969772571076" x2="54.21961505331055" y1="26.818313649435495" y2="22.513508569990535" /><path d="M 56.25429882871897 25.957352633546506 a86.0,86.0 0 0,1 42.265352541879196,-11.944610805530505" fill="none" id="id24" stroke="none" /><text fill="#e1ed5e" style="font-size:6.75px; font-family:Arial;" text-anchor="middle"><textPath startOffset="22.20632615414155" xlink:href="#id24">December</textPath></text><path d="M 98.19473922651362 79.07773832637324 l -4.528380455335339 -52.4821467545048 a73.67714834261287,73.67714834261287 0 0,0 1.2644746229754438,-0.09814756702792249 l 3.624315642997561 52.55231958372118" fill="#3fffbe" stroke="none" /></svg>